%TF.GenerationSoftware,Altium Limited,Altium Designer,22.7.1 (60)*%
G04 Layer_Physical_Order=1*
G04 Layer_Color=255*
%FSLAX43Y43*%
%MOMM*%
%TF.SameCoordinates,DFFB733E-25EA-4B03-B04C-AB34F345C761*%
%TF.FilePolarity,Positive*%
%TF.FileFunction,Copper,L1,Top,Signal*%
%TF.Part,Single*%
G01*
G75*
%TA.AperFunction,Conductor*%
%ADD10C,0.200*%
%ADD11C,0.250*%
%TA.AperFunction,SMDPad,CuDef*%
G04:AMPARAMS|DCode=12|XSize=1.6mm|YSize=0.7mm|CornerRadius=0.018mm|HoleSize=0mm|Usage=FLASHONLY|Rotation=180.000|XOffset=0mm|YOffset=0mm|HoleType=Round|Shape=RoundedRectangle|*
%AMROUNDEDRECTD12*
21,1,1.600,0.665,0,0,180.0*
21,1,1.565,0.700,0,0,180.0*
1,1,0.035,-0.782,0.333*
1,1,0.035,0.782,0.333*
1,1,0.035,0.782,-0.333*
1,1,0.035,-0.782,-0.333*
%
%ADD12ROUNDEDRECTD12*%
%ADD13R,0.370X0.500*%
%ADD14R,0.470X0.500*%
%ADD15R,1.100X1.500*%
G04:AMPARAMS|DCode=16|XSize=0.25mm|YSize=1mm|CornerRadius=0.025mm|HoleSize=0mm|Usage=FLASHONLY|Rotation=90.000|XOffset=0mm|YOffset=0mm|HoleType=Round|Shape=RoundedRectangle|*
%AMROUNDEDRECTD16*
21,1,0.250,0.950,0,0,90.0*
21,1,0.200,1.000,0,0,90.0*
1,1,0.050,0.475,0.100*
1,1,0.050,0.475,-0.100*
1,1,0.050,-0.475,-0.100*
1,1,0.050,-0.475,0.100*
%
%ADD16ROUNDEDRECTD16*%
G04:AMPARAMS|DCode=17|XSize=0.25mm|YSize=1mm|CornerRadius=0.025mm|HoleSize=0mm|Usage=FLASHONLY|Rotation=0.000|XOffset=0mm|YOffset=0mm|HoleType=Round|Shape=RoundedRectangle|*
%AMROUNDEDRECTD17*
21,1,0.250,0.950,0,0,0.0*
21,1,0.200,1.000,0,0,0.0*
1,1,0.050,0.100,-0.475*
1,1,0.050,-0.100,-0.475*
1,1,0.050,-0.100,0.475*
1,1,0.050,0.100,0.475*
%
%ADD17ROUNDEDRECTD17*%
%ADD18R,2.050X2.050*%
G04:AMPARAMS|DCode=19|XSize=1.2mm|YSize=0.6mm|CornerRadius=0.036mm|HoleSize=0mm|Usage=FLASHONLY|Rotation=180.000|XOffset=0mm|YOffset=0mm|HoleType=Round|Shape=RoundedRectangle|*
%AMROUNDEDRECTD19*
21,1,1.200,0.528,0,0,180.0*
21,1,1.128,0.600,0,0,180.0*
1,1,0.072,-0.564,0.264*
1,1,0.072,0.564,0.264*
1,1,0.072,0.564,-0.264*
1,1,0.072,-0.564,-0.264*
%
%ADD19ROUNDEDRECTD19*%
G04:AMPARAMS|DCode=20|XSize=1.4mm|YSize=0.6mm|CornerRadius=0.045mm|HoleSize=0mm|Usage=FLASHONLY|Rotation=180.000|XOffset=0mm|YOffset=0mm|HoleType=Round|Shape=RoundedRectangle|*
%AMROUNDEDRECTD20*
21,1,1.400,0.510,0,0,180.0*
21,1,1.310,0.600,0,0,180.0*
1,1,0.090,-0.655,0.255*
1,1,0.090,0.655,0.255*
1,1,0.090,0.655,-0.255*
1,1,0.090,-0.655,-0.255*
%
%ADD20ROUNDEDRECTD20*%
%ADD21R,2.000X3.600*%
%ADD22R,1.500X1.100*%
%ADD23R,3.800X2.030*%
%TA.AperFunction,Conductor*%
%ADD24C,0.500*%
%ADD25C,0.350*%
%TA.AperFunction,ComponentPad*%
%ADD26C,2.000*%
%ADD27C,1.700*%
%ADD28R,1.700X1.700*%
%ADD29C,1.875*%
%ADD30C,1.200*%
%TA.AperFunction,WasherPad*%
%ADD31C,3.000*%
%TA.AperFunction,ViaPad*%
%ADD32C,0.610*%
G36*
X53855Y59618D02*
X53438Y59339D01*
X53024Y58976D01*
X52661Y58562D01*
X52355Y58105D01*
X52111Y57611D01*
X51934Y57089D01*
X51827Y56549D01*
X51791Y56000D01*
X51827Y55451D01*
X51934Y54911D01*
X52111Y54389D01*
X52355Y53895D01*
X52661Y53438D01*
X53024Y53024D01*
X53438Y52661D01*
X53896Y52355D01*
X54389Y52111D01*
X54911Y51934D01*
X55451Y51827D01*
X56000Y51791D01*
X56549Y51827D01*
X57089Y51934D01*
X57611Y52111D01*
X58104Y52355D01*
X58562Y52661D01*
X58976Y53024D01*
X59339Y53438D01*
X59618Y53855D01*
X59745Y53817D01*
Y6183D01*
X59618Y6145D01*
X59339Y6562D01*
X58976Y6976D01*
X58562Y7339D01*
X58104Y7645D01*
X57611Y7889D01*
X57089Y8066D01*
X56549Y8173D01*
X56000Y8209D01*
X55451Y8173D01*
X54911Y8066D01*
X54389Y7889D01*
X53896Y7645D01*
X53438Y7339D01*
X53024Y6976D01*
X52661Y6562D01*
X52355Y6104D01*
X52111Y5611D01*
X51934Y5089D01*
X51827Y4549D01*
X51791Y4000D01*
X51827Y3451D01*
X51934Y2911D01*
X52111Y2389D01*
X52355Y1895D01*
X52661Y1438D01*
X53024Y1024D01*
X53438Y661D01*
X53855Y382D01*
X53817Y255D01*
X6183D01*
X6145Y382D01*
X6562Y661D01*
X6976Y1024D01*
X7339Y1438D01*
X7645Y1895D01*
X7889Y2389D01*
X8066Y2911D01*
X8173Y3451D01*
X8209Y4000D01*
X8173Y4549D01*
X8066Y5089D01*
X7889Y5611D01*
X7645Y6104D01*
X7339Y6562D01*
X6976Y6976D01*
X6562Y7339D01*
X6105Y7645D01*
X5611Y7889D01*
X5089Y8066D01*
X4549Y8173D01*
X4000Y8209D01*
X3451Y8173D01*
X2911Y8066D01*
X2389Y7889D01*
X1895Y7645D01*
X1438Y7339D01*
X1024Y6976D01*
X661Y6562D01*
X382Y6145D01*
X255Y6183D01*
Y33685D01*
X378Y33718D01*
X387Y33702D01*
X592Y33497D01*
X844Y33351D01*
X1125Y33276D01*
X1143D01*
Y34380D01*
X1270D01*
D01*
X1143D01*
Y35484D01*
X1125D01*
X844Y35409D01*
X592Y35263D01*
X387Y35058D01*
X378Y35042D01*
X255Y35075D01*
Y48925D01*
X378Y48958D01*
X387Y48942D01*
X592Y48737D01*
X844Y48591D01*
X1125Y48516D01*
X1143D01*
Y49620D01*
Y50724D01*
X1125D01*
X844Y50649D01*
X592Y50503D01*
X387Y50298D01*
X378Y50282D01*
X255Y50315D01*
Y53817D01*
X382Y53855D01*
X661Y53438D01*
X1024Y53024D01*
X1438Y52661D01*
X1895Y52355D01*
X2389Y52111D01*
X2911Y51934D01*
X3451Y51827D01*
X4000Y51791D01*
X4549Y51827D01*
X5089Y51934D01*
X5611Y52111D01*
X6105Y52355D01*
X6562Y52661D01*
X6976Y53024D01*
X7339Y53438D01*
X7645Y53895D01*
X7889Y54389D01*
X8066Y54911D01*
X8173Y55451D01*
X8209Y56000D01*
X8173Y56549D01*
X8066Y57089D01*
X7889Y57611D01*
X7645Y58105D01*
X7339Y58562D01*
X6976Y58976D01*
X6562Y59339D01*
X6145Y59618D01*
X6183Y59745D01*
X9073D01*
X9217Y59716D01*
X9353Y59660D01*
X9475Y59579D01*
X9579Y59475D01*
X9660Y59353D01*
X9716Y59217D01*
X9745Y59073D01*
Y59000D01*
X9745Y58969D01*
X9745Y58969D01*
X9745Y58969D01*
Y56000D01*
X9746Y55996D01*
X9745Y55992D01*
X9754Y55730D01*
X9757Y55718D01*
X9756Y55705D01*
X9824Y55186D01*
X9830Y55170D01*
X9831Y55154D01*
X9966Y54648D01*
X9974Y54633D01*
X9977Y54617D01*
X10177Y54133D01*
X10186Y54119D01*
X10192Y54103D01*
X10453Y53650D01*
X10464Y53638D01*
X10472Y53623D01*
X10790Y53207D01*
X10803Y53196D01*
X10812Y53182D01*
X11182Y52812D01*
X11196Y52803D01*
X11207Y52790D01*
X11623Y52472D01*
X11638Y52464D01*
X11650Y52453D01*
X12103Y52192D01*
X12119Y52186D01*
X12133Y52177D01*
X12617Y51977D01*
X12633Y51974D01*
X12648Y51966D01*
X13154Y51831D01*
X13170Y51830D01*
X13186Y51824D01*
X13705Y51756D01*
X13718Y51757D01*
X13730Y51754D01*
X13992Y51745D01*
X14000Y51747D01*
X14008Y51745D01*
X14270Y51754D01*
X14282Y51757D01*
X14295Y51756D01*
X14814Y51824D01*
X14830Y51830D01*
X14846Y51831D01*
X15352Y51966D01*
X15367Y51974D01*
X15383Y51977D01*
X15867Y52177D01*
X15881Y52186D01*
X15897Y52192D01*
X16350Y52453D01*
X16362Y52464D01*
X16377Y52472D01*
X16793Y52790D01*
X16804Y52803D01*
X16818Y52812D01*
X17188Y53182D01*
X17197Y53196D01*
X17210Y53207D01*
X17528Y53623D01*
X17536Y53638D01*
X17547Y53650D01*
X17808Y54103D01*
X17814Y54119D01*
X17823Y54133D01*
X18023Y54617D01*
X18026Y54633D01*
X18034Y54648D01*
X18169Y55154D01*
X18170Y55170D01*
X18176Y55186D01*
X18244Y55705D01*
X18243Y55718D01*
X18246Y55730D01*
X18255Y55992D01*
X18254Y55996D01*
X18255Y56000D01*
Y59073D01*
X18284Y59217D01*
X18340Y59353D01*
X18421Y59475D01*
X18525Y59579D01*
X18647Y59660D01*
X18783Y59716D01*
X18927Y59745D01*
X41073D01*
X41217Y59716D01*
X41353Y59660D01*
X41475Y59579D01*
X41579Y59475D01*
X41660Y59353D01*
X41716Y59217D01*
X41745Y59073D01*
Y56000D01*
X41746Y55996D01*
X41745Y55992D01*
X41754Y55730D01*
X41757Y55718D01*
X41756Y55705D01*
X41824Y55186D01*
X41830Y55170D01*
X41831Y55154D01*
X41966Y54648D01*
X41974Y54633D01*
X41977Y54617D01*
X42177Y54133D01*
X42186Y54119D01*
X42192Y54103D01*
X42453Y53650D01*
X42464Y53638D01*
X42472Y53623D01*
X42790Y53207D01*
X42803Y53196D01*
X42812Y53182D01*
X43182Y52812D01*
X43196Y52803D01*
X43207Y52790D01*
X43623Y52472D01*
X43638Y52464D01*
X43650Y52453D01*
X44103Y52192D01*
X44119Y52186D01*
X44133Y52177D01*
X44617Y51977D01*
X44633Y51974D01*
X44648Y51966D01*
X45154Y51831D01*
X45170Y51830D01*
X45186Y51824D01*
X45705Y51756D01*
X45718Y51757D01*
X45730Y51754D01*
X45992Y51745D01*
X46000Y51747D01*
X46008Y51745D01*
X46270Y51754D01*
X46282Y51757D01*
X46295Y51756D01*
X46814Y51824D01*
X46830Y51830D01*
X46846Y51831D01*
X47352Y51966D01*
X47367Y51974D01*
X47383Y51977D01*
X47867Y52177D01*
X47881Y52186D01*
X47897Y52192D01*
X48350Y52453D01*
X48362Y52464D01*
X48377Y52472D01*
X48793Y52790D01*
X48804Y52803D01*
X48818Y52812D01*
X49188Y53182D01*
X49197Y53196D01*
X49210Y53207D01*
X49528Y53623D01*
X49536Y53638D01*
X49547Y53650D01*
X49808Y54103D01*
X49814Y54119D01*
X49823Y54133D01*
X50023Y54617D01*
X50026Y54633D01*
X50034Y54648D01*
X50169Y55154D01*
X50170Y55170D01*
X50176Y55186D01*
X50244Y55705D01*
X50243Y55718D01*
X50246Y55730D01*
X50255Y55992D01*
X50254Y55996D01*
X50255Y56000D01*
Y59073D01*
X50284Y59217D01*
X50340Y59353D01*
X50421Y59475D01*
X50525Y59579D01*
X50647Y59660D01*
X50783Y59716D01*
X50927Y59745D01*
X53817D01*
X53855Y59618D01*
D02*
G37*
%LPC*%
G36*
X36004Y57804D02*
X35127D01*
Y57127D01*
X36004D01*
Y57804D01*
D02*
G37*
G36*
X34873D02*
X33996D01*
Y57127D01*
X34873D01*
Y57804D01*
D02*
G37*
G36*
X31705Y57455D02*
X30395D01*
X30299Y57436D01*
X30218Y57382D01*
X30164Y57301D01*
X30160Y57281D01*
X27050D01*
X26923Y57256D01*
X26816Y57184D01*
X21356Y51724D01*
X21284Y51617D01*
X21259Y51490D01*
Y50618D01*
X21185Y50598D01*
X20945Y50460D01*
X20750Y50265D01*
X20612Y50025D01*
X20540Y49758D01*
Y49482D01*
X20612Y49215D01*
X20750Y48975D01*
X20945Y48780D01*
X21185Y48642D01*
X21452Y48570D01*
X21728D01*
X21995Y48642D01*
X22235Y48780D01*
X22430Y48975D01*
X22568Y49215D01*
X22640Y49482D01*
Y49758D01*
X22568Y50025D01*
X22430Y50265D01*
X22235Y50460D01*
X21995Y50598D01*
X21921Y50618D01*
Y51353D01*
X27187Y56619D01*
X28072D01*
X28111Y56492D01*
X28079Y56471D01*
X28013Y56372D01*
X27990Y56255D01*
Y56127D01*
X28950D01*
X29910D01*
Y56255D01*
X29887Y56372D01*
X29821Y56471D01*
X29789Y56492D01*
X29828Y56619D01*
X30160D01*
X30164Y56599D01*
X30218Y56518D01*
X30299Y56464D01*
X30395Y56445D01*
X31705D01*
X31801Y56464D01*
X31882Y56518D01*
X31936Y56599D01*
X31955Y56695D01*
Y57205D01*
X31936Y57301D01*
X31882Y57382D01*
X31801Y57436D01*
X31705Y57455D01*
D02*
G37*
G36*
X36004Y56873D02*
X35127D01*
Y56196D01*
X36004D01*
Y56873D01*
D02*
G37*
G36*
X34873D02*
X33996D01*
Y56196D01*
X34873D01*
Y56873D01*
D02*
G37*
G36*
X29910Y55873D02*
X29077D01*
Y55440D01*
X29605D01*
X29722Y55463D01*
X29821Y55529D01*
X29887Y55628D01*
X29910Y55745D01*
Y55873D01*
D02*
G37*
G36*
X28823D02*
X27990D01*
Y55745D01*
X28013Y55628D01*
X28079Y55529D01*
X28178Y55463D01*
X28295Y55440D01*
X28823D01*
Y55873D01*
D02*
G37*
G36*
X35950Y55750D02*
X34050D01*
Y55381D01*
X31940D01*
X31936Y55401D01*
X31882Y55482D01*
X31801Y55536D01*
X31705Y55555D01*
X30395D01*
X30299Y55536D01*
X30218Y55482D01*
X30164Y55401D01*
X30145Y55305D01*
Y54795D01*
X30164Y54699D01*
X30218Y54618D01*
X30299Y54564D01*
X30395Y54545D01*
X31705D01*
X31801Y54564D01*
X31882Y54618D01*
X31936Y54699D01*
X31940Y54719D01*
X34050D01*
Y54250D01*
X34669D01*
Y53350D01*
X34565D01*
Y52550D01*
X34215D01*
Y52119D01*
X33766Y51669D01*
X33694Y51562D01*
X33669Y51435D01*
Y50570D01*
X33250D01*
Y49951D01*
X25128D01*
X25108Y50025D01*
X24970Y50265D01*
X24775Y50460D01*
X24535Y50598D01*
X24268Y50670D01*
X23992D01*
X23725Y50598D01*
X23485Y50460D01*
X23290Y50265D01*
X23152Y50025D01*
X23080Y49758D01*
Y49482D01*
X23152Y49215D01*
X23290Y48975D01*
X23485Y48780D01*
X23725Y48642D01*
X23992Y48570D01*
X24268D01*
X24535Y48642D01*
X24775Y48780D01*
X24970Y48975D01*
X25108Y49215D01*
X25128Y49289D01*
X33250D01*
Y48670D01*
X34750D01*
Y50570D01*
X34331D01*
Y51298D01*
X34684Y51650D01*
X34985D01*
Y51650D01*
X35015D01*
Y51650D01*
X35244D01*
X35618Y51277D01*
Y50570D01*
X35250D01*
Y48689D01*
X29386Y42824D01*
X29386Y42824D01*
X21936Y35374D01*
X21728Y35430D01*
X21452D01*
X21185Y35358D01*
X20945Y35220D01*
X20750Y35025D01*
X20612Y34785D01*
X20540Y34518D01*
Y34242D01*
X20612Y33975D01*
X20750Y33735D01*
X20945Y33540D01*
X21131Y33432D01*
Y27319D01*
X20892Y27180D01*
X20680Y26968D01*
X20530Y26709D01*
X20452Y26420D01*
Y26120D01*
X20530Y25831D01*
X20680Y25572D01*
X20892Y25360D01*
X21151Y25210D01*
X21440Y25132D01*
X21740D01*
X22029Y25210D01*
X22288Y25360D01*
X22500Y25572D01*
X22650Y25831D01*
X22728Y26120D01*
Y26420D01*
X22650Y26709D01*
X22500Y26968D01*
X22288Y27180D01*
X22049Y27319D01*
Y33432D01*
X22235Y33540D01*
X22430Y33735D01*
X22568Y33975D01*
X22640Y34242D01*
Y34518D01*
X22584Y34726D01*
X30034Y42176D01*
X30034Y42176D01*
X36059Y48200D01*
X36159Y48349D01*
X36194Y48525D01*
Y48670D01*
X36750D01*
Y50570D01*
X36382D01*
Y51435D01*
X36353Y51581D01*
X36270Y51705D01*
X35785Y52191D01*
Y52550D01*
X35435D01*
Y53350D01*
X35331D01*
Y54250D01*
X35950D01*
Y55750D01*
D02*
G37*
G36*
X1415Y50724D02*
X1397D01*
Y49747D01*
X2374D01*
Y49765D01*
X2299Y50046D01*
X2153Y50298D01*
X1948Y50503D01*
X1696Y50649D01*
X1415Y50724D01*
D02*
G37*
G36*
X19188Y50670D02*
X18912D01*
X18645Y50598D01*
X18405Y50460D01*
X18210Y50265D01*
X18072Y50025D01*
X18000Y49758D01*
Y49482D01*
X18072Y49215D01*
X18210Y48975D01*
X18405Y48780D01*
X18645Y48642D01*
X18912Y48570D01*
X19188D01*
X19455Y48642D01*
X19695Y48780D01*
X19890Y48975D01*
X20028Y49215D01*
X20100Y49482D01*
Y49758D01*
X20028Y50025D01*
X19890Y50265D01*
X19695Y50460D01*
X19455Y50598D01*
X19188Y50670D01*
D02*
G37*
G36*
X16648D02*
X16372D01*
X16105Y50598D01*
X15865Y50460D01*
X15670Y50265D01*
X15532Y50025D01*
X15460Y49758D01*
Y49482D01*
X15532Y49215D01*
X15670Y48975D01*
X15865Y48780D01*
X16105Y48642D01*
X16372Y48570D01*
X16648D01*
X16915Y48642D01*
X17155Y48780D01*
X17350Y48975D01*
X17488Y49215D01*
X17560Y49482D01*
Y49758D01*
X17488Y50025D01*
X17350Y50265D01*
X17155Y50460D01*
X16915Y50598D01*
X16648Y50670D01*
D02*
G37*
G36*
X14108D02*
X13832D01*
X13565Y50598D01*
X13325Y50460D01*
X13130Y50265D01*
X12992Y50025D01*
X12920Y49758D01*
Y49482D01*
X12992Y49215D01*
X13130Y48975D01*
X13325Y48780D01*
X13565Y48642D01*
X13832Y48570D01*
X14108D01*
X14375Y48642D01*
X14615Y48780D01*
X14810Y48975D01*
X14948Y49215D01*
X15020Y49482D01*
Y49758D01*
X14948Y50025D01*
X14810Y50265D01*
X14615Y50460D01*
X14375Y50598D01*
X14108Y50670D01*
D02*
G37*
G36*
X11568D02*
X11292D01*
X11025Y50598D01*
X10785Y50460D01*
X10590Y50265D01*
X10452Y50025D01*
X10380Y49758D01*
Y49482D01*
X10452Y49215D01*
X10590Y48975D01*
X10785Y48780D01*
X11025Y48642D01*
X11292Y48570D01*
X11568D01*
X11835Y48642D01*
X12075Y48780D01*
X12270Y48975D01*
X12408Y49215D01*
X12480Y49482D01*
Y49758D01*
X12408Y50025D01*
X12270Y50265D01*
X12075Y50460D01*
X11835Y50598D01*
X11568Y50670D01*
D02*
G37*
G36*
X9028D02*
X8752D01*
X8485Y50598D01*
X8245Y50460D01*
X8050Y50265D01*
X7912Y50025D01*
X7840Y49758D01*
Y49482D01*
X7912Y49215D01*
X8050Y48975D01*
X8245Y48780D01*
X8485Y48642D01*
X8752Y48570D01*
X9028D01*
X9295Y48642D01*
X9535Y48780D01*
X9730Y48975D01*
X9868Y49215D01*
X9940Y49482D01*
Y49758D01*
X9868Y50025D01*
X9730Y50265D01*
X9535Y50460D01*
X9295Y50598D01*
X9028Y50670D01*
D02*
G37*
G36*
X6488D02*
X6212D01*
X5945Y50598D01*
X5705Y50460D01*
X5510Y50265D01*
X5372Y50025D01*
X5300Y49758D01*
Y49482D01*
X5372Y49215D01*
X5510Y48975D01*
X5705Y48780D01*
X5945Y48642D01*
X6212Y48570D01*
X6488D01*
X6755Y48642D01*
X6995Y48780D01*
X7190Y48975D01*
X7328Y49215D01*
X7400Y49482D01*
Y49758D01*
X7328Y50025D01*
X7190Y50265D01*
X6995Y50460D01*
X6755Y50598D01*
X6488Y50670D01*
D02*
G37*
G36*
X3948D02*
X3672D01*
X3405Y50598D01*
X3165Y50460D01*
X2970Y50265D01*
X2832Y50025D01*
X2760Y49758D01*
Y49482D01*
X2832Y49215D01*
X2970Y48975D01*
X3165Y48780D01*
X3405Y48642D01*
X3672Y48570D01*
X3948D01*
X4215Y48642D01*
X4455Y48780D01*
X4650Y48975D01*
X4788Y49215D01*
X4860Y49482D01*
Y49758D01*
X4788Y50025D01*
X4650Y50265D01*
X4455Y50460D01*
X4215Y50598D01*
X3948Y50670D01*
D02*
G37*
G36*
X2374Y49493D02*
X1397D01*
Y48516D01*
X1415D01*
X1696Y48591D01*
X1948Y48737D01*
X2153Y48942D01*
X2299Y49194D01*
X2374Y49475D01*
Y49493D01*
D02*
G37*
G36*
X19195Y35484D02*
X19177D01*
Y34507D01*
X20154D01*
Y34525D01*
X20079Y34806D01*
X19933Y35058D01*
X19728Y35263D01*
X19476Y35409D01*
X19195Y35484D01*
D02*
G37*
G36*
X1415D02*
X1397D01*
Y34507D01*
X2374D01*
Y34525D01*
X2299Y34806D01*
X2153Y35058D01*
X1948Y35263D01*
X1696Y35409D01*
X1415Y35484D01*
D02*
G37*
G36*
X18923D02*
X18905D01*
X18624Y35409D01*
X18372Y35263D01*
X18167Y35058D01*
X18021Y34806D01*
X17946Y34525D01*
Y34507D01*
X18923D01*
Y35484D01*
D02*
G37*
G36*
X24268Y35430D02*
X23992D01*
X23725Y35358D01*
X23485Y35220D01*
X23290Y35025D01*
X23152Y34785D01*
X23080Y34518D01*
Y34242D01*
X23152Y33975D01*
X23290Y33735D01*
X23485Y33540D01*
X23725Y33402D01*
X23992Y33330D01*
X24268D01*
X24535Y33402D01*
X24775Y33540D01*
X24970Y33735D01*
X25108Y33975D01*
X25180Y34242D01*
Y34518D01*
X25108Y34785D01*
X24970Y35025D01*
X24775Y35220D01*
X24535Y35358D01*
X24268Y35430D01*
D02*
G37*
G36*
X16648D02*
X16372D01*
X16105Y35358D01*
X15865Y35220D01*
X15670Y35025D01*
X15532Y34785D01*
X15460Y34518D01*
Y34242D01*
X15532Y33975D01*
X15670Y33735D01*
X15865Y33540D01*
X16105Y33402D01*
X16372Y33330D01*
X16648D01*
X16915Y33402D01*
X17155Y33540D01*
X17350Y33735D01*
X17488Y33975D01*
X17560Y34242D01*
Y34518D01*
X17488Y34785D01*
X17350Y35025D01*
X17155Y35220D01*
X16915Y35358D01*
X16648Y35430D01*
D02*
G37*
G36*
X14108D02*
X13832D01*
X13565Y35358D01*
X13325Y35220D01*
X13130Y35025D01*
X12992Y34785D01*
X12920Y34518D01*
Y34242D01*
X12992Y33975D01*
X13130Y33735D01*
X13325Y33540D01*
X13565Y33402D01*
X13832Y33330D01*
X14108D01*
X14375Y33402D01*
X14615Y33540D01*
X14810Y33735D01*
X14948Y33975D01*
X15020Y34242D01*
Y34518D01*
X14948Y34785D01*
X14810Y35025D01*
X14615Y35220D01*
X14375Y35358D01*
X14108Y35430D01*
D02*
G37*
G36*
X11568D02*
X11292D01*
X11025Y35358D01*
X10785Y35220D01*
X10590Y35025D01*
X10452Y34785D01*
X10380Y34518D01*
Y34242D01*
X10452Y33975D01*
X10590Y33735D01*
X10785Y33540D01*
X11025Y33402D01*
X11292Y33330D01*
X11568D01*
X11835Y33402D01*
X12075Y33540D01*
X12270Y33735D01*
X12408Y33975D01*
X12480Y34242D01*
Y34518D01*
X12408Y34785D01*
X12270Y35025D01*
X12075Y35220D01*
X11835Y35358D01*
X11568Y35430D01*
D02*
G37*
G36*
X9028D02*
X8752D01*
X8485Y35358D01*
X8245Y35220D01*
X8050Y35025D01*
X7912Y34785D01*
X7840Y34518D01*
Y34242D01*
X7912Y33975D01*
X8050Y33735D01*
X8245Y33540D01*
X8485Y33402D01*
X8752Y33330D01*
X9028D01*
X9295Y33402D01*
X9535Y33540D01*
X9730Y33735D01*
X9868Y33975D01*
X9940Y34242D01*
Y34518D01*
X9868Y34785D01*
X9730Y35025D01*
X9535Y35220D01*
X9295Y35358D01*
X9028Y35430D01*
D02*
G37*
G36*
X6488D02*
X6212D01*
X5945Y35358D01*
X5705Y35220D01*
X5510Y35025D01*
X5372Y34785D01*
X5300Y34518D01*
Y34242D01*
X5372Y33975D01*
X5510Y33735D01*
X5705Y33540D01*
X5945Y33402D01*
X6212Y33330D01*
X6488D01*
X6755Y33402D01*
X6995Y33540D01*
X7190Y33735D01*
X7328Y33975D01*
X7400Y34242D01*
Y34518D01*
X7328Y34785D01*
X7190Y35025D01*
X6995Y35220D01*
X6755Y35358D01*
X6488Y35430D01*
D02*
G37*
G36*
X3948D02*
X3672D01*
X3405Y35358D01*
X3165Y35220D01*
X2970Y35025D01*
X2832Y34785D01*
X2760Y34518D01*
Y34242D01*
X2832Y33975D01*
X2970Y33735D01*
X3165Y33540D01*
X3405Y33402D01*
X3672Y33330D01*
X3948D01*
X4215Y33402D01*
X4455Y33540D01*
X4650Y33735D01*
X4788Y33975D01*
X4860Y34242D01*
Y34518D01*
X4788Y34785D01*
X4650Y35025D01*
X4455Y35220D01*
X4215Y35358D01*
X3948Y35430D01*
D02*
G37*
G36*
X20154Y34253D02*
X19177D01*
Y33276D01*
X19195D01*
X19476Y33351D01*
X19728Y33497D01*
X19933Y33702D01*
X20079Y33954D01*
X20154Y34235D01*
Y34253D01*
D02*
G37*
G36*
X18923D02*
X17946D01*
Y34235D01*
X18021Y33954D01*
X18167Y33702D01*
X18372Y33497D01*
X18624Y33351D01*
X18905Y33276D01*
X18923D01*
Y34253D01*
D02*
G37*
G36*
X2374D02*
X1397D01*
Y33276D01*
X1415D01*
X1696Y33351D01*
X1948Y33497D01*
X2153Y33702D01*
X2299Y33954D01*
X2374Y34235D01*
Y34253D01*
D02*
G37*
G36*
X45882Y27459D02*
X44318D01*
X44233Y27442D01*
X44161Y27394D01*
X44140Y27364D01*
X44010D01*
X43835Y27329D01*
X43686Y27229D01*
X43185Y26729D01*
X42959D01*
X42820Y26968D01*
X42608Y27180D01*
X42349Y27330D01*
X42060Y27407D01*
X41760D01*
X41471Y27330D01*
X41212Y27180D01*
X41000Y26968D01*
X40850Y26709D01*
X40772Y26420D01*
Y26120D01*
X40850Y25831D01*
X41000Y25572D01*
X41212Y25360D01*
X41471Y25210D01*
X41760Y25132D01*
X42060D01*
X42349Y25210D01*
X42608Y25360D01*
X42820Y25572D01*
X42959Y25811D01*
X43185D01*
X43686Y25311D01*
X43835Y25211D01*
X44010Y25176D01*
X44140D01*
X44161Y25146D01*
X44233Y25098D01*
X44318Y25081D01*
X45882D01*
X45967Y25098D01*
X46039Y25146D01*
X46083Y25150D01*
X46291Y24942D01*
Y19295D01*
X45455Y18459D01*
X44318D01*
X44233Y18442D01*
X44161Y18394D01*
X44113Y18322D01*
X44096Y18237D01*
Y17573D01*
X44113Y17488D01*
X44161Y17416D01*
X44233Y17368D01*
X44318Y17351D01*
X44641D01*
Y17189D01*
X44318D01*
X44233Y17172D01*
X44161Y17124D01*
X44113Y17052D01*
X44096Y16968D01*
Y16302D01*
X44113Y16218D01*
X44161Y16146D01*
X44233Y16098D01*
X44318Y16081D01*
X45882D01*
X45967Y16098D01*
X46039Y16146D01*
X46087Y16218D01*
X46104Y16302D01*
Y16968D01*
X46087Y17052D01*
X46039Y17124D01*
X45967Y17172D01*
X45882Y17189D01*
X45559D01*
Y17351D01*
X45882D01*
X45967Y17368D01*
X46039Y17416D01*
X46087Y17488D01*
X46104Y17573D01*
Y17810D01*
X47074Y18781D01*
X47174Y18929D01*
X47209Y19105D01*
Y25132D01*
X47174Y25308D01*
X47074Y25456D01*
X46571Y25959D01*
X46423Y26059D01*
X46247Y26094D01*
X46060D01*
X46039Y26124D01*
X45967Y26172D01*
X45882Y26189D01*
X44318D01*
X44233Y26172D01*
X44166Y26128D01*
X44024Y26270D01*
X44166Y26412D01*
X44233Y26368D01*
X44318Y26351D01*
X45882D01*
X45967Y26368D01*
X46039Y26416D01*
X46087Y26488D01*
X46104Y26573D01*
Y27237D01*
X46087Y27322D01*
X46039Y27394D01*
X45967Y27442D01*
X45882Y27459D01*
D02*
G37*
G36*
X39520Y27407D02*
X39220D01*
X38931Y27330D01*
X38672Y27180D01*
X38460Y26968D01*
X38321Y26729D01*
X32799D01*
X32660Y26968D01*
X32448Y27180D01*
X32189Y27330D01*
X31900Y27407D01*
X31600D01*
X31311Y27330D01*
X31052Y27180D01*
X30840Y26968D01*
X30690Y26709D01*
X30612Y26420D01*
Y26120D01*
X30684Y25853D01*
X29627Y24796D01*
X29360Y24868D01*
X29060D01*
X28771Y24790D01*
X28512Y24640D01*
X28300Y24428D01*
X28161Y24189D01*
X22639D01*
X22500Y24428D01*
X22288Y24640D01*
X22029Y24790D01*
X21740Y24868D01*
X21440D01*
X21173Y24796D01*
X20116Y25853D01*
X20188Y26120D01*
Y26420D01*
X20110Y26709D01*
X19960Y26968D01*
X19748Y27180D01*
X19489Y27330D01*
X19200Y27407D01*
X18900D01*
X18611Y27330D01*
X18352Y27180D01*
X18140Y26968D01*
X17990Y26709D01*
X17913Y26420D01*
Y26120D01*
X17990Y25831D01*
X18140Y25572D01*
X18352Y25360D01*
X18611Y25210D01*
X18900Y25132D01*
X19200D01*
X19467Y25204D01*
X20524Y24147D01*
X20452Y23880D01*
Y23580D01*
X20530Y23291D01*
X20680Y23032D01*
X20892Y22820D01*
X21151Y22670D01*
X21440Y22593D01*
X21740D01*
X22029Y22670D01*
X22288Y22820D01*
X22500Y23032D01*
X22639Y23271D01*
X28161D01*
X28300Y23032D01*
X28512Y22820D01*
X28771Y22670D01*
X29060Y22593D01*
X29360D01*
X29649Y22670D01*
X29908Y22820D01*
X30120Y23032D01*
X30270Y23291D01*
X30347Y23580D01*
Y23880D01*
X30276Y24147D01*
X31333Y25204D01*
X31600Y25132D01*
X31900D01*
X32189Y25210D01*
X32448Y25360D01*
X32660Y25572D01*
X32799Y25811D01*
X38321D01*
X38460Y25572D01*
X38672Y25360D01*
X38931Y25210D01*
X39220Y25132D01*
X39520D01*
X39809Y25210D01*
X40068Y25360D01*
X40280Y25572D01*
X40430Y25831D01*
X40507Y26120D01*
Y26420D01*
X40430Y26709D01*
X40280Y26968D01*
X40068Y27180D01*
X39809Y27330D01*
X39520Y27407D01*
D02*
G37*
G36*
X51682Y27459D02*
X50118D01*
X50033Y27442D01*
X49961Y27394D01*
X49913Y27322D01*
X49896Y27237D01*
Y27119D01*
X49871D01*
X49745Y27094D01*
X49637Y27022D01*
X49266Y26650D01*
X49194Y26543D01*
X49169Y26416D01*
Y24502D01*
X47866Y23199D01*
X47794Y23092D01*
X47769Y22965D01*
Y14783D01*
X47672Y14686D01*
X47595Y14500D01*
Y14300D01*
X47672Y14114D01*
X47814Y13972D01*
X48000Y13895D01*
X48200D01*
X48386Y13972D01*
X48528Y14114D01*
X48605Y14300D01*
Y14500D01*
X48528Y14686D01*
X48431Y14783D01*
Y22828D01*
X49637Y24034D01*
X49896D01*
Y24032D01*
X49913Y23948D01*
X49961Y23876D01*
X50033Y23828D01*
X50118Y23811D01*
X51682D01*
X51767Y23828D01*
X51839Y23876D01*
X51887Y23948D01*
X51904Y24032D01*
Y24698D01*
X51887Y24782D01*
X51839Y24854D01*
X51767Y24902D01*
X51682Y24919D01*
X50118D01*
X50033Y24902D01*
X49961Y24854D01*
X49958Y24851D01*
X49831Y24889D01*
Y25111D01*
X49958Y25149D01*
X49961Y25146D01*
X50033Y25098D01*
X50118Y25081D01*
X51682D01*
X51767Y25098D01*
X51839Y25146D01*
X51966Y25109D01*
X52119Y24956D01*
Y23812D01*
X51952Y23645D01*
X51839Y23584D01*
X51767Y23632D01*
X51682Y23649D01*
X50118D01*
X50033Y23632D01*
X49961Y23584D01*
X49913Y23512D01*
X49896Y23427D01*
Y22763D01*
X49913Y22678D01*
X49961Y22606D01*
X50033Y22558D01*
X50118Y22541D01*
X51682D01*
X51767Y22558D01*
X51839Y22606D01*
X51860Y22636D01*
X52051D01*
X52227Y22671D01*
X52375Y22771D01*
X52902Y23298D01*
X53002Y23446D01*
X53037Y23622D01*
Y25146D01*
X53002Y25322D01*
X52902Y25470D01*
X52413Y25959D01*
X52265Y26059D01*
X52089Y26094D01*
X51860D01*
X51839Y26124D01*
X51767Y26172D01*
X51682Y26189D01*
X50118D01*
X50033Y26172D01*
X49961Y26124D01*
X49958Y26121D01*
X49831Y26159D01*
Y26279D01*
X49965Y26413D01*
X50033Y26368D01*
X50118Y26351D01*
X51682D01*
X51767Y26368D01*
X51839Y26416D01*
X51887Y26488D01*
X51904Y26573D01*
Y27237D01*
X51887Y27322D01*
X51839Y27394D01*
X51767Y27442D01*
X51682Y27459D01*
D02*
G37*
G36*
X29360Y27407D02*
X29060D01*
X28771Y27330D01*
X28512Y27180D01*
X28300Y26968D01*
X28150Y26709D01*
X28073Y26420D01*
Y26120D01*
X28150Y25831D01*
X28300Y25572D01*
X28512Y25360D01*
X28771Y25210D01*
X29060Y25132D01*
X29360D01*
X29649Y25210D01*
X29908Y25360D01*
X30120Y25572D01*
X30270Y25831D01*
X30347Y26120D01*
Y26420D01*
X30270Y26709D01*
X30120Y26968D01*
X29908Y27180D01*
X29649Y27330D01*
X29360Y27407D01*
D02*
G37*
G36*
X5100Y29215D02*
X900D01*
Y26785D01*
X5100D01*
Y27541D01*
X9510D01*
X10364Y26687D01*
X10292Y26420D01*
Y26120D01*
X10370Y25831D01*
X10520Y25572D01*
X10732Y25360D01*
X10991Y25210D01*
X11280Y25132D01*
X11580D01*
X11869Y25210D01*
X12128Y25360D01*
X12340Y25572D01*
X12490Y25831D01*
X12568Y26120D01*
Y26420D01*
X12490Y26709D01*
X12340Y26968D01*
X12128Y27180D01*
X11869Y27330D01*
X11580Y27407D01*
X11280D01*
X11013Y27336D01*
X10024Y28324D01*
X9876Y28424D01*
X9700Y28459D01*
X5100D01*
Y29215D01*
D02*
G37*
G36*
X9040Y27407D02*
X8740D01*
X8451Y27330D01*
X8192Y27180D01*
X7980Y26968D01*
X7830Y26709D01*
X7757Y26436D01*
X7731Y26431D01*
X7582Y26331D01*
X4475Y23224D01*
X3765D01*
X3721Y23215D01*
X900D01*
Y20785D01*
X5100D01*
Y22551D01*
X8050Y25501D01*
X8192Y25360D01*
X8451Y25210D01*
X8740Y25132D01*
X9040D01*
X9329Y25210D01*
X9588Y25360D01*
X9800Y25572D01*
X9950Y25831D01*
X10028Y26120D01*
Y26420D01*
X9950Y26709D01*
X9800Y26968D01*
X9588Y27180D01*
X9329Y27330D01*
X9040Y27407D01*
D02*
G37*
G36*
X45882Y24919D02*
X44318D01*
X44233Y24902D01*
X44161Y24854D01*
X44140Y24824D01*
X44010D01*
X43835Y24789D01*
X43686Y24689D01*
X43185Y24189D01*
X42959D01*
X42820Y24428D01*
X42608Y24640D01*
X42349Y24790D01*
X42060Y24868D01*
X41760D01*
X41471Y24790D01*
X41212Y24640D01*
X41000Y24428D01*
X40850Y24169D01*
X40772Y23880D01*
Y23580D01*
X40850Y23291D01*
X41000Y23032D01*
X41212Y22820D01*
X41471Y22670D01*
X41760Y22593D01*
X42060D01*
X42349Y22670D01*
X42608Y22820D01*
X42820Y23032D01*
X42959Y23271D01*
X43185D01*
X43686Y22771D01*
X43835Y22671D01*
X44010Y22636D01*
X44140D01*
X44161Y22606D01*
X44233Y22558D01*
X44318Y22541D01*
X45882D01*
X45967Y22558D01*
X46039Y22606D01*
X46087Y22678D01*
X46104Y22763D01*
Y23427D01*
X46087Y23512D01*
X46039Y23584D01*
X45967Y23632D01*
X45882Y23649D01*
X44318D01*
X44233Y23632D01*
X44166Y23588D01*
X44024Y23730D01*
X44166Y23872D01*
X44233Y23828D01*
X44318Y23811D01*
X45882D01*
X45967Y23828D01*
X46039Y23876D01*
X46087Y23948D01*
X46104Y24032D01*
Y24698D01*
X46087Y24782D01*
X46039Y24854D01*
X45967Y24902D01*
X45882Y24919D01*
D02*
G37*
G36*
X39520Y24868D02*
X39220D01*
X38931Y24790D01*
X38672Y24640D01*
X38460Y24428D01*
X38321Y24189D01*
X32799D01*
X32660Y24428D01*
X32448Y24640D01*
X32189Y24790D01*
X31900Y24868D01*
X31600D01*
X31311Y24790D01*
X31052Y24640D01*
X30840Y24428D01*
X30690Y24169D01*
X30612Y23880D01*
Y23580D01*
X30684Y23313D01*
X28675Y21304D01*
X28576Y21155D01*
X28541Y20980D01*
Y20450D01*
X28250D01*
Y18550D01*
X28541D01*
Y17450D01*
X28250D01*
Y15550D01*
X28541D01*
Y15212D01*
X28495Y15101D01*
Y14900D01*
X28572Y14714D01*
X28714Y14572D01*
X28770Y14549D01*
X29003Y14331D01*
X28964Y14219D01*
X28951Y14204D01*
X28900D01*
X28812Y14187D01*
X28738Y14137D01*
X28688Y14063D01*
X28671Y13975D01*
Y13904D01*
X25400D01*
Y17000D01*
X23000D01*
Y13204D01*
X22000D01*
Y17000D01*
X19600D01*
Y13204D01*
X16650D01*
X16572Y13188D01*
X16506Y13144D01*
X16506Y13144D01*
X11952Y8590D01*
X11862D01*
X11595Y8518D01*
X11355Y8380D01*
X11160Y8185D01*
X11022Y7945D01*
X10950Y7678D01*
Y7402D01*
X11022Y7135D01*
X11160Y6895D01*
X11355Y6700D01*
X11595Y6562D01*
X11862Y6490D01*
X12138D01*
X12405Y6562D01*
X12645Y6700D01*
X12840Y6895D01*
X12978Y7135D01*
X13050Y7402D01*
Y7512D01*
X17209Y11671D01*
X19050D01*
Y10250D01*
X20950D01*
Y11671D01*
X21550D01*
Y10250D01*
X23450D01*
Y11671D01*
X24050D01*
Y10250D01*
X25950D01*
Y10419D01*
X27000D01*
X27114Y10441D01*
X27149Y10434D01*
X27246Y10371D01*
X27262Y10291D01*
X27324Y10199D01*
X27416Y10137D01*
X27525Y10116D01*
X28050D01*
X28050Y5094D01*
X27960Y5004D01*
X27627D01*
Y4000D01*
Y2996D01*
X28304D01*
Y3000D01*
X36692Y3000D01*
X36696Y2996D01*
Y2996D01*
X37373D01*
Y4000D01*
Y5004D01*
X36950D01*
Y8025D01*
X34345Y10630D01*
X34428Y10714D01*
X34505Y10900D01*
Y11100D01*
X34428Y11286D01*
X34300Y11414D01*
X34310Y11480D01*
X34339Y11541D01*
X46084D01*
X46196Y11504D01*
Y10627D01*
X47000D01*
X47804D01*
Y11181D01*
X47921Y11230D01*
X48241Y10910D01*
Y10800D01*
X48250Y10756D01*
Y9550D01*
X48541D01*
Y5965D01*
X48533Y5960D01*
X48310Y5737D01*
X48152Y5463D01*
X48094Y5246D01*
X47962D01*
X47899Y5484D01*
X47733Y5770D01*
X47500Y6003D01*
X47214Y6169D01*
X46895Y6254D01*
X46857D01*
Y5000D01*
Y3746D01*
X46895D01*
X47214Y3831D01*
X47500Y3997D01*
X47733Y4230D01*
X47899Y4516D01*
X47962Y4754D01*
X48094D01*
X48152Y4537D01*
X48310Y4263D01*
X48533Y4040D01*
X48807Y3882D01*
X49112Y3800D01*
X49428D01*
X49733Y3882D01*
X50007Y4040D01*
X50230Y4263D01*
X50388Y4537D01*
X50470Y4842D01*
Y5158D01*
X50388Y5463D01*
X50230Y5737D01*
X50007Y5960D01*
X49733Y6118D01*
X49459Y6192D01*
Y9550D01*
X49750D01*
Y11450D01*
X48999D01*
X48124Y12324D01*
X47976Y12424D01*
X47800Y12459D01*
X45559D01*
Y13541D01*
X45882D01*
X45967Y13558D01*
X46039Y13606D01*
X46087Y13678D01*
X46104Y13762D01*
Y14427D01*
X46087Y14512D01*
X46039Y14584D01*
X45967Y14632D01*
X45882Y14649D01*
X45559D01*
Y14811D01*
X45882D01*
X45967Y14828D01*
X46039Y14876D01*
X46087Y14948D01*
X46104Y15033D01*
Y15698D01*
X46087Y15782D01*
X46039Y15854D01*
X45967Y15902D01*
X45882Y15919D01*
X44318D01*
X44233Y15902D01*
X44161Y15854D01*
X44113Y15782D01*
X44096Y15698D01*
Y15033D01*
X44113Y14948D01*
X44161Y14876D01*
X44233Y14828D01*
X44318Y14811D01*
X44641D01*
Y14649D01*
X44318D01*
X44233Y14632D01*
X44161Y14584D01*
X44113Y14512D01*
X44096Y14427D01*
Y13762D01*
X44113Y13678D01*
X44161Y13606D01*
X44233Y13558D01*
X44318Y13541D01*
X44641D01*
Y12459D01*
X33800D01*
X33624Y12424D01*
X33486Y12331D01*
X32816D01*
X32782Y12373D01*
X32000D01*
Y12500D01*
X31873D01*
Y12884D01*
X31525D01*
X31476Y12875D01*
X31375Y12976D01*
X31384Y13025D01*
Y13373D01*
X31000D01*
Y13627D01*
X31384D01*
Y13975D01*
X31443Y14046D01*
X36088D01*
X36110Y14009D01*
X36259Y13860D01*
X36441Y13755D01*
X36645Y13700D01*
X36855D01*
X37059Y13755D01*
X37241Y13860D01*
X37390Y14009D01*
X37495Y14191D01*
X37550Y14395D01*
Y14605D01*
X37495Y14809D01*
X37390Y14991D01*
X37241Y15140D01*
X37059Y15245D01*
X36855Y15300D01*
X36645D01*
X36441Y15245D01*
X36259Y15140D01*
X36110Y14991D01*
X36088Y14954D01*
X30807Y14954D01*
X30730Y14960D01*
X30710Y14957D01*
X30690Y14959D01*
X30521Y14937D01*
X30502Y14931D01*
X30482Y14929D01*
X30320Y14875D01*
X30303Y14865D01*
X30284Y14859D01*
X30135Y14775D01*
X30120Y14761D01*
X30103Y14752D01*
X29974Y14640D01*
X29962Y14624D01*
X29946Y14611D01*
X29921Y14579D01*
X29785Y14611D01*
X29774Y14669D01*
X29766Y14689D01*
X29761Y14710D01*
X29651Y14964D01*
X29639Y14982D01*
X29629Y15002D01*
X29468Y15226D01*
X29459Y15235D01*
Y15550D01*
X29750D01*
Y17450D01*
X29459D01*
Y18550D01*
X29750D01*
Y20450D01*
X29459D01*
Y20790D01*
X31333Y22664D01*
X31600Y22593D01*
X31900D01*
X32189Y22670D01*
X32448Y22820D01*
X32660Y23032D01*
X32799Y23271D01*
X38321D01*
X38460Y23032D01*
X38672Y22820D01*
X38931Y22670D01*
X39220Y22593D01*
X39520D01*
X39809Y22670D01*
X40068Y22820D01*
X40280Y23032D01*
X40430Y23291D01*
X40507Y23580D01*
Y23880D01*
X40430Y24169D01*
X40280Y24428D01*
X40068Y24640D01*
X39809Y24790D01*
X39520Y24868D01*
D02*
G37*
G36*
X19200D02*
X18900D01*
X18611Y24790D01*
X18352Y24640D01*
X18140Y24428D01*
X17990Y24169D01*
X17913Y23880D01*
Y23580D01*
X17990Y23291D01*
X18140Y23032D01*
X18352Y22820D01*
X18611Y22670D01*
X18900Y22593D01*
X19200D01*
X19489Y22670D01*
X19748Y22820D01*
X19960Y23032D01*
X20110Y23291D01*
X20188Y23580D01*
Y23880D01*
X20110Y24169D01*
X19960Y24428D01*
X19748Y24640D01*
X19489Y24790D01*
X19200Y24868D01*
D02*
G37*
G36*
X9040D02*
X8740D01*
X8451Y24790D01*
X8192Y24640D01*
X7980Y24428D01*
X7830Y24169D01*
X7753Y23880D01*
Y23580D01*
X7824Y23313D01*
X7176Y22664D01*
X7076Y22516D01*
X7041Y22340D01*
Y18250D01*
X7076Y18074D01*
X7176Y17926D01*
X8241Y16860D01*
Y16800D01*
X8250Y16756D01*
Y15550D01*
X8541D01*
Y14450D01*
X8250D01*
Y12550D01*
X9750D01*
Y14450D01*
X9459D01*
Y15550D01*
X9750D01*
Y17450D01*
X8949D01*
X7959Y18440D01*
Y22150D01*
X8473Y22664D01*
X8740Y22593D01*
X9040D01*
X9329Y22670D01*
X9588Y22820D01*
X9800Y23032D01*
X9950Y23291D01*
X10028Y23580D01*
Y23880D01*
X9950Y24169D01*
X9800Y24428D01*
X9588Y24640D01*
X9329Y24790D01*
X9040Y24868D01*
D02*
G37*
G36*
X59100Y23215D02*
X54900D01*
Y20785D01*
X59100D01*
Y23215D01*
D02*
G37*
G36*
X9804Y20504D02*
X9127D01*
Y19627D01*
X9804D01*
Y20504D01*
D02*
G37*
G36*
X8873D02*
X8196D01*
Y19627D01*
X8873D01*
Y20504D01*
D02*
G37*
G36*
X31804Y20504D02*
X31127D01*
Y19627D01*
X31804D01*
Y20504D01*
D02*
G37*
G36*
X30873D02*
X30196D01*
Y19627D01*
X30873D01*
Y20504D01*
D02*
G37*
G36*
X9804Y19373D02*
X9127D01*
Y18496D01*
X9804D01*
Y19373D01*
D02*
G37*
G36*
X8873D02*
X8196D01*
Y18496D01*
X8873D01*
Y19373D01*
D02*
G37*
G36*
X31804Y19373D02*
X31127D01*
Y18496D01*
X31804D01*
Y19373D01*
D02*
G37*
G36*
X30873D02*
X30196D01*
Y18496D01*
X30873D01*
Y19373D01*
D02*
G37*
G36*
X51682Y18459D02*
X50118D01*
X50033Y18442D01*
X49961Y18394D01*
X49913Y18322D01*
X49896Y18237D01*
Y18199D01*
X49871D01*
X49745Y18174D01*
X49637Y18102D01*
X49036Y17500D01*
X48964Y17393D01*
X48939Y17266D01*
Y15748D01*
X48842Y15651D01*
X48765Y15465D01*
Y15265D01*
X48842Y15079D01*
X48984Y14937D01*
X49170Y14860D01*
X49370D01*
X49556Y14937D01*
X49653Y15034D01*
X49896D01*
Y15033D01*
X49913Y14948D01*
X49961Y14876D01*
X50033Y14828D01*
X50118Y14811D01*
X51682D01*
X51767Y14828D01*
X51839Y14876D01*
X51887Y14948D01*
X51904Y15033D01*
Y15698D01*
X51887Y15782D01*
X51839Y15854D01*
X51767Y15902D01*
X51682Y15919D01*
X50118D01*
X50033Y15902D01*
X49961Y15854D01*
X49913Y15782D01*
X49896Y15698D01*
Y15696D01*
X49653D01*
X49601Y15748D01*
Y17129D01*
X49895Y17422D01*
X49961Y17416D01*
X50033Y17368D01*
X50118Y17351D01*
X51682D01*
X51767Y17368D01*
X51839Y17416D01*
X51887Y17488D01*
X51904Y17573D01*
Y18237D01*
X51887Y18322D01*
X51839Y18394D01*
X51767Y18442D01*
X51682Y18459D01*
D02*
G37*
G36*
X11580Y24868D02*
X11280D01*
X10991Y24790D01*
X10732Y24640D01*
X10520Y24428D01*
X10370Y24169D01*
X10292Y23880D01*
Y23580D01*
X10370Y23291D01*
X10520Y23032D01*
X10555Y22996D01*
X10541Y22928D01*
Y20450D01*
X10250D01*
Y18550D01*
X11051D01*
X12456Y17145D01*
X12605Y17046D01*
X12780Y17011D01*
X12973D01*
X13044Y16964D01*
X13136Y16945D01*
X14264D01*
X14356Y16964D01*
X14434Y17016D01*
X14486Y17094D01*
X14505Y17186D01*
Y17714D01*
X14486Y17806D01*
X14434Y17884D01*
X14356Y17936D01*
X14264Y17955D01*
X13136D01*
X13044Y17936D01*
X13032Y17929D01*
X12970D01*
X11759Y19140D01*
Y19200D01*
X11750Y19244D01*
Y20450D01*
X11459D01*
Y22593D01*
X11580D01*
X11869Y22670D01*
X12128Y22820D01*
X12340Y23032D01*
X12490Y23291D01*
X12568Y23580D01*
Y23880D01*
X12490Y24169D01*
X12340Y24428D01*
X12128Y24640D01*
X11869Y24790D01*
X11580Y24868D01*
D02*
G37*
G36*
X16864Y17955D02*
X15736D01*
X15644Y17936D01*
X15566Y17884D01*
X15514Y17806D01*
X15495Y17714D01*
Y17186D01*
X15514Y17094D01*
X15527Y16973D01*
X15463Y16877D01*
X15440Y16764D01*
Y16627D01*
X16300D01*
X17160D01*
Y16764D01*
X17137Y16877D01*
X17073Y16973D01*
X17086Y17094D01*
X17105Y17186D01*
Y17714D01*
X17086Y17806D01*
X17034Y17884D01*
X16956Y17936D01*
X16864Y17955D01*
D02*
G37*
G36*
X31804Y17504D02*
X31127D01*
Y16627D01*
X31804D01*
Y17504D01*
D02*
G37*
G36*
X11804D02*
X11127D01*
Y16627D01*
X11804D01*
Y17504D01*
D02*
G37*
G36*
X30873D02*
X30196D01*
Y16627D01*
X30873D01*
Y17504D01*
D02*
G37*
G36*
X10873D02*
X10196D01*
Y16627D01*
X10873D01*
Y17504D01*
D02*
G37*
G36*
X5154Y17269D02*
X3127D01*
Y16127D01*
X5154D01*
Y17269D01*
D02*
G37*
G36*
X2873D02*
X846D01*
Y16127D01*
X2873D01*
Y17269D01*
D02*
G37*
G36*
X31804Y16373D02*
X31127D01*
Y15496D01*
X31804D01*
Y16373D01*
D02*
G37*
G36*
X30873D02*
X30196D01*
Y15496D01*
X30873D01*
Y16373D01*
D02*
G37*
G36*
X11804D02*
X11127D01*
Y15496D01*
X11804D01*
Y16373D01*
D02*
G37*
G36*
X10873D02*
X10196D01*
Y15496D01*
X10873D01*
Y16373D01*
D02*
G37*
G36*
X14264Y16055D02*
X13136D01*
X13044Y16036D01*
X12966Y15984D01*
X12914Y15906D01*
X12895Y15814D01*
Y15286D01*
X12914Y15194D01*
X12966Y15116D01*
X13044Y15064D01*
X13136Y15045D01*
X14264D01*
X14356Y15064D01*
X14434Y15116D01*
X14486Y15194D01*
X14505Y15286D01*
Y15814D01*
X14486Y15906D01*
X14434Y15984D01*
X14356Y16036D01*
X14264Y16055D01*
D02*
G37*
G36*
X59100Y17215D02*
X54900D01*
Y14785D01*
X59100D01*
Y17215D01*
D02*
G37*
G36*
X5154Y15873D02*
X3127D01*
Y14731D01*
X5154D01*
Y15873D01*
D02*
G37*
G36*
X2873D02*
X846D01*
Y14731D01*
X2873D01*
Y15873D01*
D02*
G37*
G36*
X40377Y15350D02*
Y14627D01*
X41100D01*
X41046Y14830D01*
X40933Y15024D01*
X40774Y15183D01*
X40580Y15296D01*
X40377Y15350D01*
D02*
G37*
G36*
X40123D02*
X39920Y15296D01*
X39726Y15183D01*
X39567Y15024D01*
X39454Y14830D01*
X39400Y14627D01*
X40123D01*
Y15350D01*
D02*
G37*
G36*
X51682Y17189D02*
X50118D01*
X50033Y17172D01*
X49961Y17124D01*
X49913Y17052D01*
X49896Y16968D01*
Y16302D01*
X49913Y16218D01*
X49961Y16146D01*
X50033Y16098D01*
X50118Y16081D01*
X51682D01*
X51767Y16098D01*
X51807Y16124D01*
X52119Y15812D01*
Y14922D01*
X51805Y14607D01*
X51767Y14632D01*
X51682Y14649D01*
X50118D01*
X50033Y14632D01*
X49961Y14584D01*
X49913Y14512D01*
X49896Y14427D01*
Y13762D01*
X49913Y13678D01*
X49961Y13606D01*
X50033Y13558D01*
X50118Y13541D01*
X51682D01*
X51767Y13558D01*
X51839Y13606D01*
X51860Y13636D01*
X51941D01*
X52117Y13671D01*
X52265Y13771D01*
X52902Y14408D01*
X53002Y14556D01*
X53037Y14732D01*
Y16002D01*
X53002Y16178D01*
X52902Y16326D01*
X52269Y16959D01*
X52121Y17059D01*
X51945Y17094D01*
X51860D01*
X51839Y17124D01*
X51767Y17172D01*
X51682Y17189D01*
D02*
G37*
G36*
X17160Y16373D02*
X16300D01*
X15440D01*
Y16236D01*
X15463Y16123D01*
X15527Y16027D01*
X15514Y15906D01*
X15495Y15814D01*
Y15694D01*
X13760Y13959D01*
X11750D01*
Y14450D01*
X10250D01*
Y12550D01*
X11750D01*
Y13041D01*
X13950D01*
X14126Y13076D01*
X14275Y13176D01*
X16144Y15045D01*
X16864D01*
X16956Y15064D01*
X17034Y15116D01*
X17086Y15194D01*
X17105Y15286D01*
Y15814D01*
X17086Y15906D01*
X17073Y16027D01*
X17137Y16123D01*
X17160Y16236D01*
Y16373D01*
D02*
G37*
G36*
X41100Y14373D02*
X40377D01*
Y13650D01*
X40580Y13704D01*
X40774Y13817D01*
X40933Y13976D01*
X41046Y14170D01*
X41100Y14373D01*
D02*
G37*
G36*
X40123D02*
X39400D01*
X39454Y14170D01*
X39567Y13976D01*
X39726Y13817D01*
X39920Y13704D01*
X40123Y13650D01*
Y14373D01*
D02*
G37*
G36*
X32475Y12884D02*
X32127D01*
Y12627D01*
X32754D01*
X32738Y12709D01*
X32676Y12801D01*
X32584Y12863D01*
X32475Y12884D01*
D02*
G37*
G36*
X59154Y11269D02*
X57127D01*
Y10127D01*
X59154D01*
Y11269D01*
D02*
G37*
G36*
X56873D02*
X54846D01*
Y10127D01*
X56873D01*
Y11269D01*
D02*
G37*
G36*
X47804Y10373D02*
X47127D01*
Y9496D01*
X47804D01*
Y10373D01*
D02*
G37*
G36*
X46873D02*
X46196D01*
Y9496D01*
X46873D01*
Y10373D01*
D02*
G37*
G36*
X23504Y9804D02*
X22627D01*
Y9127D01*
X23504D01*
Y9804D01*
D02*
G37*
G36*
X21004D02*
X20127D01*
Y9127D01*
X21004D01*
Y9804D01*
D02*
G37*
G36*
X19873D02*
X18996D01*
Y9127D01*
X19873D01*
Y9804D01*
D02*
G37*
G36*
X22373D02*
X21496D01*
Y9127D01*
X22373D01*
Y9804D01*
D02*
G37*
G36*
X26004Y9804D02*
X25127D01*
Y9127D01*
X26004D01*
Y9804D01*
D02*
G37*
G36*
X24873D02*
X23996D01*
Y9127D01*
X24873D01*
Y9804D01*
D02*
G37*
G36*
X59154Y9873D02*
X57127D01*
Y8731D01*
X59154D01*
Y9873D01*
D02*
G37*
G36*
X56873D02*
X54846D01*
Y8731D01*
X56873D01*
Y9873D01*
D02*
G37*
G36*
X23504Y8873D02*
X22627D01*
Y8196D01*
X23504D01*
Y8873D01*
D02*
G37*
G36*
X22373D02*
X21496D01*
Y8196D01*
X22373D01*
Y8873D01*
D02*
G37*
G36*
X21004D02*
X20127D01*
Y8196D01*
X21004D01*
Y8873D01*
D02*
G37*
G36*
X19873D02*
X18996D01*
Y8196D01*
X19873D01*
Y8873D01*
D02*
G37*
G36*
X26004Y8873D02*
X25127D01*
Y8196D01*
X26004D01*
Y8873D01*
D02*
G37*
G36*
X24873D02*
X23996D01*
Y8196D01*
X24873D01*
Y8873D01*
D02*
G37*
G36*
X46603Y6254D02*
X46565D01*
X46246Y6169D01*
X45960Y6003D01*
X45727Y5770D01*
X45561Y5484D01*
X45476Y5165D01*
Y5127D01*
X46603D01*
Y6254D01*
D02*
G37*
G36*
X38304Y5004D02*
X37627D01*
Y4127D01*
X38304D01*
Y5004D01*
D02*
G37*
G36*
X27373Y5004D02*
X26696D01*
Y4127D01*
X27373D01*
Y5004D01*
D02*
G37*
G36*
X5100Y11215D02*
X900D01*
Y8785D01*
X5100D01*
Y9541D01*
X5285D01*
X10151Y4676D01*
X10299Y4576D01*
X10475Y4541D01*
X10950D01*
Y3950D01*
X13050D01*
Y6050D01*
X10950D01*
Y5459D01*
X10665D01*
X5799Y10324D01*
X5651Y10424D01*
X5475Y10459D01*
X5100D01*
Y11215D01*
D02*
G37*
G36*
X46603Y4873D02*
X45476D01*
Y4835D01*
X45561Y4516D01*
X45727Y4230D01*
X45960Y3997D01*
X46246Y3831D01*
X46565Y3746D01*
X46603D01*
Y4873D01*
D02*
G37*
G36*
X38304Y3873D02*
X37627D01*
Y2996D01*
X38304D01*
Y3873D01*
D02*
G37*
G36*
X27373Y3873D02*
X26696D01*
Y2996D01*
X27373D01*
Y3873D01*
D02*
G37*
%LPD*%
G36*
X29200Y15200D02*
X29303Y15107D01*
X29464Y14883D01*
X29574Y14629D01*
X29628Y14358D01*
X29625Y14220D01*
X29625Y13975D01*
X29375D01*
X29375Y13975D01*
X29372Y14040D01*
X29346Y14168D01*
X29297Y14288D01*
X29224Y14396D01*
X29181Y14444D01*
X28800Y14800D01*
X29200Y15200D01*
X29200Y15200D01*
D02*
G37*
G36*
X30800Y14750D02*
X36250Y14750D01*
Y14250D01*
X30425D01*
X30425Y14250D01*
X30366Y14244D01*
X30258Y14199D01*
X30176Y14117D01*
X30131Y14009D01*
X30125Y13950D01*
X30002D01*
X29939Y13995D01*
X29893Y14077D01*
X29926Y14199D01*
X30003Y14351D01*
X30107Y14486D01*
X30236Y14597D01*
X30384Y14681D01*
X30546Y14735D01*
X30715Y14756D01*
X30800Y14750D01*
D02*
G37*
G36*
X29000Y13200D02*
X25000D01*
Y13700D01*
X29000D01*
Y13200D01*
D02*
G37*
G36*
X26625Y13000D02*
X27500Y12125D01*
Y11875D01*
X26770D01*
X26758Y11887D01*
X26591Y11956D01*
X26409D01*
X26242Y11887D01*
X26230Y11875D01*
X17125Y11875D01*
X12750Y7500D01*
X12000D01*
Y8350D01*
X16650Y13000D01*
X26625Y13000D01*
D02*
G37*
D10*
X24200Y15000D02*
G03*
X25700Y13500I1500J0D01*
G01*
X29500Y13793D02*
G03*
X29000Y15000I-1708J0D01*
G01*
D11*
X30582Y14500D02*
G03*
X30000Y13918I0J-582D01*
G01*
X37000Y7500D02*
Y11000D01*
X32502Y15365D02*
Y16353D01*
X31000Y16500D02*
X32355D01*
X32502Y16353D01*
X34495Y16500D02*
X39750D01*
X33360Y15365D02*
X34495Y16500D01*
X32502Y15365D02*
X33360D01*
X31000Y16425D02*
Y19500D01*
X49270Y15365D02*
Y17266D01*
X49871Y17867D01*
X49270Y15365D02*
X50900D01*
X37500Y4000D02*
Y7000D01*
X48100Y14400D02*
Y22965D01*
X49500Y24365D01*
X25700Y13500D02*
X29000D01*
X24200Y14375D02*
Y15000D01*
X30582Y14500D02*
X36750D01*
X30000Y13500D02*
Y13918D01*
X29500Y13500D02*
Y13793D01*
X32000Y12000D02*
X33800D01*
X33500Y11500D02*
X34000Y11000D01*
X32000Y11500D02*
X33500D01*
X32000Y12500D02*
X33000D01*
X33500Y13000D02*
X37000D01*
X33000Y12500D02*
X33500Y13000D01*
X40250Y14500D02*
X42700D01*
X43500Y13000D02*
Y13700D01*
X42700Y14500D02*
X43500Y13700D01*
X27500Y54000D02*
X29000Y52500D01*
X25500Y54000D02*
X27500D01*
X29000Y52500D02*
Y54000D01*
Y55950D01*
X30720Y56084D02*
X32684D01*
X29804Y54527D02*
Y55168D01*
X32684Y56084D02*
X33600Y57000D01*
X29069Y54069D02*
X29346D01*
X22860Y51360D02*
X25500Y54000D01*
X28950Y56000D02*
X29000Y55950D01*
Y54000D02*
X29069Y54069D01*
X29346D02*
X29804Y54527D01*
Y55168D02*
X30720Y56084D01*
X34000Y49620D02*
X34000Y49620D01*
X24130Y49620D02*
X34000D01*
X35400Y52035D02*
Y52100D01*
X34000Y51435D02*
X34600Y52035D01*
X34000Y49620D02*
Y51435D01*
X34600Y52035D02*
Y52100D01*
X35000Y52900D02*
Y55000D01*
X35000Y55000D01*
X33600Y57000D02*
X35000D01*
X34950Y55050D02*
X35000Y55000D01*
X31050Y55050D02*
X34950D01*
X37500Y2750D02*
Y4000D01*
X42500Y5000D02*
X46730D01*
X41500Y4000D02*
X42500Y5000D01*
X37500Y4000D02*
X41500D01*
X37000Y7500D02*
X37500Y7000D01*
X28000Y12500D02*
X29000D01*
X29400Y12100D01*
X27500Y4000D02*
Y9000D01*
X27500Y9000D02*
X27500Y9000D01*
X29000Y9525D02*
Y10500D01*
Y9500D02*
Y9525D01*
X28025D02*
X29000D01*
X27500Y9000D02*
X28025Y9525D01*
X25000Y9000D02*
X27500D01*
X27500Y2500D02*
Y4000D01*
X29500D02*
Y6500D01*
X35500Y4000D02*
Y6500D01*
X27500Y2500D02*
X28000Y2000D01*
X36750D01*
X37500Y2750D01*
X29500Y6500D02*
Y9500D01*
X29500Y6500D02*
X29500Y6500D01*
X29400Y10900D02*
X30000Y11500D01*
X29000Y10500D02*
X29400Y10900D01*
X28000Y10500D02*
X29000D01*
X49500Y26416D02*
X49871Y26787D01*
X50782D02*
X50900Y26905D01*
X49871Y26787D02*
X50782D01*
X49500Y24365D02*
Y26416D01*
X50862Y17867D02*
X50900Y17905D01*
X49871Y17867D02*
X50862D01*
X1270Y34380D02*
Y49620D01*
X21590D02*
Y51490D01*
X27050Y56950D01*
X31050D01*
X22860Y44450D02*
Y51360D01*
X19050Y40640D02*
X22860Y44450D01*
X19050Y34380D02*
Y40640D01*
Y31750D02*
Y34380D01*
X35500Y55000D02*
X35500Y55000D01*
X17100Y19800D02*
Y29800D01*
Y19800D02*
X18000Y18900D01*
Y16500D02*
Y18900D01*
X17100Y29800D02*
X19050Y31750D01*
X18750Y9000D02*
X20000D01*
X18000Y9750D02*
X18750Y9000D01*
X18000Y9750D02*
Y11000D01*
X16300Y16500D02*
X18000D01*
X31000Y9500D02*
Y9500D01*
X32000D01*
X31000Y8250D02*
X32000D01*
X30500Y8750D02*
X31000Y8250D01*
X30500Y8750D02*
Y9500D01*
X40250Y14500D02*
Y16000D01*
X39750Y16500D02*
X40250Y16000D01*
X30500Y12200D02*
X30600Y12100D01*
X49500Y24365D02*
X50900D01*
X46730Y5000D02*
X46750Y5020D01*
Y7500D01*
X47000Y7750D01*
Y8250D01*
X47000Y8250D01*
Y10500D01*
X30500Y12200D02*
Y13500D01*
X30000Y11500D02*
X30600Y12100D01*
X31000Y12500D02*
Y13500D01*
X11000Y16500D02*
X11000Y16500D01*
X16300D01*
X10750Y18000D02*
X11000Y17750D01*
X9000Y18146D02*
Y19500D01*
X9147Y18000D02*
X10750D01*
X9000Y18146D02*
X9147Y18000D01*
X11000Y16500D02*
Y17750D01*
X26500Y11500D02*
X28000D01*
X26875Y12250D02*
X27125Y12000D01*
X33000Y11000D02*
X35500Y8500D01*
X32000Y10500D02*
X32875D01*
X33500Y9875D01*
X32000Y11000D02*
X33000D01*
X35500Y6500D02*
Y8500D01*
X33500Y4000D02*
Y9875D01*
Y4000D02*
X33500Y4000D01*
X31500Y6500D02*
Y6700D01*
X30000Y8200D02*
Y9500D01*
Y8200D02*
X31500Y6700D01*
X31500Y4000D02*
Y6500D01*
X31500Y6500D02*
X31500Y6500D01*
X20000Y9000D02*
X22500D01*
X27125Y12000D02*
X28000D01*
X25000Y11000D02*
X25250Y10750D01*
X27000D01*
X27250Y11000D02*
X28000D01*
X27000Y10750D02*
X27250Y11000D01*
D12*
X45100Y14095D02*
D03*
Y15365D02*
D03*
Y16635D02*
D03*
Y17905D02*
D03*
X50900D02*
D03*
Y16635D02*
D03*
Y14095D02*
D03*
Y15365D02*
D03*
Y24365D02*
D03*
Y23095D02*
D03*
Y25635D02*
D03*
Y26905D02*
D03*
X45100D02*
D03*
Y25635D02*
D03*
Y24365D02*
D03*
Y23095D02*
D03*
D13*
X34600Y52100D02*
D03*
X35400D02*
D03*
D14*
X35000Y52900D02*
D03*
D15*
X29500Y4000D02*
D03*
X27500D02*
D03*
X35500Y4000D02*
D03*
X37500D02*
D03*
X29500Y6500D02*
D03*
X31500D02*
D03*
X35500Y6500D02*
D03*
X33500D02*
D03*
X33500Y4000D02*
D03*
X31500D02*
D03*
X36000Y49620D02*
D03*
X34000D02*
D03*
X9000Y13500D02*
D03*
X11000D02*
D03*
X49000Y10500D02*
D03*
X47000D02*
D03*
X29000Y19500D02*
D03*
X31000D02*
D03*
X29000Y16500D02*
D03*
X31000D02*
D03*
X9000D02*
D03*
X11000D02*
D03*
X11000Y19500D02*
D03*
X9000D02*
D03*
D16*
X28000Y12500D02*
D03*
Y12000D02*
D03*
Y11500D02*
D03*
Y11000D02*
D03*
Y10500D02*
D03*
X32000D02*
D03*
Y11000D02*
D03*
Y11500D02*
D03*
Y12000D02*
D03*
Y12500D02*
D03*
D17*
X29000Y9500D02*
D03*
X29500D02*
D03*
X30000D02*
D03*
X30500D02*
D03*
X31000D02*
D03*
Y13500D02*
D03*
X30500D02*
D03*
X30000D02*
D03*
X29500D02*
D03*
X29000D02*
D03*
D18*
X30000Y11500D02*
D03*
D19*
X13700Y15550D02*
D03*
Y17450D02*
D03*
X16300D02*
D03*
Y16500D02*
D03*
Y15550D02*
D03*
D20*
X31050Y55050D02*
D03*
Y56950D02*
D03*
X28950Y56000D02*
D03*
D21*
X24200Y15000D02*
D03*
X20800D02*
D03*
D22*
X20000Y11000D02*
D03*
Y9000D02*
D03*
X22500Y11000D02*
D03*
Y9000D02*
D03*
X25000Y9000D02*
D03*
Y11000D02*
D03*
X35000Y55000D02*
D03*
Y57000D02*
D03*
D23*
X57000Y22000D02*
D03*
Y10000D02*
D03*
Y16000D02*
D03*
X3000D02*
D03*
Y10000D02*
D03*
Y28000D02*
D03*
Y22000D02*
D03*
D24*
X29000Y15000D02*
Y16500D01*
X33800Y12000D02*
X45100D01*
X48700Y10800D02*
Y11100D01*
X45100Y12000D02*
X47800D01*
X49000Y5270D02*
Y10500D01*
X48700Y10800D02*
X49000Y10500D01*
X47800Y12000D02*
X48700Y11100D01*
X45100Y12000D02*
Y14095D01*
X49000Y5270D02*
X49270Y5000D01*
X20800Y12700D02*
Y15000D01*
X16710Y12250D02*
X20000D01*
X20350D01*
X22500D01*
X20350D02*
X20800Y12700D01*
X11000Y19500D02*
Y22928D01*
X11430Y23358D02*
Y23730D01*
X11000Y22928D02*
X11430Y23358D01*
X11000Y19500D02*
X11300Y19200D01*
X12780Y17470D02*
X13680D01*
X11300Y18950D02*
X12780Y17470D01*
X13680D02*
X13700Y17450D01*
X11300Y18950D02*
Y19200D01*
X8700Y16800D02*
Y17050D01*
Y16800D02*
X9000Y16500D01*
X7500Y18250D02*
X8700Y17050D01*
X9000Y13500D02*
Y16500D01*
X3000Y10000D02*
X5475D01*
X10475Y5000D02*
X12000D01*
X5475Y10000D02*
X10475Y5000D01*
X9700Y28000D02*
X11430Y26270D01*
X3000Y28000D02*
X9700D01*
X35735Y49355D02*
X36000Y49620D01*
X35735Y48525D02*
Y49355D01*
X29710Y42500D02*
X35735Y48525D01*
X7907Y26007D02*
X8627D01*
X4665Y22765D02*
X7907Y26007D01*
X8627D02*
X8890Y26270D01*
X3000Y22000D02*
X3765Y22765D01*
X4665D01*
X12000Y7540D02*
X16710Y12250D01*
X29710Y42500D02*
X29710D01*
X29000Y16500D02*
Y20980D01*
X51945Y16635D02*
X52578Y16002D01*
Y14732D02*
Y16002D01*
X51941Y14095D02*
X52578Y14732D01*
X46750Y19105D02*
Y25132D01*
X46247Y25635D02*
X46750Y25132D01*
X44010Y25635D02*
X46247D01*
X52578Y23622D02*
Y25146D01*
X52051Y23095D02*
X52578Y23622D01*
X52089Y25635D02*
X52578Y25146D01*
X50900Y23095D02*
X52051D01*
X50900Y25635D02*
X52089D01*
X50900Y16635D02*
X51945D01*
X50900Y14095D02*
X51941D01*
X21590Y34380D02*
X29710Y42500D01*
X21590Y26270D02*
Y34380D01*
X7500Y22340D02*
X8890Y23730D01*
X7500Y18250D02*
Y22340D01*
X43375Y26270D02*
X44010Y25635D01*
X41910Y26270D02*
X43375D01*
X44010Y26905D01*
X45100D01*
X44010Y23095D02*
X45100D01*
X43375Y23730D02*
X44010Y23095D01*
X43375Y23730D02*
X44010Y24365D01*
X41910Y23730D02*
X43375D01*
X44010Y24365D02*
X45100D01*
X19050Y26270D02*
X21590Y23730D01*
X29210D01*
X31750Y26270D01*
X39370D01*
X31750Y23730D02*
X39370D01*
X29000Y20980D02*
X31750Y23730D01*
X45100Y14095D02*
Y15365D01*
Y16635D02*
Y17905D01*
X45550D02*
X46750Y19105D01*
X45100Y17905D02*
X45550D01*
X11000Y13500D02*
X13950D01*
X16000Y15550D01*
X16300D01*
X22500Y12250D02*
X26875D01*
X22500Y11000D02*
Y12250D01*
X20000Y12250D02*
X20000Y12250D01*
X20000Y11000D02*
Y12250D01*
D25*
X36000Y49620D02*
Y51435D01*
X35400Y52035D02*
X36000Y51435D01*
D26*
X46730Y5000D02*
D03*
X49270D02*
D03*
D27*
X24130Y49620D02*
D03*
X16510D02*
D03*
X24130Y34380D02*
D03*
X21590D02*
D03*
X19050D02*
D03*
X16510D02*
D03*
X13970D02*
D03*
X11430D02*
D03*
X8890D02*
D03*
X6350D02*
D03*
X3810D02*
D03*
X1270D02*
D03*
Y49620D02*
D03*
X3810D02*
D03*
X6350D02*
D03*
X8890D02*
D03*
X11430D02*
D03*
X13970D02*
D03*
X21590D02*
D03*
X19050D02*
D03*
X12000Y7540D02*
D03*
D28*
Y5000D02*
D03*
D29*
X39370Y26270D02*
D03*
X41910D02*
D03*
X39370Y23730D02*
D03*
X41910D02*
D03*
X11430Y26270D02*
D03*
Y23730D02*
D03*
X8890Y26270D02*
D03*
Y23730D02*
D03*
X21590D02*
D03*
X19050D02*
D03*
X21590Y26270D02*
D03*
X19050D02*
D03*
X31750Y23730D02*
D03*
X29210D02*
D03*
X31750Y26270D02*
D03*
X29210D02*
D03*
D30*
X40250Y14500D02*
D03*
X36750D02*
D03*
D31*
X56000Y56000D02*
D03*
Y4000D02*
D03*
X4000D02*
D03*
Y56000D02*
D03*
D32*
X37000Y11000D02*
D03*
X32502Y15365D02*
D03*
X49270D02*
D03*
X40000Y57000D02*
D03*
X21000D02*
D03*
X11000Y10500D02*
D03*
X12000Y1500D02*
D03*
X3000Y38500D02*
D03*
Y45500D02*
D03*
X6500Y31000D02*
D03*
X19000Y46000D02*
D03*
X16500Y38000D02*
D03*
X36000Y46500D02*
D03*
X28000Y37500D02*
D03*
X44000Y50500D02*
D03*
X55000D02*
D03*
X44000Y40000D02*
D03*
X55000D02*
D03*
Y31500D02*
D03*
X44000D02*
D03*
X40227Y19895D02*
D03*
X51000Y20000D02*
D03*
X25000Y5000D02*
D03*
X13000Y20000D02*
D03*
X25000D02*
D03*
X18000D02*
D03*
X43500Y13000D02*
D03*
X9000Y21600D02*
D03*
X48100Y14400D02*
D03*
X28950Y52500D02*
D03*
X37000Y13000D02*
D03*
X35560Y25000D02*
D03*
X29000Y15000D02*
D03*
X34000Y11000D02*
D03*
X29400Y12100D02*
D03*
X30600D02*
D03*
X29400Y10900D02*
D03*
X30600D02*
D03*
X3000Y16000D02*
D03*
X18000Y16500D02*
D03*
Y11000D02*
D03*
X32000Y8250D02*
D03*
X57000Y10000D02*
D03*
Y16000D02*
D03*
Y22000D02*
D03*
X26500Y11500D02*
D03*
X32000Y9500D02*
D03*
%TF.MD5,b47e939237da5ee19a7b1342a486ae36*%
M02*
