%TF.GenerationSoftware,Altium Limited,Altium Designer,22.7.1 (60)*%
G04 Layer_Color=255*
%FSLAX43Y43*%
%MOMM*%
%TF.SameCoordinates,DFFB733E-25EA-4B03-B04C-AB34F345C761*%
%TF.FilePolarity,Positive*%
%TF.FileFunction,Pads,Bot*%
%TF.Part,Single*%
G01*
G75*
%TA.AperFunction,ComponentPad*%
%ADD26C,2.000*%
%ADD27C,1.700*%
%ADD28R,1.700X1.700*%
%ADD29C,1.875*%
%ADD30C,1.200*%
%TA.AperFunction,WasherPad*%
%ADD31C,3.000*%
%TA.AperFunction,SMDPad,CuDef*%
%ADD33R,4.800X2.500*%
%ADD34R,2.400X8.000*%
D26*
X46730Y5000D02*
D03*
X49270D02*
D03*
D27*
X24130Y49620D02*
D03*
X16510D02*
D03*
X24130Y34380D02*
D03*
X21590D02*
D03*
X19050D02*
D03*
X16510D02*
D03*
X13970D02*
D03*
X11430D02*
D03*
X8890D02*
D03*
X6350D02*
D03*
X3810D02*
D03*
X1270D02*
D03*
Y49620D02*
D03*
X3810D02*
D03*
X6350D02*
D03*
X8890D02*
D03*
X11430D02*
D03*
X13970D02*
D03*
X21590D02*
D03*
X19050D02*
D03*
X12000Y7540D02*
D03*
D28*
Y5000D02*
D03*
D29*
X39370Y26270D02*
D03*
X41910D02*
D03*
X39370Y23730D02*
D03*
X41910D02*
D03*
X11430Y26270D02*
D03*
Y23730D02*
D03*
X8890Y26270D02*
D03*
Y23730D02*
D03*
X21590D02*
D03*
X19050D02*
D03*
X21590Y26270D02*
D03*
X19050D02*
D03*
X31750Y23730D02*
D03*
X29210D02*
D03*
X31750Y26270D02*
D03*
X29210D02*
D03*
D30*
X40250Y14500D02*
D03*
X36750D02*
D03*
D31*
X56000Y56000D02*
D03*
Y4000D02*
D03*
X4000D02*
D03*
Y56000D02*
D03*
D33*
X18300Y5000D02*
D03*
X41700D02*
D03*
D34*
X40500D02*
D03*
X19500D02*
D03*
%TF.MD5,c72c562dd45c69636133bd2c24cb64f5*%
M02*
