M48
;Layer_Color=9474304
;FILE_FORMAT=4:3
METRIC,LZ
;TYPE=PLATED
T1F00S00C0.250
T2F00S00C0.800
T3F00S00C1.100
T4F00S00C1.250
T5F00S00C1.300
;TYPE=NON_PLATED
T6F00S00C3.200
%
T01
X0012Y00015
X0011Y00105
X0018Y0011
Y00165
X0003Y0016
X0029Y0015
X00294Y00121
X00306
Y00109
X00294
X00265Y00115
X0032Y00095
Y000825
X0034Y0011
X0037
Y0013
X00435
X00481Y00144
X004927Y0015365
X0057Y0016
Y001
X0032502Y0015365
X0025Y0005
Y002
X0040227Y0019895
X003556Y0025
X0044Y00315
Y004
Y00505
X0055
Y004
Y00315
X0057Y0022
X0051Y002
X0028Y00375
X002895Y00525
X0036Y00465
X0019Y0046
X00165Y0038
X0003Y00385
Y00455
X00065Y0031
X0009Y00216
X0013Y002
X0018
X0021Y0057
X004
T02
X003675Y00145
X004025
T03
X0012Y0005
Y000754
X002159Y003438
X002413
Y004962
X002159
X001905
X001651
X001397
X001143
X000889
X000635
X000381
X000127
Y003438
X000381
X000635
X000889
X001143
X001397
X001651
X001905
T04
X002159Y002373
Y002627
X002921
Y002373
X003175
Y002627
X003937
X004191
Y002373
X003937
X001905
Y002627
X001143
Y002373
X000889
Y002627
T05
X004673Y0005
X004927
T06
X0004Y0004
X0056
Y0056
X0004
M30
