%TF.GenerationSoftware,Altium Limited,Altium Designer,22.7.1 (60)*%
G04 Layer_Color=255*
%FSLAX43Y43*%
%MOMM*%
%TF.SameCoordinates,DFFB733E-25EA-4B03-B04C-AB34F345C761*%
%TF.FilePolarity,Positive*%
%TF.FileFunction,Pads,Top*%
%TF.Part,Single*%
G01*
G75*
%TA.AperFunction,SMDPad,CuDef*%
G04:AMPARAMS|DCode=12|XSize=1.6mm|YSize=0.7mm|CornerRadius=0.018mm|HoleSize=0mm|Usage=FLASHONLY|Rotation=180.000|XOffset=0mm|YOffset=0mm|HoleType=Round|Shape=RoundedRectangle|*
%AMROUNDEDRECTD12*
21,1,1.600,0.665,0,0,180.0*
21,1,1.565,0.700,0,0,180.0*
1,1,0.035,-0.782,0.333*
1,1,0.035,0.782,0.333*
1,1,0.035,0.782,-0.333*
1,1,0.035,-0.782,-0.333*
%
%ADD12ROUNDEDRECTD12*%
%ADD13R,0.370X0.500*%
%ADD14R,0.470X0.500*%
%ADD15R,1.100X1.500*%
G04:AMPARAMS|DCode=16|XSize=0.25mm|YSize=1mm|CornerRadius=0.025mm|HoleSize=0mm|Usage=FLASHONLY|Rotation=90.000|XOffset=0mm|YOffset=0mm|HoleType=Round|Shape=RoundedRectangle|*
%AMROUNDEDRECTD16*
21,1,0.250,0.950,0,0,90.0*
21,1,0.200,1.000,0,0,90.0*
1,1,0.050,0.475,0.100*
1,1,0.050,0.475,-0.100*
1,1,0.050,-0.475,-0.100*
1,1,0.050,-0.475,0.100*
%
%ADD16ROUNDEDRECTD16*%
G04:AMPARAMS|DCode=17|XSize=0.25mm|YSize=1mm|CornerRadius=0.025mm|HoleSize=0mm|Usage=FLASHONLY|Rotation=0.000|XOffset=0mm|YOffset=0mm|HoleType=Round|Shape=RoundedRectangle|*
%AMROUNDEDRECTD17*
21,1,0.250,0.950,0,0,0.0*
21,1,0.200,1.000,0,0,0.0*
1,1,0.050,0.100,-0.475*
1,1,0.050,-0.100,-0.475*
1,1,0.050,-0.100,0.475*
1,1,0.050,0.100,0.475*
%
%ADD17ROUNDEDRECTD17*%
%ADD18R,2.050X2.050*%
G04:AMPARAMS|DCode=19|XSize=1.2mm|YSize=0.6mm|CornerRadius=0.036mm|HoleSize=0mm|Usage=FLASHONLY|Rotation=180.000|XOffset=0mm|YOffset=0mm|HoleType=Round|Shape=RoundedRectangle|*
%AMROUNDEDRECTD19*
21,1,1.200,0.528,0,0,180.0*
21,1,1.128,0.600,0,0,180.0*
1,1,0.072,-0.564,0.264*
1,1,0.072,0.564,0.264*
1,1,0.072,0.564,-0.264*
1,1,0.072,-0.564,-0.264*
%
%ADD19ROUNDEDRECTD19*%
G04:AMPARAMS|DCode=20|XSize=1.4mm|YSize=0.6mm|CornerRadius=0.045mm|HoleSize=0mm|Usage=FLASHONLY|Rotation=180.000|XOffset=0mm|YOffset=0mm|HoleType=Round|Shape=RoundedRectangle|*
%AMROUNDEDRECTD20*
21,1,1.400,0.510,0,0,180.0*
21,1,1.310,0.600,0,0,180.0*
1,1,0.090,-0.655,0.255*
1,1,0.090,0.655,0.255*
1,1,0.090,0.655,-0.255*
1,1,0.090,-0.655,-0.255*
%
%ADD20ROUNDEDRECTD20*%
%ADD21R,2.000X3.600*%
%ADD22R,1.500X1.100*%
%ADD23R,3.800X2.030*%
%TA.AperFunction,ComponentPad*%
%ADD26C,2.000*%
%ADD27C,1.700*%
%ADD28R,1.700X1.700*%
%ADD29C,1.875*%
%ADD30C,1.200*%
%TA.AperFunction,WasherPad*%
%ADD31C,3.000*%
D12*
X45100Y14095D02*
D03*
Y15365D02*
D03*
Y16635D02*
D03*
Y17905D02*
D03*
X50900D02*
D03*
Y16635D02*
D03*
Y14095D02*
D03*
Y15365D02*
D03*
Y24365D02*
D03*
Y23095D02*
D03*
Y25635D02*
D03*
Y26905D02*
D03*
X45100D02*
D03*
Y25635D02*
D03*
Y24365D02*
D03*
Y23095D02*
D03*
D13*
X34600Y52100D02*
D03*
X35400D02*
D03*
D14*
X35000Y52900D02*
D03*
D15*
X29500Y4000D02*
D03*
X27500D02*
D03*
X35500Y4000D02*
D03*
X37500D02*
D03*
X29500Y6500D02*
D03*
X31500D02*
D03*
X35500Y6500D02*
D03*
X33500D02*
D03*
X33500Y4000D02*
D03*
X31500D02*
D03*
X36000Y49620D02*
D03*
X34000D02*
D03*
X9000Y13500D02*
D03*
X11000D02*
D03*
X49000Y10500D02*
D03*
X47000D02*
D03*
X29000Y19500D02*
D03*
X31000D02*
D03*
X29000Y16500D02*
D03*
X31000D02*
D03*
X9000D02*
D03*
X11000D02*
D03*
X11000Y19500D02*
D03*
X9000D02*
D03*
D16*
X28000Y12500D02*
D03*
Y12000D02*
D03*
Y11500D02*
D03*
Y11000D02*
D03*
Y10500D02*
D03*
X32000D02*
D03*
Y11000D02*
D03*
Y11500D02*
D03*
Y12000D02*
D03*
Y12500D02*
D03*
D17*
X29000Y9500D02*
D03*
X29500D02*
D03*
X30000D02*
D03*
X30500D02*
D03*
X31000D02*
D03*
Y13500D02*
D03*
X30500D02*
D03*
X30000D02*
D03*
X29500D02*
D03*
X29000D02*
D03*
D18*
X30000Y11500D02*
D03*
D19*
X13700Y15550D02*
D03*
Y17450D02*
D03*
X16300D02*
D03*
Y16500D02*
D03*
Y15550D02*
D03*
D20*
X31050Y55050D02*
D03*
Y56950D02*
D03*
X28950Y56000D02*
D03*
D21*
X24200Y15000D02*
D03*
X20800D02*
D03*
D22*
X20000Y11000D02*
D03*
Y9000D02*
D03*
X22500Y11000D02*
D03*
Y9000D02*
D03*
X25000Y9000D02*
D03*
Y11000D02*
D03*
X35000Y55000D02*
D03*
Y57000D02*
D03*
D23*
X57000Y22000D02*
D03*
Y10000D02*
D03*
Y16000D02*
D03*
X3000D02*
D03*
Y10000D02*
D03*
Y28000D02*
D03*
Y22000D02*
D03*
D26*
X46730Y5000D02*
D03*
X49270D02*
D03*
D27*
X24130Y49620D02*
D03*
X16510D02*
D03*
X24130Y34380D02*
D03*
X21590D02*
D03*
X19050D02*
D03*
X16510D02*
D03*
X13970D02*
D03*
X11430D02*
D03*
X8890D02*
D03*
X6350D02*
D03*
X3810D02*
D03*
X1270D02*
D03*
Y49620D02*
D03*
X3810D02*
D03*
X6350D02*
D03*
X8890D02*
D03*
X11430D02*
D03*
X13970D02*
D03*
X21590D02*
D03*
X19050D02*
D03*
X12000Y7540D02*
D03*
D28*
Y5000D02*
D03*
D29*
X39370Y26270D02*
D03*
X41910D02*
D03*
X39370Y23730D02*
D03*
X41910D02*
D03*
X11430Y26270D02*
D03*
Y23730D02*
D03*
X8890Y26270D02*
D03*
Y23730D02*
D03*
X21590D02*
D03*
X19050D02*
D03*
X21590Y26270D02*
D03*
X19050D02*
D03*
X31750Y23730D02*
D03*
X29210D02*
D03*
X31750Y26270D02*
D03*
X29210D02*
D03*
D30*
X40250Y14500D02*
D03*
X36750D02*
D03*
D31*
X56000Y56000D02*
D03*
Y4000D02*
D03*
X4000D02*
D03*
Y56000D02*
D03*
%TF.MD5,3ae06b2403ec875cdc6a99ad9e4bff8a*%
M02*
