%TF.GenerationSoftware,Altium Limited,Altium Designer,22.7.1 (60)*%
G04 Layer_Color=65535*
%FSLAX43Y43*%
%MOMM*%
%TF.SameCoordinates,DFFB733E-25EA-4B03-B04C-AB34F345C761*%
%TF.FilePolarity,Positive*%
%TF.FileFunction,Legend,Top*%
%TF.Part,Single*%
G01*
G75*
%TA.AperFunction,NonConductor*%
%ADD36C,0.400*%
%ADD37C,0.250*%
%ADD38C,0.200*%
%ADD39C,0.152*%
%ADD40C,0.127*%
%ADD41C,0.254*%
%ADD42C,0.150*%
%ADD43C,0.105*%
G36*
X8432Y46103D02*
X8423Y46086D01*
X8418Y46077D01*
X8411Y46064D01*
X8405Y46049D01*
X8400Y46038D01*
X8395Y46023D01*
X8388Y46002D01*
X8385Y45988D01*
X8383Y45976D01*
X8381Y45963D01*
X8381Y45955D01*
X8380Y45944D01*
X8380Y45932D01*
X8381Y45923D01*
X8382Y45915D01*
X8385Y45901D01*
X8388Y45893D01*
X8391Y45886D01*
X8395Y45879D01*
X8399Y45874D01*
X8404Y45869D01*
X8409Y45865D01*
X8418Y45860D01*
X8422Y45858D01*
X8432Y45856D01*
X8437Y45856D01*
X8445Y45856D01*
X8452Y45857D01*
X8460Y45858D01*
X8463Y45860D01*
X8468Y45862D01*
X8474Y45865D01*
X8480Y45870D01*
X8487Y45876D01*
X8492Y45881D01*
X8500Y45890D01*
X8511Y45904D01*
X8520Y45916D01*
X8590Y46013D01*
X8592Y46017D01*
X8599Y46027D01*
X8605Y46034D01*
X8612Y46042D01*
X8619Y46051D01*
X8631Y46062D01*
X8639Y46069D01*
X8654Y46080D01*
X8662Y46086D01*
X8670Y46090D01*
X8680Y46095D01*
X8704Y46103D01*
X8709Y46105D01*
X8715Y46106D01*
X8727Y46108D01*
X8738Y46109D01*
X8752Y46109D01*
X8759Y46109D01*
X8769Y46108D01*
X8778Y46106D01*
X8791Y46104D01*
X8802Y46100D01*
X8811Y46097D01*
X8821Y46093D01*
X8833Y46086D01*
X8853Y46069D01*
X8856Y46066D01*
X8861Y46061D01*
X8867Y46053D01*
X8874Y46042D01*
X8881Y46028D01*
X8885Y46020D01*
X8889Y46009D01*
X8894Y45992D01*
X8897Y45978D01*
X8899Y45961D01*
X8900Y45946D01*
X8901Y45934D01*
X8900Y45922D01*
X8900Y45905D01*
X8898Y45887D01*
X8894Y45865D01*
X8891Y45849D01*
X8887Y45832D01*
X8882Y45816D01*
X8877Y45801D01*
X8869Y45779D01*
X8858Y45754D01*
X8758Y45801D01*
X8764Y45814D01*
X8767Y45820D01*
X8769Y45825D01*
X8772Y45832D01*
X8776Y45840D01*
X8779Y45848D01*
X8781Y45855D01*
X8785Y45866D01*
X8787Y45875D01*
X8789Y45883D01*
X8791Y45893D01*
X8792Y45899D01*
X8794Y45908D01*
X8794Y45914D01*
X8795Y45921D01*
X8795Y45931D01*
X8795Y45938D01*
X8794Y45949D01*
X8793Y45954D01*
X8789Y45966D01*
X8787Y45972D01*
X8784Y45976D01*
X8781Y45981D01*
X8777Y45984D01*
X8772Y45987D01*
X8767Y45989D01*
X8761Y45991D01*
X8757Y45992D01*
X8752Y45992D01*
X8747Y45992D01*
X8741Y45991D01*
X8731Y45988D01*
X8721Y45982D01*
X8713Y45975D01*
X8705Y45966D01*
X8696Y45955D01*
X8653Y45894D01*
X8609Y45831D01*
X8602Y45822D01*
X8594Y45812D01*
X8587Y45803D01*
X8580Y45796D01*
X8576Y45792D01*
X8570Y45786D01*
X8562Y45779D01*
X8553Y45772D01*
X8542Y45764D01*
X8525Y45755D01*
X8505Y45747D01*
X8499Y45745D01*
X8492Y45743D01*
X8488Y45743D01*
X8477Y45741D01*
X8470Y45740D01*
X8460Y45739D01*
X8453Y45739D01*
X8445Y45739D01*
X8438Y45739D01*
X8430Y45739D01*
X8420Y45740D01*
X8414Y45741D01*
X8404Y45743D01*
X8392Y45746D01*
X8382Y45749D01*
X8373Y45753D01*
X8362Y45758D01*
X8347Y45767D01*
X8330Y45780D01*
X8321Y45790D01*
X8317Y45794D01*
X8311Y45803D01*
X8306Y45810D01*
X8299Y45822D01*
X8295Y45831D01*
X8292Y45838D01*
X8288Y45847D01*
X8285Y45858D01*
X8281Y45872D01*
X8278Y45888D01*
X8276Y45898D01*
X8275Y45910D01*
X8274Y45926D01*
X8274Y45944D01*
X8275Y45972D01*
X8276Y45991D01*
X8279Y46010D01*
X8284Y46033D01*
X8287Y46049D01*
X8296Y46076D01*
X8301Y46090D01*
X8305Y46100D01*
X8309Y46108D01*
X8315Y46122D01*
X8321Y46132D01*
X8326Y46142D01*
X8332Y46152D01*
X8432Y46103D01*
D02*
G37*
G36*
X8888Y45142D02*
X8785Y45142D01*
Y45388D01*
X8664D01*
X8664Y45163D01*
X8563D01*
X8563Y45388D01*
X8389D01*
Y45137D01*
X8286D01*
Y45498D01*
X8888D01*
Y45142D01*
D02*
G37*
G36*
X10941Y45838D02*
X9825Y45047D01*
X10941D01*
X10941Y44749D01*
X9317Y44749D01*
X9317Y45026D01*
X10431Y45817D01*
X9317D01*
Y46114D01*
X10941Y46114D01*
Y45838D01*
D02*
G37*
G36*
X8888Y44794D02*
Y44713D01*
X8548Y44578D01*
X8888Y44439D01*
Y44359D01*
X8287Y44251D01*
Y44362D01*
X8675Y44420D01*
X8376Y44536D01*
Y44616D01*
X8675Y44732D01*
X8287Y44791D01*
Y44902D01*
X8888Y44794D01*
D02*
G37*
G36*
X8888Y43895D02*
X8286D01*
Y44009D01*
X8888D01*
Y43895D01*
D02*
G37*
G36*
X8603Y43672D02*
X8612Y43672D01*
X8629Y43670D01*
X8642Y43669D01*
X8656Y43666D01*
X8670Y43663D01*
X8696Y43656D01*
X8707Y43652D01*
X8720Y43647D01*
X8734Y43641D01*
X8750Y43632D01*
X8761Y43626D01*
X8776Y43616D01*
X8807Y43590D01*
X8825Y43571D01*
X8833Y43561D01*
X8839Y43553D01*
X8849Y43538D01*
X8857Y43525D01*
X8863Y43513D01*
X8869Y43501D01*
X8874Y43490D01*
X8879Y43477D01*
X8883Y43464D01*
X8886Y43454D01*
X8890Y43442D01*
X8892Y43429D01*
X8895Y43415D01*
X8898Y43396D01*
X8900Y43376D01*
X8901Y43348D01*
X8900Y43329D01*
X8899Y43312D01*
X8896Y43289D01*
X8892Y43266D01*
X8885Y43236D01*
X8877Y43212D01*
X8866Y43186D01*
X8862Y43180D01*
X8853Y43163D01*
X8846Y43151D01*
X8834Y43133D01*
X8738Y43197D01*
X8741Y43201D01*
X8748Y43211D01*
X8753Y43221D01*
X8759Y43231D01*
X8764Y43241D01*
X8768Y43251D01*
X8776Y43271D01*
X8780Y43286D01*
X8786Y43313D01*
X8788Y43336D01*
X8788Y43343D01*
X8788Y43359D01*
X8787Y43376D01*
X8785Y43389D01*
X8782Y43403D01*
X8778Y43416D01*
X8773Y43431D01*
X8767Y43447D01*
X8757Y43464D01*
X8750Y43475D01*
X8738Y43490D01*
X8721Y43507D01*
X8701Y43521D01*
X8684Y43531D01*
X8675Y43535D01*
X8663Y43540D01*
X8646Y43545D01*
X8634Y43548D01*
X8619Y43550D01*
X8608Y43552D01*
X8595Y43552D01*
X8582Y43552D01*
X8569Y43552D01*
X8552Y43550D01*
X8537Y43547D01*
X8519Y43542D01*
X8500Y43535D01*
X8486Y43529D01*
X8467Y43517D01*
X8446Y43501D01*
X8428Y43480D01*
X8416Y43463D01*
X8413Y43458D01*
X8406Y43445D01*
X8401Y43433D01*
X8397Y43422D01*
X8392Y43404D01*
X8390Y43394D01*
X8388Y43377D01*
X8386Y43363D01*
X8386Y43343D01*
X8387Y43327D01*
X8389Y43311D01*
X8395Y43283D01*
X8397Y43275D01*
X8399Y43268D01*
X8405Y43253D01*
X8410Y43241D01*
X8415Y43232D01*
X8422Y43218D01*
X8428Y43208D01*
X8436Y43197D01*
X8340Y43133D01*
X8334Y43142D01*
X8326Y43154D01*
X8314Y43176D01*
X8304Y43196D01*
X8295Y43219D01*
X8287Y43245D01*
X8285Y43253D01*
X8282Y43265D01*
X8279Y43280D01*
X8276Y43297D01*
X8274Y43319D01*
X8274Y43336D01*
X8274Y43353D01*
X8274Y43367D01*
X8275Y43382D01*
X8277Y43401D01*
X8280Y43420D01*
X8283Y43434D01*
X8288Y43454D01*
X8291Y43464D01*
X8296Y43479D01*
X8302Y43495D01*
X8310Y43512D01*
X8320Y43530D01*
X8334Y43551D01*
X8347Y43568D01*
X8357Y43580D01*
X8378Y43600D01*
X8396Y43615D01*
X8417Y43628D01*
X8427Y43634D01*
X8435Y43638D01*
X8443Y43642D01*
X8457Y43648D01*
X8475Y43655D01*
X8497Y43661D01*
X8516Y43666D01*
X8535Y43669D01*
X8548Y43671D01*
X8566Y43672D01*
X8578Y43673D01*
X8592Y43673D01*
X8603Y43672D01*
D02*
G37*
G36*
X10158Y44451D02*
X10198Y44449D01*
X10227Y44447D01*
X10269Y44442D01*
X10300Y44437D01*
X10332Y44430D01*
X10348Y44427D01*
X10383Y44418D01*
X10420Y44407D01*
X10439Y44400D01*
X10481Y44384D01*
X10504Y44374D01*
X10529Y44362D01*
X10558Y44346D01*
X10592Y44327D01*
X10636Y44298D01*
X10676Y44266D01*
X10720Y44230D01*
X10753Y44196D01*
X10782Y44164D01*
X10816Y44119D01*
X10841Y44083D01*
X10860Y44052D01*
X10875Y44024D01*
X10889Y43997D01*
X10911Y43948D01*
X10927Y43904D01*
X10941Y43862D01*
X10951Y43821D01*
X10959Y43783D01*
X10966Y43745D01*
X10970Y43709D01*
X10974Y43672D01*
X10976Y43638D01*
X10976Y43602D01*
X10975Y43558D01*
X10972Y43512D01*
X10968Y43476D01*
X10965Y43457D01*
X10959Y43419D01*
X10950Y43379D01*
X10939Y43338D01*
X10917Y43273D01*
X10908Y43250D01*
X10898Y43225D01*
X10886Y43201D01*
X10872Y43174D01*
X10856Y43146D01*
X10837Y43115D01*
X10813Y43080D01*
X10778Y43036D01*
X10743Y42997D01*
X10708Y42964D01*
X10677Y42936D01*
X10628Y42899D01*
X10579Y42868D01*
X10545Y42849D01*
X10515Y42834D01*
X10490Y42822D01*
X10466Y42813D01*
X10444Y42804D01*
X10423Y42797D01*
X10386Y42785D01*
X10367Y42780D01*
X10332Y42772D01*
X10316Y42768D01*
X10284Y42763D01*
X10252Y42758D01*
X10224Y42755D01*
X10209Y42754D01*
X10181Y42752D01*
X10155Y42751D01*
X10129Y42750D01*
X10101Y42751D01*
X10074Y42752D01*
X10046Y42754D01*
X10017Y42757D01*
X9987Y42761D01*
X9956Y42766D01*
X9940Y42769D01*
X9907Y42776D01*
X9890Y42780D01*
X9871Y42786D01*
X9853Y42791D01*
X9833Y42797D01*
X9813Y42804D01*
X9792Y42813D01*
X9768Y42822D01*
X9743Y42834D01*
X9715Y42848D01*
X9681Y42866D01*
X9658Y42880D01*
X9639Y42893D01*
X9606Y42916D01*
X9577Y42938D01*
X9545Y42966D01*
X9515Y42997D01*
X9492Y43022D01*
X9466Y43052D01*
X9443Y43083D01*
X9419Y43118D01*
X9400Y43149D01*
X9384Y43177D01*
X9370Y43204D01*
X9359Y43229D01*
X9348Y43253D01*
X9331Y43299D01*
X9324Y43321D01*
X9318Y43342D01*
X9312Y43363D01*
X9307Y43384D01*
X9302Y43404D01*
X9295Y43443D01*
X9292Y43462D01*
X9287Y43500D01*
X9286Y43518D01*
X9283Y43555D01*
X9282Y43589D01*
X9282Y43602D01*
X9283Y43638D01*
X9283Y43655D01*
X9286Y43689D01*
X9290Y43725D01*
X9292Y43743D01*
X9295Y43761D01*
X9298Y43780D01*
X9302Y43799D01*
X9306Y43817D01*
X9311Y43837D01*
X9316Y43857D01*
X9329Y43899D01*
X9336Y43920D01*
X9345Y43942D01*
X9355Y43965D01*
X9365Y43989D01*
X9378Y44015D01*
X9393Y44042D01*
X9410Y44071D01*
X9431Y44104D01*
X9461Y44145D01*
X9483Y44172D01*
X9518Y44210D01*
X9545Y44237D01*
X9570Y44258D01*
X9593Y44277D01*
X9621Y44297D01*
X9642Y44312D01*
X9681Y44336D01*
X9741Y44367D01*
X9766Y44379D01*
X9789Y44389D01*
X9831Y44404D01*
X9868Y44416D01*
X9903Y44425D01*
X9936Y44432D01*
X9983Y44441D01*
X10027Y44446D01*
X10056Y44449D01*
X10096Y44451D01*
X10129Y44452D01*
X10158Y44451D01*
D02*
G37*
G36*
X8598Y42948D02*
X8618Y42947D01*
X8645Y42944D01*
X8668Y42939D01*
X8688Y42934D01*
X8702Y42929D01*
X8726Y42920D01*
X8746Y42910D01*
X8758Y42902D01*
X8775Y42891D01*
X8791Y42880D01*
X8812Y42860D01*
X8824Y42847D01*
X8834Y42836D01*
X8842Y42825D01*
X8850Y42812D01*
X8857Y42801D01*
X8863Y42790D01*
X8876Y42762D01*
X8882Y42746D01*
X8889Y42722D01*
X8893Y42708D01*
X8896Y42694D01*
X8898Y42674D01*
X8900Y42660D01*
X8900Y42641D01*
Y42627D01*
X8900Y42614D01*
X8898Y42594D01*
X8897Y42580D01*
X8894Y42566D01*
X8891Y42551D01*
X8887Y42536D01*
X8882Y42520D01*
X8872Y42495D01*
X8862Y42476D01*
X8856Y42465D01*
X8849Y42454D01*
X8840Y42441D01*
X8827Y42425D01*
X8819Y42415D01*
X8809Y42405D01*
X8789Y42387D01*
X8778Y42378D01*
X8766Y42370D01*
X8753Y42362D01*
X8741Y42355D01*
X8721Y42346D01*
X8704Y42339D01*
X8689Y42334D01*
X8676Y42330D01*
X8663Y42327D01*
X8650Y42324D01*
X8628Y42321D01*
X8607Y42319D01*
X8581Y42319D01*
X8546Y42321D01*
X8517Y42326D01*
X8505Y42328D01*
X8485Y42334D01*
X8470Y42339D01*
X8453Y42345D01*
X8434Y42355D01*
X8421Y42362D01*
X8406Y42372D01*
X8392Y42382D01*
X8379Y42392D01*
X8365Y42405D01*
X8351Y42420D01*
X8333Y42442D01*
X8324Y42455D01*
X8317Y42466D01*
X8306Y42487D01*
X8298Y42505D01*
X8292Y42522D01*
X8287Y42538D01*
X8283Y42553D01*
X8278Y42575D01*
X8276Y42589D01*
X8274Y42610D01*
X8274Y42623D01*
X8274Y42654D01*
X8275Y42666D01*
X8276Y42680D01*
X8280Y42700D01*
X8284Y42721D01*
X8288Y42736D01*
X8297Y42760D01*
X8305Y42778D01*
X8315Y42797D01*
X8321Y42808D01*
X8329Y42821D01*
X8340Y42836D01*
X8351Y42849D01*
X8364Y42862D01*
X8375Y42873D01*
X8392Y42886D01*
X8406Y42896D01*
X8421Y42905D01*
X8443Y42917D01*
X8461Y42925D01*
X8476Y42931D01*
X8490Y42935D01*
X8509Y42940D01*
X8527Y42944D01*
X8544Y42946D01*
X8585Y42948D01*
X8598Y42948D01*
D02*
G37*
G36*
X8888Y41986D02*
X8474Y41693D01*
X8888D01*
Y41583D01*
X8286D01*
Y41686D01*
X8699Y41978D01*
X8286Y41978D01*
Y42088D01*
X8888D01*
Y41986D01*
D02*
G37*
G36*
X10941Y41830D02*
X10941Y41806D01*
X10940Y41778D01*
X10937Y41753D01*
X10932Y41715D01*
X10928Y41691D01*
X10921Y41662D01*
X10916Y41643D01*
X10905Y41612D01*
X10892Y41578D01*
X10879Y41551D01*
X10866Y41527D01*
X10855Y41511D01*
X10843Y41493D01*
X10826Y41470D01*
X10814Y41457D01*
X10795Y41437D01*
X10774Y41419D01*
X10757Y41404D01*
X10726Y41382D01*
X10697Y41365D01*
X10674Y41353D01*
X10655Y41345D01*
X10637Y41338D01*
X10621Y41332D01*
X10605Y41327D01*
X10583Y41321D01*
X10562Y41317D01*
X10541Y41313D01*
X10528Y41311D01*
X10502Y41308D01*
X10481Y41307D01*
X10463Y41306D01*
X10442Y41306D01*
X10423Y41306D01*
X10391Y41309D01*
X10363Y41312D01*
X10336Y41317D01*
X10314Y41322D01*
X10299Y41326D01*
X10283Y41331D01*
X10267Y41337D01*
X10240Y41347D01*
X10219Y41357D01*
X10195Y41370D01*
X10181Y41379D01*
X10162Y41391D01*
X10139Y41408D01*
X10118Y41426D01*
X10105Y41438D01*
X10085Y41461D01*
X10065Y41486D01*
X10051Y41506D01*
X10036Y41531D01*
X10027Y41546D01*
X10016Y41568D01*
X10008Y41589D01*
X9998Y41614D01*
X9992Y41633D01*
X9986Y41651D01*
X9982Y41670D01*
X9978Y41686D01*
X9317Y41206D01*
Y41580D01*
X9964Y42021D01*
Y42132D01*
X9317D01*
Y42429D01*
X10941D01*
Y41830D01*
D02*
G37*
G36*
X8890Y41119D02*
X8889Y41101D01*
X8888Y41084D01*
X8886Y41063D01*
X8884Y41051D01*
X8881Y41038D01*
X8878Y41023D01*
X8874Y41008D01*
X8869Y40995D01*
X8866Y40986D01*
X8856Y40963D01*
X8849Y40949D01*
X8843Y40938D01*
X8831Y40921D01*
X8820Y40907D01*
X8813Y40898D01*
X8801Y40886D01*
X8780Y40865D01*
X8759Y40853D01*
X8735Y40839D01*
X8723Y40833D01*
X8707Y40826D01*
X8693Y40821D01*
X8679Y40818D01*
X8663Y40814D01*
X8651Y40811D01*
X8629Y40808D01*
X8614Y40807D01*
X8593Y40806D01*
X8578Y40806D01*
X8561Y40807D01*
X8546Y40809D01*
X8528Y40811D01*
X8516Y40813D01*
X8491Y40820D01*
X8468Y40828D01*
X8452Y40834D01*
X8439Y40841D01*
X8423Y40850D01*
X8412Y40857D01*
X8383Y40879D01*
X8361Y40903D01*
X8340Y40930D01*
X8322Y40962D01*
X8312Y40985D01*
X8303Y41012D01*
X8297Y41033D01*
X8294Y41053D01*
X8292Y41064D01*
X8289Y41089D01*
X8288Y41119D01*
Y41311D01*
X8890D01*
Y41119D01*
D02*
G37*
G36*
X8890Y40461D02*
X8532D01*
X8529Y40461D01*
X8507Y40460D01*
X8489Y40457D01*
X8474Y40452D01*
X8459Y40446D01*
X8446Y40439D01*
X8435Y40431D01*
X8424Y40421D01*
X8409Y40402D01*
X8402Y40389D01*
X8396Y40374D01*
X8392Y40356D01*
X8390Y40345D01*
X8390Y40333D01*
X8390Y40316D01*
X8391Y40305D01*
X8395Y40289D01*
X8400Y40275D01*
X8406Y40261D01*
X8413Y40251D01*
X8431Y40231D01*
X8443Y40222D01*
X8457Y40214D01*
X8473Y40207D01*
X8488Y40203D01*
X8502Y40200D01*
X8521Y40198D01*
X8532Y40198D01*
X8890D01*
Y40082D01*
X8525D01*
X8511Y40082D01*
X8496Y40083D01*
X8480Y40084D01*
X8460Y40088D01*
X8441Y40092D01*
X8427Y40096D01*
X8411Y40102D01*
X8394Y40110D01*
X8377Y40120D01*
X8363Y40130D01*
X8348Y40142D01*
X8325Y40167D01*
X8317Y40179D01*
X8309Y40191D01*
X8302Y40204D01*
X8298Y40213D01*
X8292Y40230D01*
X8286Y40248D01*
X8283Y40263D01*
X8280Y40280D01*
X8278Y40296D01*
X8277Y40311D01*
X8276Y40328D01*
X8277Y40350D01*
X8278Y40366D01*
X8280Y40383D01*
X8283Y40398D01*
X8287Y40412D01*
X8291Y40428D01*
X8298Y40444D01*
X8306Y40462D01*
X8315Y40477D01*
X8333Y40501D01*
X8358Y40525D01*
X8378Y40539D01*
X8389Y40546D01*
X8401Y40552D01*
X8416Y40558D01*
X8434Y40565D01*
X8450Y40569D01*
X8474Y40574D01*
X8492Y40576D01*
X8508Y40577D01*
X8525Y40577D01*
X8890D01*
X8890Y40461D01*
D02*
G37*
G36*
X10941Y40950D02*
X10941Y40406D01*
X10940Y40371D01*
X10937Y40337D01*
X10934Y40303D01*
X10930Y40270D01*
X10922Y40224D01*
X10914Y40188D01*
X10908Y40165D01*
X10905Y40153D01*
X10898Y40131D01*
X10891Y40108D01*
X10882Y40083D01*
X10873Y40059D01*
X10863Y40036D01*
X10845Y39998D01*
X10831Y39971D01*
X10823Y39957D01*
X10814Y39943D01*
X10795Y39912D01*
X10784Y39896D01*
X10770Y39878D01*
X10754Y39858D01*
X10734Y39835D01*
X10702Y39801D01*
X10674Y39774D01*
X10648Y39754D01*
X10618Y39730D01*
X10590Y39712D01*
X10564Y39696D01*
X10524Y39674D01*
X10491Y39658D01*
X10461Y39646D01*
X10434Y39635D01*
X10396Y39623D01*
X10373Y39617D01*
X10340Y39608D01*
X10308Y39602D01*
X10276Y39596D01*
X10247Y39592D01*
X10227Y39590D01*
X10196Y39588D01*
X10176Y39587D01*
X10149Y39586D01*
X10118Y39586D01*
X10091Y39586D01*
X10063Y39588D01*
X10043Y39589D01*
X10013Y39592D01*
X9983Y39596D01*
X9953Y39601D01*
X9921Y39608D01*
X9910Y39610D01*
X9888Y39616D01*
X9864Y39622D01*
X9828Y39634D01*
X9802Y39644D01*
X9773Y39655D01*
X9742Y39670D01*
X9724Y39679D01*
X9681Y39704D01*
X9652Y39723D01*
X9621Y39745D01*
X9592Y39769D01*
X9561Y39794D01*
X9529Y39829D01*
X9513Y39847D01*
X9480Y39888D01*
X9457Y39922D01*
X9438Y39952D01*
X9422Y39980D01*
X9409Y40007D01*
X9397Y40032D01*
X9386Y40057D01*
X9377Y40081D01*
X9368Y40106D01*
X9357Y40141D01*
X9347Y40175D01*
X9339Y40211D01*
X9334Y40235D01*
X9330Y40259D01*
X9321Y40338D01*
X9317Y40396D01*
X9317Y40431D01*
Y40950D01*
X10941Y40950D01*
D02*
G37*
G36*
X8605Y39853D02*
X8614Y39853D01*
X8631Y39851D01*
X8644Y39849D01*
X8658Y39847D01*
X8672Y39844D01*
X8698Y39837D01*
X8709Y39833D01*
X8722Y39828D01*
X8736Y39821D01*
X8752Y39813D01*
X8763Y39806D01*
X8778Y39796D01*
X8809Y39771D01*
X8826Y39752D01*
X8835Y39742D01*
X8841Y39733D01*
X8851Y39718D01*
X8859Y39706D01*
X8865Y39694D01*
X8871Y39682D01*
X8876Y39671D01*
X8881Y39658D01*
X8885Y39645D01*
X8888Y39635D01*
X8892Y39622D01*
X8894Y39610D01*
X8897Y39596D01*
X8900Y39576D01*
X8902Y39557D01*
X8902Y39529D01*
X8902Y39510D01*
X8901Y39492D01*
X8898Y39469D01*
X8894Y39446D01*
X8887Y39417D01*
X8879Y39393D01*
X8867Y39367D01*
X8864Y39361D01*
X8855Y39343D01*
X8848Y39331D01*
X8836Y39314D01*
X8740Y39378D01*
X8743Y39381D01*
X8749Y39392D01*
X8755Y39401D01*
X8761Y39412D01*
X8766Y39421D01*
X8770Y39432D01*
X8777Y39451D01*
X8782Y39467D01*
X8788Y39493D01*
X8790Y39517D01*
X8790Y39524D01*
X8790Y39540D01*
X8788Y39557D01*
X8787Y39570D01*
X8784Y39583D01*
X8780Y39597D01*
X8775Y39612D01*
X8769Y39627D01*
X8759Y39645D01*
X8752Y39656D01*
X8740Y39670D01*
X8723Y39688D01*
X8703Y39702D01*
X8686Y39712D01*
X8677Y39716D01*
X8665Y39720D01*
X8648Y39726D01*
X8636Y39729D01*
X8621Y39731D01*
X8610Y39732D01*
X8597Y39733D01*
X8583Y39733D01*
X8570Y39732D01*
X8554Y39731D01*
X8539Y39728D01*
X8521Y39723D01*
X8502Y39716D01*
X8488Y39710D01*
X8469Y39698D01*
X8448Y39682D01*
X8430Y39660D01*
X8418Y39643D01*
X8415Y39639D01*
X8408Y39626D01*
X8403Y39614D01*
X8399Y39603D01*
X8394Y39585D01*
X8392Y39574D01*
X8389Y39558D01*
X8388Y39544D01*
X8388Y39523D01*
X8389Y39508D01*
X8391Y39492D01*
X8397Y39464D01*
X8399Y39455D01*
X8401Y39449D01*
X8407Y39434D01*
X8412Y39422D01*
X8417Y39412D01*
X8424Y39398D01*
X8430Y39389D01*
X8438Y39378D01*
X8342Y39314D01*
X8336Y39322D01*
X8328Y39335D01*
X8316Y39357D01*
X8306Y39377D01*
X8297Y39400D01*
X8289Y39426D01*
X8287Y39433D01*
X8284Y39446D01*
X8281Y39461D01*
X8278Y39478D01*
X8276Y39500D01*
X8276Y39517D01*
X8275Y39534D01*
X8276Y39547D01*
X8277Y39562D01*
X8279Y39582D01*
X8282Y39601D01*
X8285Y39615D01*
X8290Y39635D01*
X8293Y39645D01*
X8298Y39660D01*
X8304Y39676D01*
X8312Y39692D01*
X8322Y39710D01*
X8335Y39731D01*
X8349Y39749D01*
X8359Y39760D01*
X8380Y39781D01*
X8398Y39795D01*
X8418Y39808D01*
X8428Y39814D01*
X8437Y39819D01*
X8445Y39823D01*
X8459Y39829D01*
X8477Y39836D01*
X8499Y39842D01*
X8518Y39847D01*
X8537Y39850D01*
X8550Y39851D01*
X8568Y39853D01*
X8580Y39853D01*
X8593Y39853D01*
X8605Y39853D01*
D02*
G37*
G36*
X10941Y38971D02*
X9317D01*
Y39271D01*
X10941D01*
Y38971D01*
D02*
G37*
G36*
X8890Y38697D02*
X8786D01*
Y38861D01*
X8288Y38861D01*
X8288Y38971D01*
X8786D01*
X8786Y39135D01*
X8890D01*
Y38697D01*
D02*
G37*
G36*
X8600Y38527D02*
X8620Y38526D01*
X8647Y38523D01*
X8670Y38518D01*
X8690Y38513D01*
X8704Y38509D01*
X8728Y38499D01*
X8748Y38489D01*
X8761Y38481D01*
X8777Y38471D01*
X8793Y38459D01*
X8815Y38439D01*
X8827Y38426D01*
X8836Y38415D01*
X8844Y38404D01*
X8853Y38391D01*
X8860Y38380D01*
X8865Y38369D01*
X8879Y38341D01*
X8885Y38325D01*
X8892Y38302D01*
X8895Y38287D01*
X8898Y38273D01*
X8901Y38253D01*
X8902Y38239D01*
X8903Y38220D01*
Y38206D01*
X8902Y38194D01*
X8901Y38173D01*
X8899Y38160D01*
X8896Y38145D01*
X8893Y38131D01*
X8889Y38116D01*
X8884Y38100D01*
X8874Y38074D01*
X8864Y38055D01*
X8858Y38044D01*
X8851Y38033D01*
X8842Y38020D01*
X8830Y38004D01*
X8822Y37994D01*
X8811Y37984D01*
X8791Y37966D01*
X8780Y37958D01*
X8769Y37950D01*
X8756Y37941D01*
X8743Y37934D01*
X8723Y37925D01*
X8706Y37918D01*
X8691Y37913D01*
X8678Y37909D01*
X8665Y37906D01*
X8653Y37904D01*
X8630Y37900D01*
X8609Y37899D01*
X8584Y37898D01*
X8548Y37900D01*
X8519Y37905D01*
X8507Y37908D01*
X8487Y37913D01*
X8472Y37918D01*
X8456Y37925D01*
X8436Y37934D01*
X8424Y37941D01*
X8408Y37951D01*
X8395Y37961D01*
X8381Y37971D01*
X8367Y37984D01*
X8353Y37999D01*
X8335Y38021D01*
X8326Y38034D01*
X8319Y38046D01*
X8308Y38066D01*
X8300Y38084D01*
X8294Y38101D01*
X8289Y38117D01*
X8285Y38133D01*
X8280Y38154D01*
X8278Y38169D01*
X8277Y38189D01*
X8276Y38202D01*
X8276Y38233D01*
X8277Y38245D01*
X8279Y38259D01*
X8282Y38279D01*
X8287Y38301D01*
X8291Y38316D01*
X8299Y38340D01*
X8307Y38357D01*
X8317Y38377D01*
X8323Y38388D01*
X8332Y38400D01*
X8343Y38415D01*
X8354Y38429D01*
X8366Y38441D01*
X8377Y38452D01*
X8394Y38465D01*
X8408Y38475D01*
X8423Y38484D01*
X8445Y38496D01*
X8463Y38504D01*
X8478Y38510D01*
X8492Y38514D01*
X8512Y38519D01*
X8529Y38523D01*
X8546Y38525D01*
X8587Y38528D01*
X8600Y38527D01*
D02*
G37*
G36*
X8890Y37451D02*
X8889Y37430D01*
X8887Y37418D01*
X8885Y37402D01*
X8879Y37377D01*
X8871Y37358D01*
X8863Y37342D01*
X8850Y37323D01*
X8842Y37313D01*
X8823Y37294D01*
X8810Y37285D01*
X8795Y37277D01*
X8784Y37272D01*
X8771Y37267D01*
X8747Y37261D01*
X8734Y37259D01*
X8715Y37257D01*
X8702Y37257D01*
X8691Y37258D01*
X8678Y37259D01*
X8665Y37261D01*
X8652Y37265D01*
X8633Y37271D01*
X8622Y37276D01*
X8608Y37284D01*
X8588Y37299D01*
X8572Y37315D01*
X8562Y37328D01*
X8553Y37344D01*
X8542Y37367D01*
X8536Y37385D01*
X8533Y37398D01*
X8288Y37220D01*
Y37359D01*
X8528Y37522D01*
Y37563D01*
X8625D01*
X8625Y37463D01*
X8626Y37448D01*
X8629Y37431D01*
X8633Y37420D01*
X8639Y37408D01*
X8648Y37396D01*
X8658Y37388D01*
X8675Y37380D01*
X8688Y37376D01*
X8705Y37375D01*
X8717Y37376D01*
X8736Y37380D01*
X8749Y37385D01*
X8767Y37400D01*
X8776Y37414D01*
X8781Y37425D01*
X8786Y37444D01*
X8788Y37458D01*
X8788Y37563D01*
X8288Y37563D01*
Y37673D01*
X8890D01*
Y37451D01*
D02*
G37*
G36*
X10163Y38650D02*
X10190Y38649D01*
X10219Y38647D01*
X10254Y38643D01*
X10277Y38640D01*
X10316Y38634D01*
X10340Y38629D01*
X10381Y38619D01*
X10423Y38606D01*
X10439Y38601D01*
X10470Y38589D01*
X10488Y38582D01*
X10506Y38574D01*
X10525Y38565D01*
X10546Y38554D01*
X10571Y38541D01*
X10600Y38523D01*
X10639Y38497D01*
X10685Y38462D01*
X10722Y38428D01*
X10753Y38394D01*
X10771Y38376D01*
X10793Y38349D01*
X10810Y38326D01*
X10824Y38306D01*
X10837Y38287D01*
X10848Y38269D01*
X10867Y38236D01*
X10876Y38219D01*
X10891Y38188D01*
X10904Y38159D01*
X10915Y38130D01*
X10925Y38101D01*
X10934Y38074D01*
X10941Y38047D01*
X10951Y38006D01*
X10959Y37967D01*
X10965Y37929D01*
X10970Y37889D01*
X10974Y37849D01*
X10975Y37822D01*
X10976Y37784D01*
X10976Y37756D01*
X10975Y37713D01*
X10972Y37676D01*
X10968Y37636D01*
X10963Y37602D01*
X10957Y37565D01*
X10946Y37518D01*
X10934Y37472D01*
X10917Y37419D01*
X10901Y37377D01*
X10882Y37337D01*
X10874Y37321D01*
X10860Y37294D01*
X10843Y37265D01*
X10829Y37241D01*
X10812Y37214D01*
X10797Y37193D01*
X10538Y37365D01*
X10541Y37371D01*
X10563Y37404D01*
X10579Y37431D01*
X10595Y37460D01*
X10612Y37495D01*
X10625Y37528D01*
X10635Y37554D01*
X10647Y37591D01*
X10654Y37620D01*
X10660Y37644D01*
X10664Y37670D01*
X10668Y37701D01*
X10671Y37730D01*
X10672Y37752D01*
X10672Y37769D01*
X10672Y37785D01*
X10671Y37812D01*
X10670Y37831D01*
X10668Y37849D01*
X10665Y37876D01*
X10662Y37894D01*
X10658Y37913D01*
X10651Y37941D01*
X10643Y37970D01*
X10636Y37989D01*
X10628Y38010D01*
X10614Y38041D01*
X10602Y38064D01*
X10587Y38089D01*
X10568Y38119D01*
X10554Y38136D01*
X10535Y38159D01*
X10518Y38177D01*
X10494Y38199D01*
X10464Y38224D01*
X10438Y38241D01*
X10405Y38261D01*
X10379Y38273D01*
X10356Y38283D01*
X10326Y38295D01*
X10308Y38301D01*
X10281Y38308D01*
X10257Y38313D01*
X10225Y38319D01*
X10195Y38323D01*
X10164Y38325D01*
X10121Y38326D01*
X10079Y38324D01*
X10042Y38320D01*
X10003Y38314D01*
X9971Y38306D01*
X9935Y38296D01*
X9905Y38285D01*
X9870Y38269D01*
X9842Y38254D01*
X9803Y38229D01*
X9765Y38200D01*
X9741Y38178D01*
X9720Y38155D01*
X9699Y38130D01*
X9687Y38113D01*
X9677Y38098D01*
X9668Y38084D01*
X9653Y38059D01*
X9642Y38036D01*
X9628Y38005D01*
X9617Y37974D01*
X9608Y37944D01*
X9601Y37916D01*
X9594Y37879D01*
X9588Y37834D01*
X9586Y37787D01*
X9586Y37759D01*
X9589Y37716D01*
X9593Y37678D01*
X9598Y37646D01*
X9605Y37614D01*
X9615Y37580D01*
X9621Y37562D01*
X9631Y37533D01*
X9640Y37510D01*
X9662Y37462D01*
X9686Y37418D01*
X9706Y37387D01*
X9721Y37365D01*
X9461Y37193D01*
X9428Y37244D01*
X9402Y37287D01*
X9382Y37325D01*
X9362Y37368D01*
X9345Y37411D01*
X9329Y37454D01*
X9319Y37492D01*
X9313Y37513D01*
X9305Y37547D01*
X9298Y37581D01*
X9293Y37612D01*
X9289Y37645D01*
X9287Y37666D01*
X9285Y37695D01*
X9283Y37722D01*
X9282Y37765D01*
X9282Y37800D01*
X9284Y37836D01*
X9285Y37863D01*
X9288Y37889D01*
X9291Y37916D01*
X9295Y37941D01*
X9300Y37973D01*
X9305Y37998D01*
X9313Y38032D01*
X9320Y38059D01*
X9328Y38086D01*
X9337Y38113D01*
X9347Y38141D01*
X9359Y38170D01*
X9366Y38184D01*
X9380Y38214D01*
X9388Y38230D01*
X9418Y38281D01*
X9430Y38300D01*
X9444Y38320D01*
X9480Y38367D01*
X9508Y38399D01*
X9546Y38438D01*
X9576Y38464D01*
X9610Y38491D01*
X9638Y38510D01*
X9670Y38530D01*
X9697Y38546D01*
X9720Y38558D01*
X9761Y38578D01*
X9797Y38592D01*
X9828Y38604D01*
X9858Y38613D01*
X9886Y38621D01*
X9926Y38630D01*
X9964Y38637D01*
X10001Y38643D01*
X10036Y38647D01*
X10059Y38649D01*
X10094Y38650D01*
X10129Y38651D01*
X10163Y38650D01*
D02*
G37*
G36*
X57427Y48408D02*
X57429Y48407D01*
X57429Y48400D01*
X57429Y48398D01*
X57429Y48022D01*
X57428Y48019D01*
X57426Y48018D01*
X57423Y48017D01*
X57405Y48018D01*
X55675Y48017D01*
X55672Y48020D01*
X55671Y48082D01*
X55674Y48085D01*
X55679Y48088D01*
X55680Y48092D01*
X55680Y48134D01*
X55682Y48137D01*
X55687Y48140D01*
X55689Y48141D01*
X55689Y48148D01*
X55689Y48154D01*
X55689Y48159D01*
X55689Y48170D01*
X55692Y48173D01*
X55696Y48176D01*
X55698Y48177D01*
X55697Y48195D01*
X55699Y48198D01*
X55701Y48199D01*
X55705Y48202D01*
X55707Y48206D01*
X55706Y48209D01*
X55707Y48214D01*
X55708Y48216D01*
X55714Y48219D01*
X55715Y48223D01*
X55716Y48232D01*
X55718Y48234D01*
X55723Y48237D01*
X55724Y48241D01*
X55723Y48247D01*
X55726Y48251D01*
X55728Y48252D01*
X55731Y48254D01*
X55732Y48256D01*
X55735Y48259D01*
X55736Y48260D01*
X55738Y48262D01*
X55740Y48263D01*
X55741Y48264D01*
X55744Y48269D01*
X55748Y48271D01*
X55750Y48273D01*
X55751Y48276D01*
X55750Y48279D01*
X55751Y48285D01*
X55752Y48286D01*
X55756Y48289D01*
X55758Y48290D01*
X55759Y48292D01*
X55763Y48296D01*
X55765Y48297D01*
X55767Y48299D01*
X55768Y48301D01*
X55772Y48305D01*
X55774Y48306D01*
X55775Y48307D01*
X55776Y48309D01*
X55780Y48313D01*
X55782Y48314D01*
X55784Y48316D01*
X55785Y48318D01*
X55787Y48321D01*
X55790Y48321D01*
X55799Y48322D01*
X55802Y48325D01*
X55804Y48329D01*
X55810Y48333D01*
X55811Y48335D01*
X55814Y48339D01*
X55818Y48339D01*
X55824Y48339D01*
X55827Y48341D01*
X55828Y48343D01*
X55832Y48348D01*
X55834Y48349D01*
X55837Y48352D01*
X55838Y48354D01*
X55840Y48356D01*
X55844Y48357D01*
X55850Y48356D01*
X55854Y48358D01*
X55857Y48364D01*
X55860Y48365D01*
X55863Y48366D01*
X55866Y48365D01*
X55873Y48364D01*
X55876Y48365D01*
X55880Y48368D01*
X55883Y48373D01*
X55887Y48374D01*
X55894Y48374D01*
X55897Y48375D01*
X55898Y48377D01*
X55901Y48381D01*
X55902Y48383D01*
X55907Y48383D01*
X55929Y48383D01*
X55933Y48386D01*
X55936Y48390D01*
X55937Y48392D01*
X55949Y48391D01*
X55965Y48392D01*
X55968Y48391D01*
X55974Y48392D01*
X55977Y48395D01*
X55978Y48397D01*
X55980Y48400D01*
X55984Y48401D01*
X55998Y48400D01*
X56075Y48401D01*
X56081Y48404D01*
X56084Y48407D01*
X56088Y48408D01*
X56231Y48409D01*
X56255Y48408D01*
X56258Y48409D01*
X56290Y48409D01*
X56986Y48409D01*
X56987D01*
X57427Y48408D01*
D02*
G37*
G36*
X44074Y48454D02*
X45991Y48454D01*
X45994Y48453D01*
X45996Y48451D01*
X45995Y48036D01*
X45994Y48034D01*
X45987Y48033D01*
X45978Y48034D01*
X44503Y48033D01*
X44500Y48034D01*
X44493Y48033D01*
X44491Y48032D01*
X44489Y48026D01*
X44490Y48022D01*
X44490Y47286D01*
X44491Y47283D01*
X44494Y47281D01*
X44498Y47278D01*
X44499Y47274D01*
X44499Y47257D01*
X44499Y47254D01*
X44499Y47245D01*
X44499Y47240D01*
X44503Y47237D01*
X44507Y47235D01*
X44509Y47228D01*
X44508Y47226D01*
X44509Y47205D01*
X44511Y47202D01*
X44515Y47200D01*
X44517Y47196D01*
X44516Y47181D01*
X44518Y47177D01*
X44525Y47173D01*
X44525Y47161D01*
X44528Y47159D01*
X44533Y47156D01*
X44534Y47155D01*
X44535Y47143D01*
X44536Y47141D01*
X44542Y47138D01*
X44543Y47133D01*
X44542Y47130D01*
X44543Y47126D01*
X44546Y47123D01*
X44551Y47120D01*
X44552Y47109D01*
X44554Y47107D01*
X44558Y47104D01*
X44560Y47103D01*
X44561Y47101D01*
X44562Y47098D01*
X44564Y47098D01*
X44569Y47093D01*
X44570Y47083D01*
X44573Y47079D01*
X44575Y47078D01*
X44578Y47075D01*
X44579Y47073D01*
X44581Y47071D01*
X44583Y47070D01*
X44587Y47066D01*
X44588Y47064D01*
X44590Y47062D01*
X44592Y47061D01*
X44595Y47058D01*
X44596Y47056D01*
X44598Y47054D01*
X44600Y47053D01*
X44604Y47049D01*
X44605Y47047D01*
X44608Y47045D01*
X44609Y47044D01*
X44613Y47040D01*
X44614Y47038D01*
X44617Y47036D01*
X44618Y47035D01*
X44622Y47031D01*
X44623Y47030D01*
X44625Y47027D01*
X44629Y47026D01*
X44632Y47027D01*
X44636Y47026D01*
X44639Y47023D01*
X44640Y47021D01*
X44644Y47017D01*
X44646Y47016D01*
X44647Y47015D01*
X44648Y47013D01*
X44650Y47010D01*
X44654Y47009D01*
X44660Y47010D01*
X44663Y47008D01*
X44665Y47007D01*
X44667Y47002D01*
X44669Y47001D01*
X44681Y47000D01*
X44682Y46999D01*
X44685Y46993D01*
X44689Y46992D01*
X44698Y46991D01*
X44700Y46989D01*
X44703Y46984D01*
X44707Y46983D01*
X44713Y46984D01*
X44717Y46981D01*
X44717Y46979D01*
X44722Y46974D01*
X44728Y46974D01*
X44731Y46974D01*
X44737Y46975D01*
X44741Y46974D01*
X44744Y46971D01*
X44747Y46967D01*
X44751Y46965D01*
X44765Y46966D01*
X44770Y46962D01*
X44773Y46958D01*
X44778Y46956D01*
X44787Y46957D01*
X44820Y46956D01*
X44822Y46954D01*
X44825Y46949D01*
X44826Y46948D01*
X45750D01*
X45990Y46948D01*
X45993Y46948D01*
X45996Y46945D01*
X45995Y46522D01*
X45993Y46519D01*
X45986Y46518D01*
X45983Y46519D01*
X44921Y46520D01*
X44919Y46523D01*
X44918Y46524D01*
X44915Y46528D01*
X44909Y46528D01*
X44779Y46528D01*
X44777Y46529D01*
X44774Y46528D01*
X44764Y46529D01*
X44762Y46531D01*
X44759Y46535D01*
X44758Y46537D01*
X44706Y46536D01*
X44702Y46538D01*
X44701Y46540D01*
X44699Y46544D01*
X44697Y46545D01*
X44694Y46546D01*
X44672Y46545D01*
X44670Y46546D01*
X44653Y46545D01*
X44649Y46548D01*
X44648Y46549D01*
X44647Y46551D01*
X44646Y46553D01*
X44639Y46555D01*
X44633Y46554D01*
X44616Y46555D01*
X44613Y46557D01*
X44613Y46559D01*
X44610Y46562D01*
X44607Y46563D01*
X44597Y46563D01*
X44589Y46563D01*
X44587Y46562D01*
X44581Y46563D01*
X44578Y46566D01*
X44575Y46571D01*
X44571Y46572D01*
X44556Y46571D01*
X44551Y46575D01*
X44549Y46580D01*
X44546Y46580D01*
X44543Y46581D01*
X44540Y46580D01*
X44532Y46580D01*
X44527Y46582D01*
X44526Y46584D01*
X44523Y46589D01*
X44519Y46590D01*
X44512Y46589D01*
X44509Y46591D01*
X44506Y46594D01*
X44505Y46596D01*
X44500Y46598D01*
X44484Y46599D01*
X44481Y46602D01*
X44479Y46606D01*
X44475Y46607D01*
X44466Y46608D01*
X44465Y46609D01*
X44462Y46614D01*
X44461Y46615D01*
X44449Y46616D01*
X44447Y46617D01*
X44444Y46623D01*
X44441Y46624D01*
X44432Y46625D01*
X44429Y46627D01*
X44427Y46632D01*
X44422Y46633D01*
X44416Y46633D01*
X44413Y46634D01*
X44412Y46636D01*
X44410Y46641D01*
X44406Y46642D01*
X44396Y46643D01*
X44392Y46648D01*
X44390Y46650D01*
X44389Y46651D01*
X44385Y46654D01*
X44383Y46658D01*
X44379Y46660D01*
X44376Y46659D01*
X44370Y46660D01*
X44368Y46662D01*
X44365Y46667D01*
X44360Y46670D01*
X44359Y46672D01*
X44356Y46676D01*
X44352Y46677D01*
X44346Y46677D01*
X44343Y46679D01*
X44342Y46680D01*
X44341Y46682D01*
X44338Y46685D01*
X44336Y46686D01*
X44332Y46690D01*
X44331Y46692D01*
X44329Y46694D01*
X44328Y46694D01*
X44323Y46699D01*
X44323Y46700D01*
X44320Y46703D01*
X44318Y46704D01*
X44315Y46707D01*
X44314Y46709D01*
X44311Y46712D01*
X44309Y46713D01*
X44306Y46716D01*
X44305Y46718D01*
X44303Y46720D01*
X44301Y46721D01*
X44298Y46723D01*
X44297Y46725D01*
X44293Y46729D01*
X44283Y46730D01*
X44281Y46732D01*
X44280Y46734D01*
X44278Y46736D01*
X44276Y46737D01*
X44271Y46741D01*
X44268Y46748D01*
X44265Y46750D01*
X44263Y46754D01*
X44262Y46761D01*
X44259Y46764D01*
X44257Y46765D01*
X44254Y46768D01*
X44253Y46770D01*
X44250Y46773D01*
X44248Y46774D01*
X44245Y46777D01*
X44244Y46779D01*
X44241Y46782D01*
X44239Y46783D01*
X44236Y46786D01*
X44235Y46788D01*
X44233Y46790D01*
X44231Y46791D01*
X44228Y46794D01*
X44227Y46796D01*
X44224Y46799D01*
X44219Y46802D01*
X44219Y46805D01*
X44218Y46814D01*
X44215Y46817D01*
X44211Y46819D01*
X44210Y46821D01*
X44207Y46825D01*
X44203Y46828D01*
X44201Y46829D01*
X44200Y46841D01*
X44199Y46842D01*
X44194Y46845D01*
X44193Y46846D01*
X44192Y46848D01*
X44188Y46852D01*
X44186Y46853D01*
X44184Y46855D01*
X44183Y46866D01*
X44181Y46869D01*
X44179Y46870D01*
X44176Y46872D01*
X44175Y46876D01*
X44174Y46885D01*
X44168Y46888D01*
X44166Y46894D01*
X44167Y46896D01*
X44166Y46902D01*
X44164Y46903D01*
X44158Y46907D01*
X44157Y46910D01*
X44157Y46919D01*
X44154Y46922D01*
X44150Y46924D01*
X44148Y46928D01*
X44149Y46934D01*
X44147Y46938D01*
X44142Y46941D01*
X44140Y46943D01*
X44139Y46949D01*
X44140Y46953D01*
X44139Y46963D01*
X44137Y46965D01*
X44132Y46968D01*
X44131Y46969D01*
X44130Y46981D01*
X44123Y46986D01*
X44122Y46992D01*
X44123Y47001D01*
X44122Y47007D01*
X44121Y47008D01*
X44116Y47011D01*
X44114Y47013D01*
X44113Y47018D01*
X44114Y47031D01*
X44110Y47036D01*
X44106Y47040D01*
X44105Y47043D01*
X44105Y47050D01*
X44105Y47066D01*
X44104Y47069D01*
X44098Y47072D01*
X44096Y47074D01*
X44095Y47081D01*
X44096Y47083D01*
X44095Y47104D01*
X44090Y47107D01*
X44087Y47110D01*
X44088Y47153D01*
X44085Y47156D01*
X44084Y47158D01*
X44082Y47159D01*
X44079Y47161D01*
X44078Y47167D01*
X44079Y47176D01*
X44079Y47192D01*
X44079Y47202D01*
X44078Y47205D01*
X44079Y47207D01*
X44078Y47217D01*
X44075Y47220D01*
X44073Y47221D01*
X44071Y47223D01*
X44070Y47227D01*
X44069Y47365D01*
X44068Y47367D01*
X44066Y47368D01*
X44063Y47370D01*
X44061Y47374D01*
X44061Y47387D01*
X44061Y48435D01*
X44062Y48438D01*
X44061Y48444D01*
X44062Y48451D01*
X44064Y48454D01*
X44071Y48455D01*
X44074Y48454D01*
D02*
G37*
G36*
X55334Y48452D02*
X55336Y48450D01*
X55336Y48036D01*
X55332Y48032D01*
X55312Y48033D01*
X55197Y48034D01*
X54859Y48035D01*
X53834Y48034D01*
X53831Y48031D01*
X53830Y48029D01*
X53826Y48025D01*
X53824Y48024D01*
X53822Y48022D01*
X53823Y47363D01*
X53824Y47360D01*
X53826Y47359D01*
X53829Y47357D01*
X53831Y47352D01*
X53830Y47341D01*
X53831Y47326D01*
X53830Y47268D01*
X53832Y47265D01*
X53833Y47264D01*
X53835Y47263D01*
X53839Y47259D01*
X53840Y47256D01*
X53839Y47244D01*
X53840Y47224D01*
X53842Y47221D01*
X53844Y47220D01*
X53848Y47216D01*
X53848Y47199D01*
X53850Y47194D01*
X53856Y47190D01*
X53857Y47186D01*
X53856Y47171D01*
X53860Y47167D01*
X53864Y47164D01*
X53865Y47163D01*
X53866Y47151D01*
X53868Y47150D01*
X53874Y47146D01*
X53875Y47143D01*
X53876Y47134D01*
X53878Y47131D01*
X53882Y47129D01*
X53884Y47124D01*
X53883Y47122D01*
X53884Y47116D01*
X53885Y47115D01*
X53890Y47112D01*
X53892Y47110D01*
X53893Y47108D01*
X53897Y47104D01*
X53899Y47103D01*
X53900Y47102D01*
X53901Y47098D01*
X53900Y47093D01*
X53903Y47088D01*
X53905Y47088D01*
X53909Y47084D01*
X53910Y47083D01*
X53914Y47078D01*
X53916Y47078D01*
X53917Y47076D01*
X53918Y47074D01*
X53923Y47069D01*
X53925Y47068D01*
X53927Y47067D01*
X53927Y47065D01*
X53933Y47060D01*
X53934Y47059D01*
X53936Y47058D01*
X53937Y47056D01*
X53941Y47052D01*
X53943Y47051D01*
X53944Y47050D01*
X53945Y47048D01*
X53950Y47043D01*
X53952Y47042D01*
X53953Y47041D01*
X53954Y47039D01*
X53958Y47035D01*
X53960Y47034D01*
X53961Y47032D01*
X53962Y47031D01*
X53964Y47029D01*
X53964Y47027D01*
X53966Y47026D01*
X53970Y47023D01*
X53973Y47019D01*
X53974Y47017D01*
X53986Y47016D01*
X53990Y47011D01*
X53992Y47009D01*
X53994Y47008D01*
X53998Y47004D01*
X54000Y47000D01*
X54004Y46999D01*
X54007Y47000D01*
X54012Y46999D01*
X54014Y46997D01*
X54017Y46992D01*
X54018Y46991D01*
X54030Y46990D01*
X54031Y46989D01*
X54034Y46984D01*
X54036Y46982D01*
X54054Y46982D01*
X54057Y46980D01*
X54061Y46975D01*
X54062Y46974D01*
X54068Y46973D01*
X54078Y46974D01*
X54082Y46973D01*
X54083Y46971D01*
X54086Y46967D01*
X54088Y46964D01*
X54106Y46965D01*
X54109Y46963D01*
X54111Y46961D01*
X54114Y46957D01*
X54118Y46955D01*
X54129Y46956D01*
X54151Y46955D01*
X54154Y46956D01*
X54160Y46955D01*
X54162Y46954D01*
X54163Y46952D01*
X54167Y46947D01*
X55334Y46946D01*
X55336Y46944D01*
X55336Y46523D01*
X55333Y46520D01*
X54925D01*
X54257Y46521D01*
X54249Y46520D01*
X54246Y46521D01*
X54240Y46525D01*
X54238Y46527D01*
X54233Y46529D01*
X54227Y46529D01*
X54100Y46529D01*
X54097Y46531D01*
X54095Y46533D01*
X54094Y46534D01*
X54093Y46537D01*
X54087Y46539D01*
X54078Y46538D01*
X54036Y46539D01*
X54034Y46541D01*
X54031Y46545D01*
X54027Y46547D01*
X53995Y46546D01*
X53992Y46548D01*
X53990Y46549D01*
X53988Y46554D01*
X53986Y46555D01*
X53983Y46556D01*
X53966Y46555D01*
X53964Y46556D01*
X53952Y46555D01*
X53947Y46559D01*
X53946Y46561D01*
X53943Y46564D01*
X53935Y46565D01*
X53929Y46564D01*
X53926Y46563D01*
X53922Y46566D01*
X53920Y46567D01*
X53917Y46572D01*
X53913Y46573D01*
X53889Y46573D01*
X53886Y46575D01*
X53883Y46580D01*
X53881Y46581D01*
X53868Y46582D01*
X53862Y46588D01*
X53860Y46589D01*
X53856Y46591D01*
X53846Y46590D01*
X53843Y46591D01*
X53842Y46593D01*
X53839Y46597D01*
X53838Y46599D01*
X53834Y46600D01*
X53820Y46599D01*
X53815Y46603D01*
X53814Y46605D01*
X53813Y46607D01*
X53809Y46608D01*
X53799Y46609D01*
X53798Y46610D01*
X53795Y46616D01*
X53791Y46617D01*
X53785Y46616D01*
X53780Y46620D01*
X53777Y46625D01*
X53766Y46626D01*
X53763Y46627D01*
X53760Y46633D01*
X53757Y46634D01*
X53747Y46635D01*
X53746Y46637D01*
X53745Y46638D01*
X53741Y46643D01*
X53739Y46643D01*
X53736Y46647D01*
X53734Y46651D01*
X53730Y46652D01*
X53721Y46653D01*
X53719Y46655D01*
X53718Y46657D01*
X53715Y46660D01*
X53713Y46661D01*
X53710Y46663D01*
X53708Y46668D01*
X53706Y46669D01*
X53694Y46670D01*
X53691Y46675D01*
X53689Y46677D01*
X53687Y46678D01*
X53683Y46682D01*
X53682Y46684D01*
X53681Y46685D01*
X53679Y46686D01*
X53676Y46689D01*
X53675Y46690D01*
X53671Y46695D01*
X53660Y46696D01*
X53658Y46698D01*
X53658Y46700D01*
X53656Y46702D01*
X53654Y46703D01*
X53649Y46707D01*
X53645Y46712D01*
X53640Y46716D01*
X53639Y46718D01*
X53636Y46721D01*
X53634Y46722D01*
X53631Y46725D01*
X53630Y46727D01*
X53627Y46730D01*
X53625Y46731D01*
X53622Y46734D01*
X53621Y46736D01*
X53619Y46738D01*
X53617Y46739D01*
X53614Y46742D01*
X53613Y46744D01*
X53610Y46747D01*
X53608Y46748D01*
X53605Y46751D01*
X53604Y46753D01*
X53601Y46757D01*
X53599Y46757D01*
X53596Y46760D01*
X53596Y46762D01*
X53592Y46765D01*
X53591Y46766D01*
X53587Y46769D01*
X53586Y46771D01*
X53583Y46774D01*
X53581Y46775D01*
X53578Y46778D01*
X53577Y46780D01*
X53573Y46784D01*
X53571Y46785D01*
X53570Y46789D01*
X53569Y46797D01*
X53567Y46799D01*
X53565Y46800D01*
X53563Y46802D01*
X53562Y46803D01*
X53558Y46808D01*
X53553Y46811D01*
X53552Y46823D01*
X53549Y46826D01*
X53545Y46829D01*
X53544Y46830D01*
X53543Y46832D01*
X53539Y46835D01*
X53538Y46836D01*
X53535Y46838D01*
X53534Y46842D01*
X53535Y46845D01*
X53534Y46850D01*
X53533Y46851D01*
X53528Y46854D01*
X53525Y46857D01*
X53524Y46859D01*
X53522Y46861D01*
X53518Y46864D01*
X53517Y46867D01*
X53518Y46874D01*
X53515Y46877D01*
X53514Y46879D01*
X53509Y46881D01*
X53508Y46893D01*
X53506Y46896D01*
X53503Y46897D01*
X53501Y46898D01*
X53500Y46902D01*
X53499Y46912D01*
X53492Y46917D01*
X53491Y46921D01*
X53492Y46924D01*
X53491Y46928D01*
X53488Y46931D01*
X53484Y46933D01*
X53482Y46935D01*
X53482Y46948D01*
X53480Y46950D01*
X53479Y46952D01*
X53475Y46956D01*
X53474Y46959D01*
X53473Y46972D01*
X53471Y46974D01*
X53466Y46977D01*
X53465Y46979D01*
X53464Y46982D01*
X53465Y46991D01*
X53464Y46999D01*
X53462Y47001D01*
X53457Y47004D01*
X53456Y47005D01*
X53456Y47022D01*
X53455Y47025D01*
X53453Y47027D01*
X53448Y47030D01*
X53447Y47034D01*
X53448Y47049D01*
X53446Y47053D01*
X53444Y47054D01*
X53439Y47058D01*
X53439Y47081D01*
X53438Y47086D01*
X53435Y47088D01*
X53431Y47091D01*
X53430Y47095D01*
X53430Y47113D01*
X53430Y47117D01*
X53430Y47120D01*
X53430Y47130D01*
X53427Y47132D01*
X53423Y47135D01*
X53421Y47136D01*
X53421Y47141D01*
X53421Y47181D01*
X53419Y47184D01*
X53415Y47187D01*
X53412Y47189D01*
X53413Y47202D01*
X53412Y47252D01*
X53413Y47255D01*
X53412Y47263D01*
X53409Y47266D01*
X53406Y47269D01*
X53404Y47274D01*
X53404Y48448D01*
X53405Y48451D01*
X53406Y48453D01*
X55334Y48452D01*
D02*
G37*
G36*
X57418Y47717D02*
X57419Y47715D01*
X57420Y47712D01*
X57419Y47698D01*
X57420Y47695D01*
X57420Y46961D01*
X57420Y46960D01*
X57419Y46958D01*
X57419Y46945D01*
X57412Y46938D01*
X57411Y46935D01*
X57412Y46876D01*
X57410Y46873D01*
X57408Y46870D01*
X57403Y46868D01*
X57402Y46864D01*
X57403Y46831D01*
X57400Y46828D01*
X57399Y46827D01*
X57395Y46824D01*
X57393Y46818D01*
X57394Y46806D01*
X57393Y46803D01*
X57391Y46800D01*
X57386Y46798D01*
X57385Y46793D01*
X57385Y46778D01*
X57383Y46775D01*
X57382Y46774D01*
X57377Y46771D01*
X57376Y46767D01*
X57377Y46761D01*
X57374Y46757D01*
X57372Y46757D01*
X57367Y46752D01*
X57367Y46738D01*
X57362Y46733D01*
X57361Y46731D01*
X57359Y46725D01*
X57356Y46722D01*
X57352Y46719D01*
X57350Y46718D01*
X57349Y46706D01*
X57348Y46705D01*
X57343Y46702D01*
X57342Y46700D01*
X57341Y46699D01*
X57340Y46696D01*
X57338Y46695D01*
X57333Y46692D01*
X57332Y46688D01*
X57333Y46681D01*
X57330Y46678D01*
X57328Y46677D01*
X57324Y46673D01*
X57323Y46671D01*
X57321Y46669D01*
X57319Y46668D01*
X57316Y46666D01*
X57316Y46665D01*
X57314Y46662D01*
X57311Y46660D01*
X57310Y46659D01*
X57306Y46656D01*
X57305Y46654D01*
X57303Y46652D01*
X57301Y46651D01*
X57298Y46648D01*
X57297Y46645D01*
X57296Y46636D01*
X57292Y46634D01*
X57283Y46633D01*
X57281Y46631D01*
X57278Y46627D01*
X57277Y46625D01*
X57275Y46624D01*
X57272Y46621D01*
X57271Y46619D01*
X57268Y46616D01*
X57266Y46615D01*
X57263Y46612D01*
X57262Y46610D01*
X57259Y46608D01*
X57258Y46607D01*
X57253Y46603D01*
X57253Y46601D01*
X57250Y46599D01*
X57242Y46599D01*
X57238Y46598D01*
X57235Y46593D01*
X57232Y46590D01*
X57230Y46589D01*
X57228Y46586D01*
X57226Y46582D01*
X57222Y46581D01*
X57213Y46580D01*
X57211Y46578D01*
X57208Y46574D01*
X57204Y46572D01*
X57197Y46573D01*
X57193Y46570D01*
X57191Y46565D01*
X57187Y46564D01*
X57177Y46563D01*
X57173Y46556D01*
X57169Y46555D01*
X57155Y46556D01*
X57150Y46554D01*
X57150Y46552D01*
X57146Y46547D01*
X57140Y46546D01*
X57136Y46547D01*
X57125Y46546D01*
X57124Y46544D01*
X57123Y46543D01*
X57119Y46538D01*
X57103Y46538D01*
X57099Y46537D01*
X57097Y46534D01*
X57094Y46530D01*
X57089Y46529D01*
X57077Y46529D01*
X57056Y46529D01*
X57053Y46525D01*
X57052Y46523D01*
X57051Y46521D01*
X57047Y46520D01*
X56985Y46519D01*
X56983Y46517D01*
X56980Y46513D01*
X56976Y46511D01*
X56964Y46512D01*
X56961Y46511D01*
X56958Y46512D01*
X56955Y46511D01*
X55683Y46512D01*
X55675Y46511D01*
X55671Y46514D01*
X55672Y46937D01*
X55673Y46938D01*
X55680Y46939D01*
X55684Y46938D01*
X56867Y46939D01*
X56870Y46942D01*
X56873Y46946D01*
X56876Y46947D01*
X56898Y46947D01*
X56902Y46948D01*
X56905Y46950D01*
X56908Y46955D01*
X56912Y46956D01*
X56918Y46956D01*
X56921Y46957D01*
X56925Y46964D01*
X56927Y46964D01*
X56931Y46968D01*
X56932Y46969D01*
X56937Y46974D01*
X56938Y46975D01*
X56940Y46977D01*
X56941Y46979D01*
X56945Y46983D01*
X56947Y46984D01*
X56949Y46986D01*
X56950Y46988D01*
X56951Y46990D01*
X56953Y46991D01*
X56957Y46993D01*
X56958Y46997D01*
X56959Y47006D01*
X56960Y47007D01*
X56962Y47008D01*
X56965Y47010D01*
X56966Y47012D01*
X56970Y47017D01*
X56975Y47020D01*
X56976Y47024D01*
X56975Y47028D01*
X56976Y47032D01*
X56979Y47035D01*
X56983Y47037D01*
X56984Y47039D01*
X56985Y47044D01*
X56984Y47065D01*
X56988Y47069D01*
X56992Y47072D01*
X56994Y47076D01*
X56993Y47099D01*
X56994Y47103D01*
X56996Y47104D01*
X57000Y47107D01*
X57002Y47108D01*
X57003Y47117D01*
X57002Y47120D01*
X57002Y47209D01*
X57002Y47214D01*
X57005Y47218D01*
X57007Y47219D01*
X57009Y47221D01*
X57010Y47225D01*
X57007Y47229D01*
X57005Y47230D01*
X57003Y47232D01*
X57002Y47236D01*
X57002Y47302D01*
X57001Y47306D01*
X56999Y47307D01*
X56996Y47308D01*
X55677Y47308D01*
X55672Y47310D01*
X55671Y47313D01*
X55672Y47715D01*
X55674Y47718D01*
X55689Y47717D01*
X57402Y47718D01*
X57404Y47717D01*
X57414Y47718D01*
X57418Y47717D01*
D02*
G37*
G36*
X54177Y47699D02*
X55333Y47700D01*
X55336Y47698D01*
X55336Y47694D01*
X55336Y47275D01*
X55334Y47274D01*
X55331Y47273D01*
X55316Y47274D01*
X54690Y47275D01*
X54688Y47275D01*
X54662Y47276D01*
X54659Y47277D01*
X54636Y47278D01*
X54633Y47279D01*
X54596Y47280D01*
X54593Y47281D01*
X54515Y47282D01*
X54212Y47283D01*
X54209Y47285D01*
X54207Y47290D01*
X54202Y47291D01*
X54196Y47290D01*
X54192Y47293D01*
X54191Y47295D01*
X54190Y47297D01*
X54188Y47298D01*
X54183Y47302D01*
X54182Y47304D01*
X54181Y47306D01*
X54179Y47307D01*
X54175Y47311D01*
X54174Y47314D01*
X54175Y47321D01*
X54171Y47325D01*
X54167Y47327D01*
X54166Y47329D01*
X54165Y47332D01*
X54166Y47342D01*
X54165Y47349D01*
X54162Y47351D01*
X54158Y47354D01*
X54156Y47355D01*
X54157Y47369D01*
X54156Y47489D01*
Y47490D01*
X54157Y47687D01*
X54156Y47696D01*
X54159Y47699D01*
X54162Y47700D01*
X54177Y47699D01*
D02*
G37*
G36*
X46343Y48454D02*
X48258Y48454D01*
X48262Y48452D01*
X48264Y48448D01*
X48263Y48430D01*
X48264Y47277D01*
X48262Y47274D01*
X48261Y47273D01*
X48257Y47272D01*
X48079Y47273D01*
X48077Y47274D01*
X48058Y47275D01*
X48055Y47275D01*
X48048Y47276D01*
X48034Y47277D01*
X48031Y47278D01*
X48025Y47279D01*
X47992Y47280D01*
X47844Y47281D01*
X47841Y47280D01*
X47839Y47281D01*
X47837Y47282D01*
X47835Y47284D01*
Y47332D01*
Y47333D01*
X47834Y48031D01*
X47831Y48033D01*
X47828Y48034D01*
X47810Y48033D01*
X46762Y48034D01*
X46759Y48031D01*
X46758Y48030D01*
X46758Y47278D01*
X46757Y47275D01*
X46755Y47273D01*
X46752Y47272D01*
X46331Y47273D01*
X46329Y47275D01*
X46328Y47282D01*
X46329Y47285D01*
X46328Y48448D01*
X46330Y48453D01*
X46337Y48455D01*
X46343Y48454D01*
D02*
G37*
G36*
X45994Y47700D02*
X45995Y47699D01*
X45996Y47695D01*
Y47499D01*
Y47498D01*
X45995Y47274D01*
X45994Y47273D01*
X45990Y47272D01*
X45663Y47273D01*
X45660Y47274D01*
X45613Y47275D01*
X45609Y47276D01*
X45595Y47277D01*
X45591Y47278D01*
X45543Y47280D01*
X45515Y47280D01*
X44886Y47281D01*
X44883Y47280D01*
X44877Y47282D01*
X44873Y47289D01*
X44868Y47290D01*
X44865Y47289D01*
X44861Y47290D01*
X44858Y47293D01*
X44857Y47295D01*
X44853Y47299D01*
X44851Y47300D01*
X44850Y47301D01*
X44849Y47303D01*
X44845Y47307D01*
X44843Y47308D01*
X44841Y47311D01*
X44840Y47312D01*
X44836Y47316D01*
X44834Y47317D01*
X44831Y47320D01*
X44831Y47332D01*
X44823Y47336D01*
X44822Y47342D01*
X44823Y47352D01*
X44822Y47462D01*
X44821Y47465D01*
X44819Y47476D01*
X44817Y47483D01*
X44816Y47489D01*
X44815Y47501D01*
X44814Y47513D01*
X44815Y47699D01*
X44816Y47700D01*
X44820Y47701D01*
X45994Y47700D01*
D02*
G37*
G36*
X53121Y47691D02*
X53123Y47685D01*
X53122Y47674D01*
X53123Y47233D01*
X53121Y47230D01*
X53120Y47229D01*
X53116Y47228D01*
X52232Y47229D01*
X52230Y47230D01*
X52229Y47234D01*
X52230Y47690D01*
X52233Y47692D01*
X52460D01*
X53121Y47691D01*
D02*
G37*
G36*
X50666Y48454D02*
X51068Y48454D01*
X51072Y48453D01*
X51074Y48451D01*
Y48372D01*
Y48371D01*
X51075Y47256D01*
X51077Y47254D01*
X51079Y47253D01*
X51081Y47250D01*
X51082Y47247D01*
X51083Y47240D01*
X51083Y47198D01*
X51085Y47195D01*
X51086Y47193D01*
X51091Y47191D01*
X51092Y47187D01*
X51092Y47184D01*
X51091Y47181D01*
X51092Y47161D01*
X51094Y47159D01*
X51099Y47156D01*
X51100Y47155D01*
X51101Y47143D01*
X51103Y47141D01*
X51107Y47139D01*
X51109Y47137D01*
X51109Y47131D01*
X51109Y47124D01*
X51109Y47117D01*
X51112Y47115D01*
X51116Y47112D01*
X51118Y47111D01*
X51119Y47099D01*
X51124Y47095D01*
X51127Y47093D01*
X51128Y47091D01*
X51130Y47088D01*
X51132Y47088D01*
X51134Y47086D01*
X51135Y47083D01*
X51136Y47073D01*
X51138Y47071D01*
X51140Y47070D01*
X51143Y47068D01*
X51144Y47066D01*
X51146Y47063D01*
X51148Y47062D01*
X51150Y47060D01*
X51151Y47060D01*
X51152Y47058D01*
X51155Y47055D01*
X51156Y47054D01*
X51158Y47052D01*
X51160Y47051D01*
X51165Y47044D01*
X51166Y47042D01*
X51168Y47042D01*
X51169Y47040D01*
X51171Y47037D01*
X51177Y47034D01*
X51181Y47028D01*
X51186Y47024D01*
X51189Y47021D01*
X51190Y47020D01*
X51193Y47017D01*
X51195Y47016D01*
X51196Y47014D01*
X51198Y47011D01*
X51200Y47010D01*
X51202Y47008D01*
X51204Y47007D01*
X51207Y47002D01*
X51208Y47001D01*
X51220Y47000D01*
X51222Y46999D01*
X51225Y46993D01*
X51229Y46992D01*
X51238Y46991D01*
X51240Y46989D01*
X51243Y46984D01*
X51247Y46983D01*
X51253Y46984D01*
X51257Y46980D01*
X51260Y46976D01*
X51261Y46974D01*
X51268Y46974D01*
X51270Y46974D01*
X51275Y46975D01*
X51281Y46974D01*
X51284Y46971D01*
X51285Y46969D01*
X51287Y46966D01*
X51291Y46965D01*
X51306Y46966D01*
X51310Y46962D01*
X51313Y46958D01*
X51318Y46956D01*
X51330Y46957D01*
X51352Y46956D01*
X51355Y46953D01*
X51356Y46951D01*
X51358Y46949D01*
X51362Y46948D01*
X51378Y46948D01*
X52140Y46948D01*
X52143Y46949D01*
X52147Y46948D01*
X52149Y46947D01*
X52150Y46946D01*
X52151Y46942D01*
X52150Y46522D01*
X52148Y46519D01*
X52140Y46518D01*
X52138Y46519D01*
X51250Y46520D01*
X51247Y46523D01*
X51246Y46525D01*
X51241Y46528D01*
X51120Y46529D01*
X51117Y46531D01*
X51116Y46533D01*
X51113Y46536D01*
X51106Y46537D01*
X51072Y46536D01*
X51068Y46537D01*
X51067Y46538D01*
X51066Y46540D01*
X51063Y46545D01*
X51059Y46546D01*
X51048Y46545D01*
X51043Y46546D01*
X51041Y46545D01*
X51033Y46546D01*
X51030Y46549D01*
X51027Y46554D01*
X51022Y46555D01*
X51013Y46554D01*
X50998Y46555D01*
X50995Y46557D01*
X50993Y46562D01*
X50989Y46563D01*
X50975Y46563D01*
X50971Y46564D01*
X50969Y46566D01*
X50966Y46571D01*
X50961Y46572D01*
X50959Y46571D01*
X50954Y46572D01*
X50952Y46575D01*
X50949Y46579D01*
X50948Y46580D01*
X50932Y46580D01*
X50928Y46581D01*
X50925Y46584D01*
X50923Y46588D01*
X50918Y46590D01*
X50913Y46589D01*
X50910Y46591D01*
X50908Y46593D01*
X50907Y46595D01*
X50904Y46598D01*
X50902Y46599D01*
X50899Y46602D01*
X50898Y46604D01*
X50895Y46607D01*
X50884Y46608D01*
X50881Y46610D01*
X50879Y46615D01*
X50875Y46616D01*
X50872Y46615D01*
X50866Y46616D01*
X50865Y46617D01*
X50864Y46619D01*
X50861Y46623D01*
X50859Y46624D01*
X50856Y46627D01*
X50855Y46628D01*
X50852Y46632D01*
X50848Y46633D01*
X50842Y46633D01*
X50839Y46635D01*
X50838Y46637D01*
X50837Y46638D01*
X50834Y46642D01*
X50832Y46643D01*
X50829Y46646D01*
X50828Y46648D01*
X50824Y46651D01*
X50823Y46652D01*
X50820Y46654D01*
X50819Y46656D01*
X50816Y46659D01*
X50814Y46660D01*
X50811Y46663D01*
X50810Y46665D01*
X50807Y46668D01*
X50805Y46669D01*
X50802Y46672D01*
X50801Y46674D01*
X50798Y46677D01*
X50796Y46678D01*
X50794Y46680D01*
X50793Y46682D01*
X50790Y46685D01*
X50788Y46686D01*
X50785Y46689D01*
X50784Y46691D01*
X50781Y46694D01*
X50779Y46695D01*
X50777Y46698D01*
X50776Y46700D01*
X50773Y46703D01*
X50771Y46704D01*
X50768Y46705D01*
X50767Y46709D01*
X50767Y46718D01*
X50764Y46720D01*
X50762Y46721D01*
X50760Y46722D01*
X50759Y46724D01*
X50755Y46729D01*
X50751Y46732D01*
X50749Y46737D01*
X50748Y46744D01*
X50747Y46746D01*
X50745Y46746D01*
X50741Y46751D01*
X50740Y46754D01*
X50738Y46755D01*
X50733Y46759D01*
X50732Y46762D01*
X50733Y46768D01*
X50731Y46772D01*
X50724Y46776D01*
X50723Y46788D01*
X50721Y46790D01*
X50716Y46793D01*
X50715Y46794D01*
X50714Y46806D01*
X50706Y46811D01*
X50705Y46823D01*
X50703Y46825D01*
X50699Y46828D01*
X50697Y46829D01*
X50698Y46846D01*
X50696Y46849D01*
X50694Y46851D01*
X50692Y46852D01*
X50689Y46855D01*
X50688Y46858D01*
X50689Y46874D01*
X50687Y46877D01*
X50681Y46880D01*
X50679Y46886D01*
X50680Y46895D01*
X50681Y46896D01*
X50680Y46899D01*
X50678Y46903D01*
X50673Y46906D01*
X50671Y46908D01*
X50671Y46943D01*
X50670Y46946D01*
X50668Y46948D01*
X50663Y46951D01*
X50662Y46956D01*
X50663Y46968D01*
X50662Y47007D01*
X50660Y47008D01*
X50659Y47009D01*
X50653Y47013D01*
X50654Y48451D01*
X50657Y48454D01*
X50663Y48455D01*
X50666Y48454D01*
D02*
G37*
G36*
X48591D02*
X49821Y48453D01*
X49827Y48447D01*
X49831Y48445D01*
X49841Y48445D01*
X49844Y48445D01*
X49887Y48445D01*
X49896Y48445D01*
X49900Y48442D01*
X49903Y48438D01*
X49904Y48436D01*
X49909Y48436D01*
X49949Y48436D01*
X49952Y48434D01*
X49955Y48430D01*
X49956Y48428D01*
X49960Y48427D01*
X49970Y48428D01*
X49976Y48427D01*
X49979Y48428D01*
X49985Y48427D01*
X49990Y48424D01*
X49990Y48422D01*
X49993Y48420D01*
X49999Y48419D01*
X50020Y48418D01*
X50023Y48415D01*
X50026Y48411D01*
X50029Y48410D01*
X50052Y48410D01*
X50055Y48409D01*
X50058Y48407D01*
X50059Y48405D01*
X50060Y48403D01*
X50064Y48402D01*
X50073Y48401D01*
X50075Y48399D01*
X50078Y48394D01*
X50079Y48393D01*
X50086Y48392D01*
X50089Y48393D01*
X50095Y48394D01*
X50098Y48393D01*
X50099Y48392D01*
X50102Y48389D01*
X50104Y48385D01*
X50109Y48383D01*
X50122Y48384D01*
X50127Y48382D01*
X50128Y48380D01*
X50131Y48376D01*
X50143Y48375D01*
X50146Y48372D01*
X50148Y48368D01*
X50150Y48366D01*
X50161Y48365D01*
X50165Y48360D01*
X50167Y48358D01*
X50174Y48355D01*
X50175Y48353D01*
X50176Y48352D01*
X50181Y48350D01*
X50186Y48349D01*
X50189Y48346D01*
X50192Y48341D01*
X50196Y48340D01*
X50202Y48340D01*
X50205Y48339D01*
X50209Y48333D01*
X50211Y48331D01*
X50213Y48331D01*
X50216Y48327D01*
X50217Y48326D01*
X50220Y48322D01*
X50231Y48321D01*
X50233Y48319D01*
X50234Y48317D01*
X50238Y48313D01*
X50240Y48312D01*
X50242Y48310D01*
X50245Y48306D01*
X50257Y48305D01*
X50259Y48303D01*
X50260Y48301D01*
X50263Y48297D01*
X50265Y48296D01*
X50270Y48291D01*
X50270Y48289D01*
X50272Y48288D01*
X50274Y48287D01*
X50278Y48283D01*
X50279Y48281D01*
X50280Y48279D01*
X50282Y48279D01*
X50287Y48274D01*
X50288Y48272D01*
X50289Y48270D01*
X50291Y48269D01*
X50293Y48268D01*
X50294Y48266D01*
X50298Y48261D01*
X50310Y48260D01*
X50312Y48259D01*
X50312Y48255D01*
X50314Y48250D01*
X50316Y48247D01*
X50319Y48244D01*
X50323Y48236D01*
X50327Y48234D01*
X50331Y48230D01*
X50332Y48228D01*
X50333Y48227D01*
X50335Y48226D01*
X50339Y48222D01*
X50340Y48220D01*
X50341Y48218D01*
X50343Y48217D01*
X50348Y48212D01*
X50349Y48211D01*
X50350Y48209D01*
X50352Y48208D01*
X50356Y48204D01*
X50357Y48202D01*
X50359Y48200D01*
X50364Y48197D01*
X50365Y48193D01*
X50364Y48191D01*
X50365Y48185D01*
X50367Y48184D01*
X50368Y48183D01*
X50374Y48179D01*
X50374Y48177D01*
X50378Y48174D01*
X50379Y48173D01*
X50383Y48170D01*
X50382Y48161D01*
X50384Y48158D01*
X50386Y48156D01*
X50388Y48155D01*
X50391Y48152D01*
X50392Y48150D01*
X50395Y48147D01*
X50399Y48145D01*
X50400Y48141D01*
X50401Y48132D01*
X50402Y48131D01*
X50407Y48128D01*
X50408Y48127D01*
X50409Y48115D01*
X50410Y48114D01*
X50416Y48110D01*
X50417Y48107D01*
X50418Y48098D01*
X50420Y48095D01*
X50425Y48093D01*
X50426Y48088D01*
X50426Y48083D01*
X50427Y48079D01*
X50429Y48078D01*
X50434Y48076D01*
X50435Y48072D01*
X50436Y48062D01*
X50443Y48057D01*
X50444Y48054D01*
X50443Y48039D01*
X50445Y48035D01*
X50447Y48034D01*
X50452Y48031D01*
X50453Y48019D01*
X50456Y48016D01*
X50460Y48014D01*
X50461Y48010D01*
X50461Y47988D01*
X50462Y47984D01*
X50464Y47981D01*
X50469Y47979D01*
X50470Y47974D01*
X50469Y47960D01*
X50473Y47955D01*
X50478Y47952D01*
X50479Y47947D01*
X50478Y47941D01*
X50479Y47922D01*
X50482Y47920D01*
X50486Y47917D01*
X50488Y47916D01*
X50487Y47883D01*
X50488Y47878D01*
X50490Y47875D01*
X50494Y47871D01*
X50496Y47867D01*
X50497Y47818D01*
X50499Y47815D01*
X50501Y47814D01*
X50504Y47812D01*
X50505Y47808D01*
X50506Y47680D01*
X50508Y47677D01*
X50510Y47676D01*
X50512Y47674D01*
X50514Y47667D01*
X50514Y47656D01*
X50514Y46600D01*
Y46599D01*
X50514Y46533D01*
X50514Y46523D01*
X50511Y46519D01*
X50503Y46518D01*
X50501Y46519D01*
X50090Y46519D01*
X50087Y46520D01*
X50084Y46523D01*
X50085Y47739D01*
X50083Y47743D01*
X50081Y47744D01*
X50077Y47746D01*
X50075Y47751D01*
X50076Y47768D01*
X50075Y47771D01*
X50076Y47783D01*
X50073Y47787D01*
X50068Y47791D01*
X50067Y47792D01*
X50067Y47798D01*
X50067Y47819D01*
X50065Y47823D01*
X50059Y47826D01*
X50058Y47829D01*
X50057Y47839D01*
X50055Y47841D01*
X50050Y47844D01*
X50049Y47849D01*
X50050Y47851D01*
X50049Y47858D01*
X50042Y47864D01*
X50041Y47872D01*
X50039Y47875D01*
X50037Y47875D01*
X50033Y47878D01*
X50032Y47883D01*
X50032Y47886D01*
X50032Y47891D01*
X50029Y47893D01*
X50027Y47894D01*
X50024Y47896D01*
X50023Y47898D01*
X50020Y47902D01*
X50016Y47905D01*
X50014Y47909D01*
X50015Y47914D01*
X50014Y47917D01*
X50006Y47923D01*
X50005Y47925D01*
X50001Y47929D01*
X49999Y47930D01*
X49997Y47932D01*
X49996Y47934D01*
X49993Y47938D01*
X49991Y47938D01*
X49989Y47941D01*
X49988Y47943D01*
X49984Y47947D01*
X49982Y47948D01*
X49980Y47950D01*
X49979Y47952D01*
X49975Y47955D01*
X49974Y47956D01*
X49970Y47959D01*
X49968Y47963D01*
X49964Y47964D01*
X49959Y47964D01*
X49955Y47965D01*
X49953Y47967D01*
X49952Y47969D01*
X49948Y47973D01*
X49946Y47974D01*
X49945Y47975D01*
X49942Y47980D01*
X49941Y47981D01*
X49929Y47982D01*
X49928Y47984D01*
X49924Y47989D01*
X49919Y47990D01*
X49916Y47989D01*
X49913Y47990D01*
X49909Y47994D01*
X49907Y47998D01*
X49892Y47999D01*
X49889Y48000D01*
X49887Y48002D01*
X49886Y48004D01*
X49883Y48006D01*
X49877Y48008D01*
X49862Y48007D01*
X49858Y48009D01*
X49857Y48011D01*
X49853Y48016D01*
X49847Y48017D01*
X49844Y48016D01*
X49825Y48017D01*
X49823Y48019D01*
X49822Y48021D01*
X49819Y48024D01*
X49816Y48025D01*
X49767Y48025D01*
X49763Y48026D01*
X49762Y48027D01*
X49759Y48032D01*
X49757Y48033D01*
X49754Y48034D01*
X49736Y48033D01*
X49012Y48034D01*
X49009Y48031D01*
X49006Y48026D01*
X49005Y48018D01*
X49005Y48006D01*
X49005Y46533D01*
X49006Y46530D01*
X49005Y46523D01*
X49003Y46521D01*
X48999Y46519D01*
X48584Y46519D01*
X48581Y46520D01*
X48579Y46523D01*
X48580Y48451D01*
X48582Y48454D01*
X48588Y48455D01*
X48591Y48454D01*
D02*
G37*
G36*
X49565Y47700D02*
X49567Y47698D01*
X49568Y47696D01*
X49571Y47692D01*
X49605Y47693D01*
X49608Y47692D01*
X49610Y47691D01*
X49611Y47689D01*
X49614Y47684D01*
X49618Y47683D01*
X49633Y47684D01*
X49637Y47682D01*
X49638Y47680D01*
X49642Y47675D01*
X49643Y47674D01*
X49647Y47671D01*
X49648Y47669D01*
X49651Y47666D01*
X49662Y47665D01*
X49664Y47663D01*
X49665Y47661D01*
X49669Y47657D01*
X49671Y47656D01*
X49673Y47653D01*
X49674Y47652D01*
X49677Y47648D01*
X49679Y47647D01*
X49681Y47645D01*
X49682Y47643D01*
X49686Y47639D01*
X49688Y47638D01*
X49690Y47636D01*
X49691Y47634D01*
X49695Y47631D01*
X49696Y47630D01*
X49699Y47628D01*
X49700Y47626D01*
X49704Y47622D01*
X49705Y47621D01*
X49708Y47619D01*
X49708Y47615D01*
X49708Y47609D01*
X49712Y47605D01*
X49714Y47604D01*
X49717Y47601D01*
X49718Y47599D01*
X49720Y47596D01*
X49722Y47596D01*
X49725Y47593D01*
X49726Y47590D01*
X49725Y47575D01*
X49727Y47571D01*
X49733Y47568D01*
X49735Y47561D01*
X49734Y47552D01*
X49735Y47546D01*
X49736Y47544D01*
X49741Y47542D01*
X49743Y47539D01*
X49743Y47513D01*
X49745Y47510D01*
X49747Y47509D01*
X49751Y47507D01*
X49752Y47502D01*
X49752Y47487D01*
X49752Y47467D01*
X49752Y47283D01*
X49752Y47280D01*
X49754Y47238D01*
X49755Y47226D01*
X49754Y47223D01*
X49755Y47210D01*
X49756Y47207D01*
X49757Y47184D01*
X49758Y47181D01*
X49759Y47161D01*
X49760Y47158D01*
X49759Y47155D01*
X49760Y47124D01*
X49761Y47102D01*
Y47101D01*
X49760Y46522D01*
X49757Y46519D01*
X49751Y46518D01*
X49747Y46519D01*
X49338Y46519D01*
X49334Y46520D01*
X49332Y46522D01*
X49331Y46528D01*
X49332Y46540D01*
X49332Y47697D01*
X49334Y47700D01*
X49338Y47701D01*
X49565Y47700D01*
D02*
G37*
G36*
X47509D02*
X47510Y47699D01*
X47511Y47695D01*
X47510Y46522D01*
X47508Y46519D01*
X47501Y46518D01*
X47498Y46519D01*
X47444D01*
X47088Y46519D01*
X47084Y46520D01*
X47082Y46522D01*
X47081Y46525D01*
X47082Y47698D01*
X47085Y47701D01*
X47509Y47700D01*
D02*
G37*
G36*
X30760Y46798D02*
X30825D01*
Y46793D01*
X30844D01*
Y46788D01*
X30859D01*
Y46783D01*
X30879D01*
Y46778D01*
X30889D01*
Y46773D01*
X30909D01*
Y46768D01*
X30919D01*
Y46763D01*
X30929D01*
Y46758D01*
X30939D01*
Y46753D01*
X30949D01*
Y46749D01*
X30954D01*
Y46744D01*
X30964D01*
Y46739D01*
X30974D01*
Y46734D01*
X30979D01*
Y46729D01*
X30989D01*
Y46724D01*
X30994D01*
Y46719D01*
X30999D01*
Y46714D01*
X31009D01*
Y46709D01*
X31014D01*
Y46704D01*
X31019D01*
Y46699D01*
X31024D01*
Y46694D01*
X31028D01*
Y46689D01*
X31033D01*
Y46684D01*
X31038D01*
Y46679D01*
X31043D01*
Y46674D01*
X31048D01*
Y46669D01*
X31053D01*
Y46664D01*
X31058D01*
Y46659D01*
X31063D01*
Y46649D01*
X31068D01*
Y46644D01*
X31073D01*
Y46639D01*
X31078D01*
Y46634D01*
X31083D01*
Y46624D01*
X31088D01*
Y46619D01*
X31093D01*
Y46609D01*
X31098D01*
Y46599D01*
X31103D01*
Y46594D01*
X31108D01*
Y46584D01*
X31113D01*
Y46579D01*
X31118D01*
Y46569D01*
X31123D01*
Y46560D01*
X31128D01*
Y46550D01*
X31133D01*
Y46540D01*
X31138D01*
Y46535D01*
X31143D01*
Y46525D01*
X31148D01*
Y46515D01*
X31153D01*
Y46505D01*
X31158D01*
Y46500D01*
X31163D01*
Y46490D01*
X31168D01*
Y46480D01*
X31173D01*
Y46470D01*
X31178D01*
Y46465D01*
X31183D01*
Y46455D01*
X31188D01*
Y46445D01*
X31193D01*
Y46440D01*
X31198D01*
Y46430D01*
X31203D01*
Y46420D01*
X31207D01*
Y46410D01*
X31212D01*
Y46405D01*
X31217D01*
Y46395D01*
X31222D01*
Y46390D01*
X31227D01*
Y46376D01*
X31232D01*
Y46371D01*
X31237D01*
Y46361D01*
X31242D01*
Y46351D01*
X31247D01*
Y46346D01*
X31252D01*
Y46336D01*
X31257D01*
Y46326D01*
X31262D01*
Y46316D01*
X31267D01*
Y46311D01*
X31272D01*
Y46301D01*
X31277D01*
Y46291D01*
X31282D01*
Y46281D01*
X31287D01*
Y46276D01*
X31292D01*
Y46266D01*
X31297D01*
Y46256D01*
X31302D01*
Y46246D01*
X31307D01*
Y46241D01*
X31312D01*
Y46231D01*
X31317D01*
Y46221D01*
X31322D01*
Y46216D01*
X31327D01*
Y46206D01*
X31332D01*
Y46197D01*
X31337D01*
Y46187D01*
X31342D01*
Y46182D01*
X31347D01*
Y46172D01*
X31352D01*
Y46162D01*
X31357D01*
Y46152D01*
X31362D01*
Y46147D01*
X31367D01*
Y46137D01*
X31372D01*
Y46127D01*
X31377D01*
Y46122D01*
X31382D01*
Y46112D01*
X31387D01*
Y46102D01*
X31391D01*
Y46092D01*
X31396D01*
Y46087D01*
X31401D01*
Y46077D01*
X31406D01*
Y46067D01*
X31411D01*
Y46062D01*
X31416D01*
Y46047D01*
X31421D01*
Y46042D01*
X31426D01*
Y46032D01*
X31431D01*
Y46022D01*
X31436D01*
Y46018D01*
X31441D01*
Y46008D01*
X31446D01*
Y46003D01*
X31451D01*
Y45988D01*
X31456D01*
Y45983D01*
X31461D01*
Y45973D01*
X31466D01*
Y45963D01*
X31471D01*
Y45958D01*
X31476D01*
Y45948D01*
X31481D01*
Y45938D01*
X31486D01*
Y45928D01*
X31491D01*
Y45918D01*
X31496D01*
Y45913D01*
X31501D01*
Y45903D01*
X31506D01*
Y45898D01*
X31511D01*
Y45888D01*
X31516D01*
Y45878D01*
X31521D01*
Y45868D01*
X31526D01*
Y45858D01*
X31531D01*
Y45853D01*
X31536D01*
Y45843D01*
X31541D01*
Y45834D01*
X31546D01*
Y45829D01*
X31551D01*
Y45819D01*
X31556D01*
Y45809D01*
X31561D01*
Y45799D01*
X31566D01*
Y45794D01*
X31570D01*
Y45784D01*
X31575D01*
Y45774D01*
X31580D01*
Y45769D01*
X31585D01*
Y45759D01*
X31590D01*
Y45749D01*
X31595D01*
Y45744D01*
X31600D01*
Y45729D01*
X31605D01*
Y45724D01*
X31610D01*
Y45714D01*
X31615D01*
Y45704D01*
X31620D01*
Y45699D01*
X31625D01*
Y45689D01*
X31630D01*
Y45679D01*
X31635D01*
Y45669D01*
X31640D01*
Y45664D01*
X31645D01*
Y45650D01*
X31650D01*
Y45645D01*
X31655D01*
Y45635D01*
X31660D01*
Y45630D01*
X31665D01*
Y45620D01*
X31670D01*
Y45610D01*
X31675D01*
Y45605D01*
X31680D01*
Y45595D01*
X31685D01*
Y45585D01*
X31690D01*
Y45580D01*
X31695D01*
Y45570D01*
X31700D01*
Y45560D01*
X31705D01*
Y45550D01*
X31710D01*
Y45545D01*
X31715D01*
Y45530D01*
X31720D01*
Y45525D01*
X31725D01*
Y45515D01*
X31730D01*
Y45510D01*
X31735D01*
Y45500D01*
X31740D01*
Y45490D01*
X31745D01*
Y45485D01*
X31750D01*
Y45475D01*
X31754D01*
Y45466D01*
X31759D01*
Y45456D01*
X31764D01*
Y45446D01*
X31769D01*
Y45441D01*
X31774D01*
Y45431D01*
X31779D01*
Y45421D01*
X31784D01*
Y45411D01*
X31789D01*
Y45406D01*
X31794D01*
Y45396D01*
X31799D01*
Y45386D01*
X31804D01*
Y45376D01*
X31809D01*
Y45366D01*
X31814D01*
Y45361D01*
X31819D01*
Y45351D01*
X31824D01*
Y45341D01*
X31829D01*
Y45336D01*
X31834D01*
Y45326D01*
X31839D01*
Y45321D01*
X31844D01*
Y45311D01*
X31849D01*
Y45301D01*
X31854D01*
Y45291D01*
X31859D01*
Y45282D01*
X31864D01*
Y45277D01*
X31869D01*
Y45267D01*
X31874D01*
Y45257D01*
X31879D01*
Y45252D01*
X31884D01*
Y45242D01*
X31889D01*
Y45232D01*
X31894D01*
Y45222D01*
X31899D01*
Y45217D01*
X31904D01*
Y45207D01*
X31909D01*
Y45197D01*
X31914D01*
Y45192D01*
X31919D01*
Y45177D01*
X31924D01*
Y45172D01*
X31929D01*
Y45162D01*
X31934D01*
Y45152D01*
X31938D01*
Y45147D01*
X31943D01*
Y45137D01*
X31948D01*
Y45127D01*
X31953D01*
Y45117D01*
X31958D01*
Y45112D01*
X31963D01*
Y45103D01*
X31968D01*
Y45093D01*
X31973D01*
Y45088D01*
X31978D01*
Y45078D01*
X31983D01*
Y45068D01*
X31988D01*
Y45063D01*
X31993D01*
Y45053D01*
X31998D01*
Y45043D01*
X32003D01*
Y45033D01*
X32008D01*
Y45028D01*
X32013D01*
Y45018D01*
X32018D01*
Y45008D01*
X32023D01*
Y44998D01*
X32028D01*
Y44988D01*
X32033D01*
Y44983D01*
X32038D01*
Y44973D01*
X32043D01*
Y44963D01*
X32048D01*
Y44958D01*
X32053D01*
Y44948D01*
X32058D01*
Y44938D01*
X32063D01*
Y44928D01*
X32068D01*
Y44924D01*
X32073D01*
Y44914D01*
X32078D01*
Y44904D01*
X32083D01*
Y44899D01*
X32088D01*
Y44889D01*
X32093D01*
Y44879D01*
X32098D01*
Y44869D01*
X32103D01*
Y44864D01*
X32108D01*
Y44854D01*
X32113D01*
Y44849D01*
X32118D01*
Y44839D01*
X32122D01*
Y44829D01*
X32127D01*
Y44819D01*
X32132D01*
Y44809D01*
X32137D01*
Y44804D01*
X32142D01*
Y44794D01*
X32147D01*
Y44784D01*
X32152D01*
Y44774D01*
X32157D01*
Y44764D01*
X32162D01*
Y44759D01*
X32167D01*
Y44749D01*
X32172D01*
Y44740D01*
X32177D01*
Y44735D01*
X32182D01*
Y44725D01*
X32187D01*
Y44715D01*
X32192D01*
Y44705D01*
X32197D01*
Y44700D01*
X32202D01*
Y44690D01*
X32207D01*
Y44680D01*
X32212D01*
Y44675D01*
X32217D01*
Y44660D01*
X32222D01*
Y44655D01*
X32227D01*
Y44650D01*
X32232D01*
Y44635D01*
X32237D01*
Y44630D01*
X32242D01*
Y44620D01*
X32247D01*
Y44615D01*
X32252D01*
Y44605D01*
X32257D01*
Y44595D01*
X32262D01*
Y44585D01*
X32267D01*
Y44575D01*
X32272D01*
Y44570D01*
X32277D01*
Y44560D01*
X32282D01*
Y44556D01*
X32287D01*
Y44541D01*
X32292D01*
Y44536D01*
X32297D01*
Y44526D01*
X32301D01*
Y44516D01*
X32306D01*
Y44511D01*
X32311D01*
Y44501D01*
X32316D01*
Y44491D01*
X32321D01*
Y44486D01*
X32326D01*
Y44476D01*
X32331D01*
Y44466D01*
X32336D01*
Y44456D01*
X32341D01*
Y44451D01*
X32346D01*
Y44441D01*
X32351D01*
Y44431D01*
X32356D01*
Y44421D01*
X32361D01*
Y44411D01*
X32366D01*
Y44406D01*
X32371D01*
Y44396D01*
X32376D01*
Y44386D01*
X32381D01*
Y44381D01*
X32386D01*
Y44372D01*
X32391D01*
Y44362D01*
X32396D01*
Y44352D01*
X32401D01*
Y44347D01*
X32406D01*
Y44337D01*
X32411D01*
Y44327D01*
X32416D01*
Y44322D01*
X32421D01*
Y44312D01*
X32426D01*
Y44302D01*
X32431D01*
Y44292D01*
X32436D01*
Y44287D01*
X32441D01*
Y44277D01*
X32446D01*
Y44267D01*
X32451D01*
Y44257D01*
X32456D01*
Y44252D01*
X32461D01*
Y44242D01*
X32466D01*
Y44232D01*
X32471D01*
Y44222D01*
X32476D01*
Y44217D01*
X32481D01*
Y44207D01*
X32485D01*
Y44197D01*
X32490D01*
Y44188D01*
X32495D01*
Y44183D01*
X32500D01*
Y44173D01*
X32505D01*
Y44163D01*
X32510D01*
Y44158D01*
X32515D01*
Y44143D01*
X32520D01*
Y44138D01*
X32525D01*
Y44128D01*
X32530D01*
Y44123D01*
X32535D01*
Y44113D01*
X32540D01*
Y44103D01*
X32545D01*
Y44098D01*
X32550D01*
Y44088D01*
X32555D01*
Y44078D01*
X32560D01*
Y44068D01*
X32565D01*
Y44058D01*
X32570D01*
Y44053D01*
X32575D01*
Y44043D01*
X32580D01*
Y44033D01*
X32585D01*
Y44023D01*
X32590D01*
Y44018D01*
X32595D01*
Y44009D01*
X32600D01*
Y44004D01*
X32605D01*
Y43994D01*
X32610D01*
Y43984D01*
X32615D01*
Y43974D01*
X32620D01*
Y43964D01*
X32625D01*
Y43959D01*
X32630D01*
Y43949D01*
X32635D01*
Y43939D01*
X32640D01*
Y43929D01*
X32645D01*
Y43924D01*
X32650D01*
Y43914D01*
X32655D01*
Y43909D01*
X32660D01*
Y43899D01*
X32665D01*
Y43889D01*
X32669D01*
Y43879D01*
X32674D01*
Y43869D01*
X32679D01*
Y43864D01*
X32684D01*
Y43854D01*
X32689D01*
Y43844D01*
X32694D01*
Y43834D01*
X32699D01*
Y43829D01*
X32704D01*
Y43820D01*
X32709D01*
Y43810D01*
X32714D01*
Y43800D01*
X32719D01*
Y43795D01*
X32724D01*
Y43785D01*
X32729D01*
Y43775D01*
X32734D01*
Y43770D01*
X32739D01*
Y43760D01*
X32744D01*
Y43750D01*
X32749D01*
Y43745D01*
X32754D01*
Y43735D01*
X32759D01*
Y43725D01*
X32764D01*
Y43715D01*
X32769D01*
Y43710D01*
X32774D01*
Y43700D01*
X32779D01*
Y43690D01*
X32784D01*
Y43685D01*
X32789D01*
Y43670D01*
X32794D01*
Y43665D01*
X32799D01*
Y43655D01*
X32804D01*
Y43646D01*
X32809D01*
Y43641D01*
X32814D01*
Y43631D01*
X32819D01*
Y43626D01*
X32824D01*
Y43616D01*
X32829D01*
Y43606D01*
X32834D01*
Y43596D01*
X32839D01*
Y43586D01*
X32844D01*
Y43581D01*
X32848D01*
Y43571D01*
X32853D01*
Y43561D01*
X32858D01*
Y43551D01*
X32863D01*
Y43546D01*
X32868D01*
Y43536D01*
X32873D01*
Y43526D01*
X32878D01*
Y43521D01*
X32883D01*
Y43511D01*
X32888D01*
Y43501D01*
X32893D01*
Y43491D01*
X32898D01*
Y43481D01*
X32903D01*
Y43476D01*
X32908D01*
Y43466D01*
X32913D01*
Y43457D01*
X32918D01*
Y43452D01*
X32923D01*
Y43442D01*
X32928D01*
Y43432D01*
X32933D01*
Y43422D01*
X32938D01*
Y43417D01*
X32943D01*
Y43407D01*
X32948D01*
Y43402D01*
X32953D01*
Y43392D01*
X32958D01*
Y43382D01*
X32963D01*
Y43372D01*
X32968D01*
Y43362D01*
X32973D01*
Y43352D01*
X32978D01*
Y43347D01*
X32983D01*
Y43337D01*
X32988D01*
Y43332D01*
X32993D01*
Y43317D01*
X32998D01*
Y43312D01*
X33003D01*
Y43302D01*
X33008D01*
Y43297D01*
X33013D01*
Y43287D01*
X33018D01*
Y43278D01*
X33023D01*
Y43273D01*
X33028D01*
Y43263D01*
X33032D01*
Y43253D01*
X33037D01*
Y43243D01*
X33042D01*
Y43233D01*
X33047D01*
Y43228D01*
X33052D01*
Y43218D01*
X33057D01*
Y43208D01*
X33062D01*
Y43198D01*
X33067D01*
Y43193D01*
X33072D01*
Y43183D01*
X33077D01*
Y43173D01*
X33082D01*
Y43168D01*
X33087D01*
Y43158D01*
X33092D01*
Y43148D01*
X33097D01*
Y43138D01*
X33102D01*
Y43128D01*
X33107D01*
Y43123D01*
X33112D01*
Y43113D01*
X33117D01*
Y43103D01*
X33122D01*
Y43098D01*
X33127D01*
Y43089D01*
X33132D01*
Y43079D01*
X33137D01*
Y43069D01*
X33142D01*
Y43064D01*
X33147D01*
Y43054D01*
X33152D01*
Y43044D01*
X33157D01*
Y43034D01*
X33162D01*
Y43024D01*
X33167D01*
Y43014D01*
X33172D01*
Y42999D01*
X33177D01*
Y42989D01*
X33182D01*
Y42974D01*
X33187D01*
Y42959D01*
X33192D01*
Y42934D01*
X33197D01*
Y42905D01*
X33202D01*
Y42800D01*
X33197D01*
Y42765D01*
X33192D01*
Y42745D01*
X33187D01*
Y42731D01*
X33182D01*
Y42716D01*
X33177D01*
Y42706D01*
X33172D01*
Y42691D01*
X33167D01*
Y42676D01*
X33162D01*
Y42666D01*
X33157D01*
Y42656D01*
X33152D01*
Y42651D01*
X33147D01*
Y42641D01*
X33142D01*
Y42631D01*
X33137D01*
Y42626D01*
X33132D01*
Y42616D01*
X33127D01*
Y42611D01*
X33122D01*
Y42606D01*
X33117D01*
Y42596D01*
X33112D01*
Y42591D01*
X33107D01*
Y42586D01*
X33102D01*
Y42581D01*
X33097D01*
Y42571D01*
X33092D01*
Y42566D01*
X33082D01*
Y42561D01*
X33077D01*
Y42556D01*
X33072D01*
Y42551D01*
X33067D01*
Y42547D01*
X33062D01*
Y42542D01*
X33057D01*
Y42537D01*
X33052D01*
Y42532D01*
X33042D01*
Y42527D01*
X33037D01*
Y42522D01*
X33032D01*
Y42517D01*
X33023D01*
Y42512D01*
X33018D01*
Y42507D01*
X33008D01*
Y42502D01*
X33003D01*
Y42497D01*
X32993D01*
Y42492D01*
X32983D01*
Y42487D01*
X32973D01*
Y42482D01*
X32963D01*
Y42477D01*
X32948D01*
Y42472D01*
X32938D01*
Y42467D01*
X32923D01*
Y42462D01*
X32913D01*
Y42457D01*
X32888D01*
Y42452D01*
X32863D01*
Y42447D01*
X32829D01*
Y42442D01*
X28676D01*
Y42447D01*
X28632D01*
Y42452D01*
X28617D01*
Y42457D01*
X28587D01*
Y42462D01*
X28577D01*
Y42467D01*
X28562D01*
Y42472D01*
X28552D01*
Y42477D01*
X28537D01*
Y42482D01*
X28527D01*
Y42487D01*
X28517D01*
Y42492D01*
X28507D01*
Y42497D01*
X28497D01*
Y42502D01*
X28487D01*
Y42507D01*
X28482D01*
Y42512D01*
X28477D01*
Y42517D01*
X28468D01*
Y42522D01*
X28463D01*
Y42527D01*
X28453D01*
Y42532D01*
X28448D01*
Y42537D01*
X28443D01*
Y42542D01*
X28433D01*
Y42551D01*
X28428D01*
Y42556D01*
X28423D01*
Y42561D01*
X28418D01*
Y42566D01*
X28413D01*
Y42571D01*
X28403D01*
Y42581D01*
X28398D01*
Y42586D01*
X28393D01*
Y42591D01*
X28388D01*
Y42596D01*
X28383D01*
Y42606D01*
X28378D01*
Y42611D01*
X28373D01*
Y42616D01*
X28368D01*
Y42626D01*
X28363D01*
Y42631D01*
X28358D01*
Y42641D01*
X28353D01*
Y42651D01*
X28348D01*
Y42656D01*
X28343D01*
Y42666D01*
X28338D01*
Y42681D01*
X28333D01*
Y42691D01*
X28328D01*
Y42706D01*
X28323D01*
Y42716D01*
X28318D01*
Y42731D01*
X28313D01*
Y42745D01*
X28308D01*
Y42765D01*
X28303D01*
Y42800D01*
X28298D01*
Y42840D01*
X28293D01*
Y42865D01*
X28298D01*
Y42905D01*
X28303D01*
Y42934D01*
X28308D01*
Y42959D01*
X28313D01*
Y42974D01*
X28318D01*
Y42994D01*
X28323D01*
Y42999D01*
X28328D01*
Y43014D01*
X28333D01*
Y43024D01*
X28338D01*
Y43034D01*
X28343D01*
Y43049D01*
X28348D01*
Y43054D01*
X28353D01*
Y43064D01*
X28358D01*
Y43069D01*
X28363D01*
Y43079D01*
X28368D01*
Y43089D01*
X28373D01*
Y43098D01*
X28378D01*
Y43103D01*
X28383D01*
Y43113D01*
X28388D01*
Y43123D01*
X28393D01*
Y43133D01*
X28398D01*
Y43138D01*
X28403D01*
Y43148D01*
X28408D01*
Y43158D01*
X28413D01*
Y43163D01*
X28418D01*
Y43173D01*
X28423D01*
Y43183D01*
X28428D01*
Y43193D01*
X28433D01*
Y43198D01*
X28438D01*
Y43208D01*
X28443D01*
Y43218D01*
X28448D01*
Y43223D01*
X28453D01*
Y43238D01*
X28458D01*
Y43243D01*
X28463D01*
Y43253D01*
X28468D01*
Y43258D01*
X28472D01*
Y43268D01*
X28477D01*
Y43278D01*
X28482D01*
Y43287D01*
X28487D01*
Y43297D01*
X28492D01*
Y43302D01*
X28497D01*
Y43312D01*
X28502D01*
Y43322D01*
X28507D01*
Y43332D01*
X28512D01*
Y43337D01*
X28517D01*
Y43347D01*
X28522D01*
Y43357D01*
X28527D01*
Y43362D01*
X28532D01*
Y43372D01*
X28537D01*
Y43382D01*
X28542D01*
Y43387D01*
X28547D01*
Y43397D01*
X28552D01*
Y43407D01*
X28557D01*
Y43417D01*
X28562D01*
Y43422D01*
X28567D01*
Y43437D01*
X28572D01*
Y43442D01*
X28577D01*
Y43447D01*
X28582D01*
Y43457D01*
X28587D01*
Y43466D01*
X28592D01*
Y43476D01*
X28597D01*
Y43481D01*
X28602D01*
Y43491D01*
X28607D01*
Y43501D01*
X28612D01*
Y43506D01*
X28617D01*
Y43521D01*
X28622D01*
Y43526D01*
X28627D01*
Y43536D01*
X28632D01*
Y43546D01*
X28637D01*
Y43551D01*
X28642D01*
Y43561D01*
X28647D01*
Y43571D01*
X28652D01*
Y43581D01*
X28656D01*
Y43586D01*
X28661D01*
Y43596D01*
X28666D01*
Y43606D01*
X28671D01*
Y43611D01*
X28676D01*
Y43626D01*
X28681D01*
Y43631D01*
X28686D01*
Y43641D01*
X28691D01*
Y43646D01*
X28696D01*
Y43655D01*
X28701D01*
Y43665D01*
X28706D01*
Y43675D01*
X28711D01*
Y43680D01*
X28716D01*
Y43690D01*
X28721D01*
Y43700D01*
X28726D01*
Y43710D01*
X28731D01*
Y43715D01*
X28736D01*
Y43725D01*
X28741D01*
Y43735D01*
X28746D01*
Y43745D01*
X28751D01*
Y43750D01*
X28756D01*
Y43760D01*
X28761D01*
Y43770D01*
X28766D01*
Y43775D01*
X28771D01*
Y43785D01*
X28776D01*
Y43795D01*
X28781D01*
Y43805D01*
X28786D01*
Y43815D01*
X28791D01*
Y43820D01*
X28796D01*
Y43829D01*
X28801D01*
Y43834D01*
X28806D01*
Y43849D01*
X28811D01*
Y43854D01*
X28816D01*
Y43864D01*
X28821D01*
Y43869D01*
X28826D01*
Y43879D01*
X28831D01*
Y43889D01*
X28835D01*
Y43894D01*
X28840D01*
Y43904D01*
X28845D01*
Y43914D01*
X28850D01*
Y43924D01*
X28855D01*
Y43934D01*
X28860D01*
Y43939D01*
X28865D01*
Y43949D01*
X28870D01*
Y43959D01*
X28875D01*
Y43969D01*
X28880D01*
Y43974D01*
X28885D01*
Y43984D01*
X28890D01*
Y43994D01*
X28895D01*
Y43999D01*
X28900D01*
Y44009D01*
X28905D01*
Y44018D01*
X28910D01*
Y44028D01*
X28915D01*
Y44033D01*
X28920D01*
Y44043D01*
X28925D01*
Y44053D01*
X28930D01*
Y44058D01*
X28935D01*
Y44068D01*
X28940D01*
Y44078D01*
X28945D01*
Y44088D01*
X28950D01*
Y44098D01*
X28955D01*
Y44103D01*
X28960D01*
Y44113D01*
X28965D01*
Y44118D01*
X28970D01*
Y44128D01*
X28975D01*
Y44138D01*
X28980D01*
Y44148D01*
X28985D01*
Y44158D01*
X28990D01*
Y44168D01*
X28995D01*
Y44173D01*
X29000D01*
Y44183D01*
X29005D01*
Y44193D01*
X29010D01*
Y44197D01*
X29015D01*
Y44207D01*
X29019D01*
Y44217D01*
X29024D01*
Y44222D01*
X29029D01*
Y44232D01*
X29034D01*
Y44242D01*
X29039D01*
Y44247D01*
X29044D01*
Y44262D01*
X29049D01*
Y44267D01*
X29054D01*
Y44277D01*
X29059D01*
Y44282D01*
X29064D01*
Y44292D01*
X29069D01*
Y44302D01*
X29074D01*
Y44307D01*
X29079D01*
Y44317D01*
X29084D01*
Y44327D01*
X29089D01*
Y44337D01*
X29094D01*
Y44347D01*
X29099D01*
Y44352D01*
X29104D01*
Y44362D01*
X29109D01*
Y44372D01*
X29114D01*
Y44381D01*
X29119D01*
Y44391D01*
X29124D01*
Y44396D01*
X29129D01*
Y44406D01*
X29134D01*
Y44411D01*
X29139D01*
Y44426D01*
X29144D01*
Y44436D01*
X29149D01*
Y44441D01*
X29154D01*
Y44451D01*
X29159D01*
Y44456D01*
X29164D01*
Y44466D01*
X29169D01*
Y44476D01*
X29174D01*
Y44486D01*
X29179D01*
Y44491D01*
X29184D01*
Y44501D01*
X29189D01*
Y44511D01*
X29194D01*
Y44516D01*
X29198D01*
Y44526D01*
X29203D01*
Y44536D01*
X29208D01*
Y44541D01*
X29213D01*
Y44551D01*
X29218D01*
Y44560D01*
X29223D01*
Y44570D01*
X29228D01*
Y44575D01*
X29233D01*
Y44585D01*
X29238D01*
Y44595D01*
X29243D01*
Y44600D01*
X29248D01*
Y44610D01*
X29253D01*
Y44620D01*
X29258D01*
Y44630D01*
X29263D01*
Y44635D01*
X29268D01*
Y44645D01*
X29273D01*
Y44655D01*
X29278D01*
Y44660D01*
X29283D01*
Y44675D01*
X29288D01*
Y44680D01*
X29293D01*
Y44690D01*
X29298D01*
Y44700D01*
X29303D01*
Y44705D01*
X29308D01*
Y44715D01*
X29313D01*
Y44725D01*
X29318D01*
Y44735D01*
X29323D01*
Y44744D01*
X29328D01*
Y44749D01*
X29333D01*
Y44759D01*
X29338D01*
Y44769D01*
X29343D01*
Y44779D01*
X29348D01*
Y44784D01*
X29353D01*
Y44794D01*
X29358D01*
Y44804D01*
X29363D01*
Y44809D01*
X29368D01*
Y44819D01*
X29373D01*
Y44829D01*
X29378D01*
Y44839D01*
X29382D01*
Y44844D01*
X29387D01*
Y44854D01*
X29392D01*
Y44864D01*
X29397D01*
Y44869D01*
X29402D01*
Y44879D01*
X29407D01*
Y44884D01*
X29412D01*
Y44899D01*
X29417D01*
Y44904D01*
X29422D01*
Y44914D01*
X29427D01*
Y44924D01*
X29432D01*
Y44933D01*
X29437D01*
Y44943D01*
X29442D01*
Y44948D01*
X29447D01*
Y44958D01*
X29452D01*
Y44963D01*
X29457D01*
Y44973D01*
X29462D01*
Y44983D01*
X29467D01*
Y44993D01*
X29472D01*
Y45003D01*
X29477D01*
Y45008D01*
X29482D01*
Y45018D01*
X29487D01*
Y45028D01*
X29492D01*
Y45033D01*
X29497D01*
Y45043D01*
X29502D01*
Y45053D01*
X29507D01*
Y45058D01*
X29512D01*
Y45068D01*
X29517D01*
Y45078D01*
X29522D01*
Y45088D01*
X29527D01*
Y45093D01*
X29532D01*
Y45103D01*
X29537D01*
Y45112D01*
X29542D01*
Y45117D01*
X29547D01*
Y45127D01*
X29552D01*
Y45137D01*
X29557D01*
Y45147D01*
X29562D01*
Y45152D01*
X29566D01*
Y45162D01*
X29571D01*
Y45172D01*
X29576D01*
Y45177D01*
X29581D01*
Y45187D01*
X29586D01*
Y45197D01*
X29591D01*
Y45207D01*
X29596D01*
Y45217D01*
X29601D01*
Y45222D01*
X29606D01*
Y45232D01*
X29611D01*
Y45242D01*
X29616D01*
Y45252D01*
X29621D01*
Y45257D01*
X29626D01*
Y45267D01*
X29631D01*
Y45277D01*
X29636D01*
Y45287D01*
X29641D01*
Y45296D01*
X29646D01*
Y45301D01*
X29651D01*
Y45311D01*
X29656D01*
Y45321D01*
X29661D01*
Y45326D01*
X29666D01*
Y45336D01*
X29671D01*
Y45341D01*
X29676D01*
Y45351D01*
X29681D01*
Y45361D01*
X29686D01*
Y45371D01*
X29691D01*
Y45376D01*
X29696D01*
Y45386D01*
X29701D01*
Y45396D01*
X29706D01*
Y45406D01*
X29711D01*
Y45411D01*
X29716D01*
Y45421D01*
X29721D01*
Y45431D01*
X29726D01*
Y45441D01*
X29731D01*
Y45446D01*
X29736D01*
Y45456D01*
X29741D01*
Y45466D01*
X29746D01*
Y45475D01*
X29750D01*
Y45480D01*
X29755D01*
Y45490D01*
X29760D01*
Y45500D01*
X29765D01*
Y45505D01*
X29770D01*
Y45515D01*
X29775D01*
Y45530D01*
X29780D01*
Y45535D01*
X29785D01*
Y45545D01*
X29790D01*
Y45550D01*
X29795D01*
Y45560D01*
X29800D01*
Y45570D01*
X29805D01*
Y45580D01*
X29810D01*
Y45590D01*
X29815D01*
Y45595D01*
X29820D01*
Y45605D01*
X29825D01*
Y45610D01*
X29830D01*
Y45620D01*
X29835D01*
Y45630D01*
X29840D01*
Y45635D01*
X29845D01*
Y45645D01*
X29850D01*
Y45654D01*
X29855D01*
Y45664D01*
X29860D01*
Y45669D01*
X29865D01*
Y45679D01*
X29870D01*
Y45689D01*
X29875D01*
Y45699D01*
X29880D01*
Y45704D01*
X29885D01*
Y45719D01*
X29890D01*
Y45724D01*
X29895D01*
Y45734D01*
X29900D01*
Y45739D01*
X29905D01*
Y45749D01*
X29910D01*
Y45759D01*
X29915D01*
Y45769D01*
X29920D01*
Y45774D01*
X29925D01*
Y45784D01*
X29930D01*
Y45794D01*
X29934D01*
Y45799D01*
X29939D01*
Y45809D01*
X29944D01*
Y45819D01*
X29949D01*
Y45829D01*
X29954D01*
Y45834D01*
X29959D01*
Y45843D01*
X29964D01*
Y45853D01*
X29969D01*
Y45863D01*
X29974D01*
Y45868D01*
X29979D01*
Y45878D01*
X29984D01*
Y45888D01*
X29989D01*
Y45898D01*
X29994D01*
Y45903D01*
X29999D01*
Y45913D01*
X30004D01*
Y45923D01*
X30009D01*
Y45928D01*
X30014D01*
Y45938D01*
X30019D01*
Y45948D01*
X30024D01*
Y45958D01*
X30029D01*
Y45963D01*
X30034D01*
Y45973D01*
X30039D01*
Y45983D01*
X30044D01*
Y45988D01*
X30049D01*
Y45998D01*
X30054D01*
Y46008D01*
X30059D01*
Y46018D01*
X30064D01*
Y46027D01*
X30069D01*
Y46032D01*
X30074D01*
Y46042D01*
X30079D01*
Y46052D01*
X30084D01*
Y46062D01*
X30089D01*
Y46067D01*
X30094D01*
Y46082D01*
X30099D01*
Y46087D01*
X30104D01*
Y46092D01*
X30109D01*
Y46107D01*
X30113D01*
Y46112D01*
X30118D01*
Y46122D01*
X30123D01*
Y46127D01*
X30128D01*
Y46137D01*
X30133D01*
Y46147D01*
X30138D01*
Y46152D01*
X30143D01*
Y46162D01*
X30148D01*
Y46172D01*
X30153D01*
Y46182D01*
X30158D01*
Y46187D01*
X30163D01*
Y46197D01*
X30168D01*
Y46206D01*
X30173D01*
Y46216D01*
X30178D01*
Y46226D01*
X30183D01*
Y46231D01*
X30188D01*
Y46241D01*
X30193D01*
Y46251D01*
X30198D01*
Y46256D01*
X30203D01*
Y46266D01*
X30208D01*
Y46271D01*
X30213D01*
Y46286D01*
X30218D01*
Y46291D01*
X30223D01*
Y46301D01*
X30228D01*
Y46311D01*
X30233D01*
Y46316D01*
X30238D01*
Y46326D01*
X30243D01*
Y46336D01*
X30248D01*
Y46346D01*
X30253D01*
Y46351D01*
X30258D01*
Y46361D01*
X30263D01*
Y46371D01*
X30268D01*
Y46376D01*
X30273D01*
Y46385D01*
X30278D01*
Y46395D01*
X30283D01*
Y46405D01*
X30288D01*
Y46415D01*
X30293D01*
Y46420D01*
X30297D01*
Y46430D01*
X30302D01*
Y46440D01*
X30307D01*
Y46450D01*
X30312D01*
Y46455D01*
X30317D01*
Y46465D01*
X30322D01*
Y46475D01*
X30327D01*
Y46480D01*
X30332D01*
Y46490D01*
X30337D01*
Y46500D01*
X30342D01*
Y46505D01*
X30347D01*
Y46515D01*
X30352D01*
Y46525D01*
X30357D01*
Y46535D01*
X30362D01*
Y46540D01*
X30367D01*
Y46550D01*
X30372D01*
Y46560D01*
X30377D01*
Y46565D01*
X30382D01*
Y46579D01*
X30387D01*
Y46584D01*
X30392D01*
Y46594D01*
X30397D01*
Y46599D01*
X30402D01*
Y46609D01*
X30407D01*
Y46619D01*
X30412D01*
Y46624D01*
X30417D01*
Y46634D01*
X30422D01*
Y46639D01*
X30427D01*
Y46644D01*
X30432D01*
Y46654D01*
X30437D01*
Y46659D01*
X30442D01*
Y46664D01*
X30447D01*
Y46669D01*
X30452D01*
Y46674D01*
X30457D01*
Y46679D01*
X30462D01*
Y46684D01*
X30467D01*
Y46689D01*
X30472D01*
Y46694D01*
X30476D01*
Y46699D01*
X30481D01*
Y46704D01*
X30486D01*
Y46709D01*
X30496D01*
Y46714D01*
X30501D01*
Y46719D01*
X30506D01*
Y46724D01*
X30516D01*
Y46729D01*
X30521D01*
Y46734D01*
X30526D01*
Y46739D01*
X30536D01*
Y46744D01*
X30541D01*
Y46749D01*
X30556D01*
Y46753D01*
X30561D01*
Y46758D01*
X30571D01*
Y46763D01*
X30586D01*
Y46768D01*
X30596D01*
Y46773D01*
X30606D01*
Y46778D01*
X30621D01*
Y46783D01*
X30636D01*
Y46788D01*
X30656D01*
Y46793D01*
X30675D01*
Y46798D01*
X30735D01*
Y46803D01*
X30760D01*
Y46798D01*
D02*
G37*
G36*
X13771Y42135D02*
X13218Y43091D01*
X14323Y43092D01*
X13771Y42135D01*
D02*
G37*
G36*
X17264Y40895D02*
X16161D01*
X16716Y41852D01*
X17264Y40895D01*
D02*
G37*
G36*
X13923Y44335D02*
X16501Y44335D01*
X13823Y39694D01*
X13218Y40721D01*
X13212Y40732D01*
X13208Y40739D01*
X13205Y40747D01*
X13202Y40755D01*
X13199Y40765D01*
X13197Y40772D01*
X13197Y40777D01*
X13196Y40783D01*
X13197Y40792D01*
X13198Y40798D01*
X13201Y40807D01*
X13204Y40815D01*
X13208Y40823D01*
X13210Y40828D01*
X14609Y43257D01*
X13213Y43256D01*
X13801Y44262D01*
X13815Y44284D01*
X13826Y44296D01*
X13840Y44307D01*
X13855Y44318D01*
X13875Y44326D01*
X13892Y44331D01*
X13911Y44335D01*
X13923Y44335D01*
D02*
G37*
G36*
X16668Y44275D02*
X16683Y44263D01*
X16695Y44251D01*
X16705Y44239D01*
X16719Y44221D01*
X16731Y44200D01*
X17240Y43325D01*
X17248Y43308D01*
X17255Y43294D01*
X17260Y43283D01*
X17267Y43263D01*
X17270Y43250D01*
X17273Y43233D01*
X17275Y43223D01*
X17276Y43211D01*
X17275Y43195D01*
X17274Y43181D01*
X17271Y43166D01*
X17266Y43146D01*
X17261Y43133D01*
X17252Y43113D01*
X17242Y43092D01*
X15875Y40730D01*
X17268D01*
X17262Y40711D01*
X17253Y40692D01*
X17248Y40680D01*
X16729Y39784D01*
X16720Y39769D01*
X16704Y39747D01*
X16688Y39729D01*
X16655Y39701D01*
X16628Y39683D01*
X16596Y39668D01*
X16569Y39660D01*
X16545Y39655D01*
X16524Y39652D01*
X16503Y39652D01*
X13988D01*
X16661Y44281D01*
X16668Y44275D01*
D02*
G37*
%LPC*%
G36*
X10129Y44127D02*
X10105Y44126D01*
X10088Y44125D01*
X10071Y44124D01*
X10046Y44122D01*
X10030Y44119D01*
X10012Y44116D01*
X9986Y44111D01*
X9959Y44104D01*
X9920Y44092D01*
X9889Y44079D01*
X9866Y44069D01*
X9855Y44063D01*
X9829Y44049D01*
X9801Y44031D01*
X9783Y44019D01*
X9763Y44003D01*
X9733Y43974D01*
X9709Y43950D01*
X9685Y43921D01*
X9665Y43890D01*
X9642Y43848D01*
X9627Y43817D01*
X9617Y43790D01*
X9609Y43765D01*
X9600Y43732D01*
X9594Y43701D01*
X9590Y43672D01*
X9587Y43644D01*
X9586Y43602D01*
X9586Y43585D01*
X9587Y43560D01*
X9593Y43507D01*
X9597Y43488D01*
X9603Y43459D01*
X9613Y43427D01*
X9625Y43392D01*
X9631Y43379D01*
X9645Y43349D01*
X9654Y43332D01*
X9667Y43310D01*
X9690Y43277D01*
X9714Y43249D01*
X9739Y43223D01*
X9761Y43203D01*
X9781Y43187D01*
X9797Y43175D01*
X9825Y43157D01*
X9838Y43149D01*
X9861Y43137D01*
X9882Y43127D01*
X9912Y43115D01*
X9940Y43105D01*
X9959Y43100D01*
X9985Y43093D01*
X10003Y43090D01*
X10020Y43086D01*
X10045Y43083D01*
X10061Y43081D01*
X10086Y43079D01*
X10102Y43078D01*
X10125Y43078D01*
X10138Y43078D01*
X10161Y43078D01*
X10177Y43079D01*
X10193Y43081D01*
X10210Y43082D01*
X10234Y43086D01*
X10251Y43089D01*
X10286Y43096D01*
X10308Y43102D01*
X10331Y43110D01*
X10350Y43117D01*
X10370Y43124D01*
X10401Y43139D01*
X10425Y43152D01*
X10452Y43169D01*
X10466Y43179D01*
X10483Y43191D01*
X10504Y43209D01*
X10530Y43233D01*
X10552Y43255D01*
X10573Y43283D01*
X10601Y43327D01*
X10611Y43345D01*
X10626Y43376D01*
X10637Y43402D01*
X10646Y43427D01*
X10652Y43448D01*
X10657Y43469D01*
X10662Y43489D01*
X10666Y43517D01*
X10669Y43544D01*
X10671Y43570D01*
X10672Y43591D01*
X10672Y43612D01*
X10671Y43639D01*
X10669Y43666D01*
X10666Y43686D01*
X10663Y43705D01*
X10659Y43725D01*
X10654Y43747D01*
X10648Y43769D01*
X10640Y43794D01*
X10629Y43821D01*
X10622Y43836D01*
X10614Y43853D01*
X10604Y43872D01*
X10589Y43896D01*
X10569Y43925D01*
X10553Y43944D01*
X10533Y43968D01*
X10500Y43998D01*
X10478Y44016D01*
X10445Y44039D01*
X10418Y44056D01*
X10394Y44068D01*
X10371Y44079D01*
X10350Y44087D01*
X10320Y44098D01*
X10292Y44106D01*
X10264Y44113D01*
X10238Y44118D01*
X10220Y44121D01*
X10195Y44123D01*
X10170Y44125D01*
X10129Y44127D01*
D02*
G37*
G36*
X8584Y42828D02*
X8559Y42827D01*
X8537Y42823D01*
X8517Y42818D01*
X8506Y42814D01*
X8494Y42809D01*
X8476Y42800D01*
X8466Y42793D01*
X8441Y42772D01*
X8432Y42763D01*
X8415Y42740D01*
X8407Y42725D01*
X8401Y42714D01*
X8396Y42699D01*
X8392Y42686D01*
X8389Y42671D01*
X8387Y42653D01*
X8386Y42639D01*
X8387Y42619D01*
X8389Y42599D01*
X8392Y42581D01*
X8396Y42569D01*
X8401Y42556D01*
X8411Y42534D01*
X8425Y42514D01*
X8433Y42503D01*
X8451Y42486D01*
X8464Y42476D01*
X8475Y42469D01*
X8488Y42462D01*
X8499Y42457D01*
X8510Y42452D01*
X8537Y42445D01*
X8559Y42442D01*
X8577Y42440D01*
X8593Y42440D01*
X8608Y42441D01*
X8626Y42443D01*
X8642Y42446D01*
X8658Y42451D01*
X8672Y42456D01*
X8684Y42461D01*
X8706Y42474D01*
X8718Y42482D01*
X8741Y42503D01*
X8752Y42517D01*
X8761Y42532D01*
X8768Y42545D01*
X8775Y42560D01*
X8779Y42573D01*
X8783Y42589D01*
X8787Y42612D01*
X8788Y42625D01*
X8788Y42638D01*
X8787Y42651D01*
X8785Y42672D01*
X8779Y42696D01*
X8774Y42710D01*
X8766Y42727D01*
X8757Y42743D01*
X8743Y42761D01*
X8724Y42781D01*
X8710Y42792D01*
X8689Y42805D01*
X8669Y42814D01*
X8647Y42821D01*
X8627Y42825D01*
X8599Y42828D01*
X8584Y42828D01*
D02*
G37*
G36*
X10667Y42132D02*
X10227D01*
Y41877D01*
X10227Y41854D01*
X10228Y41833D01*
X10231Y41811D01*
X10234Y41794D01*
X10239Y41773D01*
X10245Y41753D01*
X10257Y41725D01*
X10266Y41710D01*
X10275Y41697D01*
X10289Y41681D01*
X10315Y41659D01*
X10336Y41646D01*
X10365Y41635D01*
X10400Y41627D01*
X10435Y41624D01*
X10466Y41625D01*
X10491Y41627D01*
X10522Y41635D01*
X10550Y41646D01*
X10568Y41655D01*
X10581Y41664D01*
X10606Y41686D01*
X10620Y41703D01*
X10633Y41723D01*
X10642Y41740D01*
X10648Y41757D01*
X10653Y41772D01*
X10659Y41794D01*
X10663Y41811D01*
X10665Y41827D01*
X10667Y41855D01*
X10667Y41877D01*
Y42132D01*
D02*
G37*
G36*
X8788Y41201D02*
X8390D01*
Y41114D01*
X8391Y41087D01*
X8394Y41066D01*
X8400Y41046D01*
X8409Y41023D01*
X8415Y41012D01*
X8424Y40998D01*
X8430Y40990D01*
X8452Y40969D01*
X8468Y40957D01*
X8480Y40950D01*
X8497Y40941D01*
X8513Y40936D01*
X8533Y40930D01*
X8546Y40928D01*
X8564Y40926D01*
X8583Y40925D01*
X8601Y40925D01*
X8620Y40926D01*
X8636Y40929D01*
X8650Y40932D01*
X8665Y40936D01*
X8674Y40939D01*
X8683Y40942D01*
X8692Y40947D01*
X8703Y40952D01*
X8720Y40963D01*
X8730Y40972D01*
X8747Y40988D01*
X8755Y41000D01*
X8768Y41021D01*
X8775Y41037D01*
X8780Y41053D01*
X8785Y41073D01*
X8787Y41093D01*
X8788Y41113D01*
Y41201D01*
D02*
G37*
G36*
X10667Y40653D02*
X9591D01*
X9591Y40417D01*
X9591Y40391D01*
X9593Y40361D01*
X9598Y40321D01*
X9605Y40282D01*
X9612Y40254D01*
X9621Y40225D01*
X9627Y40211D01*
X9633Y40195D01*
X9640Y40179D01*
X9654Y40152D01*
X9666Y40131D01*
X9685Y40103D01*
X9702Y40081D01*
X9720Y40060D01*
X9757Y40025D01*
X9782Y40006D01*
X9811Y39987D01*
X9841Y39970D01*
X9862Y39959D01*
X9894Y39946D01*
X9929Y39934D01*
X9958Y39926D01*
X9984Y39920D01*
X10012Y39915D01*
X10052Y39910D01*
X10089Y39907D01*
X10125Y39906D01*
X10151Y39906D01*
X10186Y39908D01*
X10229Y39912D01*
X10257Y39917D01*
X10285Y39922D01*
X10306Y39927D01*
X10328Y39934D01*
X10363Y39945D01*
X10394Y39958D01*
X10414Y39968D01*
X10436Y39980D01*
X10461Y39995D01*
X10480Y40009D01*
X10507Y40031D01*
X10531Y40052D01*
X10556Y40080D01*
X10581Y40113D01*
X10597Y40138D01*
X10613Y40168D01*
X10628Y40201D01*
X10636Y40224D01*
X10646Y40253D01*
X10653Y40281D01*
X10658Y40307D01*
X10663Y40337D01*
X10666Y40374D01*
X10667Y40395D01*
X10667Y40409D01*
X10667Y40653D01*
D02*
G37*
G36*
X8586Y38407D02*
X8562Y38406D01*
X8539Y38402D01*
X8519Y38397D01*
X8508Y38393D01*
X8497Y38388D01*
X8479Y38379D01*
X8468Y38372D01*
X8443Y38352D01*
X8434Y38342D01*
X8417Y38319D01*
X8409Y38304D01*
X8404Y38293D01*
X8398Y38278D01*
X8394Y38265D01*
X8391Y38250D01*
X8389Y38232D01*
X8388Y38219D01*
X8389Y38198D01*
X8391Y38178D01*
X8395Y38160D01*
X8398Y38148D01*
X8403Y38135D01*
X8413Y38113D01*
X8427Y38093D01*
X8435Y38082D01*
X8453Y38065D01*
X8466Y38055D01*
X8477Y38048D01*
X8490Y38041D01*
X8502Y38036D01*
X8512Y38032D01*
X8539Y38024D01*
X8561Y38021D01*
X8579Y38019D01*
X8595Y38019D01*
X8610Y38020D01*
X8628Y38022D01*
X8644Y38025D01*
X8661Y38030D01*
X8674Y38035D01*
X8686Y38040D01*
X8709Y38053D01*
X8721Y38062D01*
X8743Y38083D01*
X8755Y38097D01*
X8764Y38111D01*
X8771Y38124D01*
X8777Y38139D01*
X8782Y38153D01*
X8786Y38168D01*
X8789Y38192D01*
X8790Y38204D01*
X8790Y38217D01*
X8790Y38230D01*
X8787Y38251D01*
X8781Y38275D01*
X8776Y38289D01*
X8769Y38306D01*
X8759Y38322D01*
X8746Y38341D01*
X8727Y38360D01*
X8712Y38371D01*
X8691Y38384D01*
X8671Y38393D01*
X8649Y38400D01*
X8630Y38404D01*
X8601Y38407D01*
X8586Y38407D01*
D02*
G37*
G36*
X30780Y46475D02*
X30720D01*
Y46470D01*
X30710D01*
Y46465D01*
X30700D01*
Y46460D01*
X30695D01*
Y46455D01*
X30690D01*
Y46450D01*
X30685D01*
Y46445D01*
X30680D01*
Y46435D01*
X30675D01*
Y46430D01*
X30670D01*
Y46420D01*
X30665D01*
Y46410D01*
X30660D01*
Y46405D01*
X30656D01*
Y46395D01*
X30651D01*
Y46385D01*
X30646D01*
Y46376D01*
X30641D01*
Y46366D01*
X30636D01*
Y46361D01*
X30631D01*
Y46351D01*
X30626D01*
Y46341D01*
X30621D01*
Y46331D01*
X30616D01*
Y46321D01*
X30611D01*
Y46316D01*
X30606D01*
Y46306D01*
X30601D01*
Y46296D01*
X30596D01*
Y46291D01*
X30591D01*
Y46281D01*
X30586D01*
Y46271D01*
X30581D01*
Y46266D01*
X30576D01*
Y46256D01*
X30571D01*
Y46246D01*
X30566D01*
Y46236D01*
X30561D01*
Y46226D01*
X30556D01*
Y46216D01*
X30551D01*
Y46211D01*
X30546D01*
Y46201D01*
X30541D01*
Y46197D01*
X30536D01*
Y46187D01*
X30531D01*
Y46177D01*
X30526D01*
Y46172D01*
X30521D01*
Y46162D01*
X30516D01*
Y46152D01*
X30511D01*
Y46142D01*
X30506D01*
Y46132D01*
X30501D01*
Y46127D01*
X30496D01*
Y46117D01*
X30491D01*
Y46107D01*
X30486D01*
Y46097D01*
X30481D01*
Y46092D01*
X30476D01*
Y46082D01*
X30472D01*
Y46072D01*
X30467D01*
Y46067D01*
X30462D01*
Y46052D01*
X30457D01*
Y46047D01*
X30452D01*
Y46037D01*
X30447D01*
Y46032D01*
X30442D01*
Y46022D01*
X30437D01*
Y46013D01*
X30432D01*
Y46008D01*
X30427D01*
Y45998D01*
X30422D01*
Y45988D01*
X30417D01*
Y45978D01*
X30412D01*
Y45973D01*
X30407D01*
Y45963D01*
X30402D01*
Y45953D01*
X30397D01*
Y45948D01*
X30392D01*
Y45933D01*
X30387D01*
Y45928D01*
X30382D01*
Y45918D01*
X30377D01*
Y45913D01*
X30372D01*
Y45903D01*
X30367D01*
Y45893D01*
X30362D01*
Y45888D01*
X30357D01*
Y45873D01*
X30352D01*
Y45868D01*
X30347D01*
Y45858D01*
X30342D01*
Y45848D01*
X30337D01*
Y45843D01*
X30332D01*
Y45834D01*
X30327D01*
Y45824D01*
X30322D01*
Y45819D01*
X30317D01*
Y45804D01*
X30312D01*
Y45799D01*
X30307D01*
Y45789D01*
X30302D01*
Y45784D01*
X30297D01*
Y45774D01*
X30293D01*
Y45764D01*
X30288D01*
Y45754D01*
X30283D01*
Y45744D01*
X30278D01*
Y45739D01*
X30273D01*
Y45729D01*
X30268D01*
Y45719D01*
X30263D01*
Y45714D01*
X30258D01*
Y45704D01*
X30253D01*
Y45694D01*
X30248D01*
Y45684D01*
X30243D01*
Y45679D01*
X30238D01*
Y45669D01*
X30233D01*
Y45664D01*
X30228D01*
Y45654D01*
X30223D01*
Y45645D01*
X30218D01*
Y45635D01*
X30213D01*
Y45625D01*
X30208D01*
Y45620D01*
X30203D01*
Y45610D01*
X30198D01*
Y45600D01*
X30193D01*
Y45595D01*
X30188D01*
Y45585D01*
X30183D01*
Y45575D01*
X30178D01*
Y45565D01*
X30173D01*
Y45555D01*
X30168D01*
Y45550D01*
X30163D01*
Y45540D01*
X30158D01*
Y45535D01*
X30153D01*
Y45520D01*
X30148D01*
Y45515D01*
X30143D01*
Y45505D01*
X30138D01*
Y45495D01*
X30133D01*
Y45490D01*
X30128D01*
Y45480D01*
X30123D01*
Y45471D01*
X30118D01*
Y45461D01*
X30113D01*
Y45456D01*
X30109D01*
Y45446D01*
X30104D01*
Y45436D01*
X30099D01*
Y45431D01*
X30094D01*
Y45421D01*
X30089D01*
Y45411D01*
X30084D01*
Y45401D01*
X30079D01*
Y45396D01*
X30074D01*
Y45386D01*
X30069D01*
Y45376D01*
X30064D01*
Y45371D01*
X30059D01*
Y45361D01*
X30054D01*
Y45351D01*
X30049D01*
Y45341D01*
X30044D01*
Y45331D01*
X30039D01*
Y45326D01*
X30034D01*
Y45316D01*
X30029D01*
Y45306D01*
X30024D01*
Y45301D01*
X30019D01*
Y45291D01*
X30014D01*
Y45282D01*
X30009D01*
Y45272D01*
X30004D01*
Y45262D01*
X29999D01*
Y45257D01*
X29994D01*
Y45247D01*
X29989D01*
Y45242D01*
X29984D01*
Y45232D01*
X29979D01*
Y45222D01*
X29974D01*
Y45212D01*
X29969D01*
Y45207D01*
X29964D01*
Y45197D01*
X29959D01*
Y45187D01*
X29954D01*
Y45182D01*
X29949D01*
Y45172D01*
X29944D01*
Y45162D01*
X29939D01*
Y45152D01*
X29934D01*
Y45142D01*
X29930D01*
Y45137D01*
X29925D01*
Y45127D01*
X29920D01*
Y45117D01*
X29915D01*
Y45107D01*
X29910D01*
Y45103D01*
X29905D01*
Y45093D01*
X29900D01*
Y45083D01*
X29895D01*
Y45078D01*
X29890D01*
Y45068D01*
X29885D01*
Y45058D01*
X29880D01*
Y45048D01*
X29875D01*
Y45038D01*
X29870D01*
Y45033D01*
X29865D01*
Y45023D01*
X29860D01*
Y45018D01*
X29855D01*
Y45003D01*
X29850D01*
Y44998D01*
X29845D01*
Y44988D01*
X29840D01*
Y44978D01*
X29835D01*
Y44973D01*
X29830D01*
Y44963D01*
X29825D01*
Y44953D01*
X29820D01*
Y44948D01*
X29815D01*
Y44938D01*
X29810D01*
Y44928D01*
X29805D01*
Y44919D01*
X29800D01*
Y44914D01*
X29795D01*
Y44904D01*
X29790D01*
Y44894D01*
X29785D01*
Y44884D01*
X29780D01*
Y44879D01*
X29775D01*
Y44869D01*
X29770D01*
Y44859D01*
X29765D01*
Y44854D01*
X29760D01*
Y44844D01*
X29755D01*
Y44834D01*
X29750D01*
Y44824D01*
X29746D01*
Y44814D01*
X29741D01*
Y44809D01*
X29736D01*
Y44799D01*
X29731D01*
Y44789D01*
X29726D01*
Y44784D01*
X29721D01*
Y44774D01*
X29716D01*
Y44764D01*
X29711D01*
Y44754D01*
X29706D01*
Y44749D01*
X29701D01*
Y44740D01*
X29696D01*
Y44730D01*
X29691D01*
Y44725D01*
X29686D01*
Y44710D01*
X29681D01*
Y44705D01*
X29676D01*
Y44695D01*
X29671D01*
Y44690D01*
X29666D01*
Y44680D01*
X29661D01*
Y44670D01*
X29656D01*
Y44660D01*
X29651D01*
Y44650D01*
X29646D01*
Y44645D01*
X29641D01*
Y44635D01*
X29636D01*
Y44625D01*
X29631D01*
Y44620D01*
X29626D01*
Y44610D01*
X29621D01*
Y44600D01*
X29616D01*
Y44590D01*
X29611D01*
Y44585D01*
X29606D01*
Y44575D01*
X29601D01*
Y44565D01*
X29596D01*
Y44556D01*
X29591D01*
Y44551D01*
X29586D01*
Y44541D01*
X29581D01*
Y44531D01*
X29576D01*
Y44526D01*
X29571D01*
Y44516D01*
X29566D01*
Y44506D01*
X29562D01*
Y44501D01*
X29557D01*
Y44486D01*
X29552D01*
Y44481D01*
X29547D01*
Y44471D01*
X29542D01*
Y44466D01*
X29537D01*
Y44456D01*
X29532D01*
Y44446D01*
X29527D01*
Y44436D01*
X29522D01*
Y44426D01*
X29517D01*
Y44421D01*
X29512D01*
Y44411D01*
X29507D01*
Y44401D01*
X29502D01*
Y44396D01*
X29497D01*
Y44386D01*
X29492D01*
Y44376D01*
X29487D01*
Y44367D01*
X29482D01*
Y44362D01*
X29477D01*
Y44352D01*
X29472D01*
Y44342D01*
X29467D01*
Y44337D01*
X29462D01*
Y44327D01*
X29457D01*
Y44317D01*
X29452D01*
Y44312D01*
X29447D01*
Y44297D01*
X29442D01*
Y44292D01*
X29437D01*
Y44282D01*
X29432D01*
Y44277D01*
X29427D01*
Y44267D01*
X29422D01*
Y44257D01*
X29417D01*
Y44252D01*
X29412D01*
Y44237D01*
X29407D01*
Y44232D01*
X29402D01*
Y44222D01*
X29397D01*
Y44212D01*
X29392D01*
Y44202D01*
X29387D01*
Y44197D01*
X29382D01*
Y44188D01*
X29378D01*
Y44178D01*
X29373D01*
Y44173D01*
X29368D01*
Y44163D01*
X29363D01*
Y44153D01*
X29358D01*
Y44148D01*
X29353D01*
Y44138D01*
X29348D01*
Y44128D01*
X29343D01*
Y44118D01*
X29338D01*
Y44113D01*
X29333D01*
Y44103D01*
X29328D01*
Y44093D01*
X29323D01*
Y44083D01*
X29318D01*
Y44073D01*
X29313D01*
Y44068D01*
X29308D01*
Y44058D01*
X29303D01*
Y44048D01*
X29298D01*
Y44043D01*
X29293D01*
Y44033D01*
X29288D01*
Y44023D01*
X29283D01*
Y44013D01*
X29278D01*
Y44009D01*
X29273D01*
Y43999D01*
X29268D01*
Y43989D01*
X29263D01*
Y43984D01*
X29258D01*
Y43974D01*
X29253D01*
Y43964D01*
X29248D01*
Y43954D01*
X29243D01*
Y43949D01*
X29238D01*
Y43939D01*
X29233D01*
Y43929D01*
X29228D01*
Y43924D01*
X29223D01*
Y43914D01*
X29218D01*
Y43909D01*
X29213D01*
Y43894D01*
X29208D01*
Y43889D01*
X29203D01*
Y43879D01*
X29198D01*
Y43869D01*
X29194D01*
Y43859D01*
X29189D01*
Y43854D01*
X29184D01*
Y43839D01*
X29179D01*
Y43834D01*
X29174D01*
Y43825D01*
X29169D01*
Y43815D01*
X29164D01*
Y43810D01*
X29159D01*
Y43800D01*
X29154D01*
Y43795D01*
X29149D01*
Y43785D01*
X29144D01*
Y43775D01*
X29139D01*
Y43765D01*
X29134D01*
Y43760D01*
X29129D01*
Y43750D01*
X29124D01*
Y43740D01*
X29119D01*
Y43730D01*
X29114D01*
Y43720D01*
X29109D01*
Y43715D01*
X29104D01*
Y43705D01*
X29099D01*
Y43700D01*
X29094D01*
Y43690D01*
X29089D01*
Y43680D01*
X29084D01*
Y43675D01*
X29079D01*
Y43660D01*
X29074D01*
Y43655D01*
X29069D01*
Y43646D01*
X29064D01*
Y43636D01*
X29059D01*
Y43631D01*
X29054D01*
Y43621D01*
X29049D01*
Y43611D01*
X29044D01*
Y43601D01*
X29039D01*
Y43596D01*
X29034D01*
Y43586D01*
X29029D01*
Y43576D01*
X29024D01*
Y43566D01*
X29019D01*
Y43561D01*
X29015D01*
Y43551D01*
X29010D01*
Y43541D01*
X29005D01*
Y43531D01*
X29000D01*
Y43526D01*
X28995D01*
Y43516D01*
X28990D01*
Y43511D01*
X28985D01*
Y43496D01*
X28980D01*
Y43491D01*
X28975D01*
Y43481D01*
X28970D01*
Y43471D01*
X28965D01*
Y43466D01*
X28960D01*
Y43457D01*
X28955D01*
Y43447D01*
X28950D01*
Y43437D01*
X28945D01*
Y43432D01*
X28940D01*
Y43422D01*
X28935D01*
Y43417D01*
X28930D01*
Y43407D01*
X28925D01*
Y43397D01*
X28920D01*
Y43387D01*
X28915D01*
Y43377D01*
X28910D01*
Y43367D01*
X28905D01*
Y43362D01*
X28900D01*
Y43352D01*
X28895D01*
Y43342D01*
X28890D01*
Y43337D01*
X28885D01*
Y43327D01*
X28880D01*
Y43317D01*
X28875D01*
Y43307D01*
X28870D01*
Y43302D01*
X28865D01*
Y43292D01*
X28860D01*
Y43282D01*
X28855D01*
Y43278D01*
X28850D01*
Y43263D01*
X28845D01*
Y43258D01*
X28840D01*
Y43248D01*
X28835D01*
Y43243D01*
X28831D01*
Y43233D01*
X28826D01*
Y43223D01*
X28821D01*
Y43213D01*
X28816D01*
Y43203D01*
X28811D01*
Y43198D01*
X28806D01*
Y43188D01*
X28801D01*
Y43183D01*
X28796D01*
Y43168D01*
X28791D01*
Y43163D01*
X28786D01*
Y43153D01*
X28781D01*
Y43143D01*
X28776D01*
Y43138D01*
X28771D01*
Y43128D01*
X28766D01*
Y43123D01*
X28761D01*
Y43113D01*
X28756D01*
Y43103D01*
X28751D01*
Y43094D01*
X28746D01*
Y43089D01*
X28741D01*
Y43079D01*
X28736D01*
Y43069D01*
X28731D01*
Y43059D01*
X28726D01*
Y43054D01*
X28721D01*
Y43044D01*
X28716D01*
Y43034D01*
X28711D01*
Y43024D01*
X28706D01*
Y43019D01*
X28701D01*
Y43009D01*
X28696D01*
Y42999D01*
X28691D01*
Y42989D01*
X28686D01*
Y42979D01*
X28681D01*
Y42974D01*
X28676D01*
Y42964D01*
X28671D01*
Y42954D01*
X28666D01*
Y42949D01*
X28661D01*
Y42939D01*
X28656D01*
Y42929D01*
X28652D01*
Y42919D01*
X28647D01*
Y42915D01*
X28642D01*
Y42905D01*
X28637D01*
Y42895D01*
X28632D01*
Y42885D01*
X28627D01*
Y42865D01*
X28622D01*
Y42835D01*
X28627D01*
Y42815D01*
X28632D01*
Y42810D01*
X28637D01*
Y42800D01*
X28642D01*
Y42795D01*
X28647D01*
Y42790D01*
X28652D01*
Y42785D01*
X28656D01*
Y42780D01*
X28666D01*
Y42775D01*
X28676D01*
Y42770D01*
X28691D01*
Y42765D01*
X32804D01*
Y42770D01*
X32824D01*
Y42775D01*
X32834D01*
Y42780D01*
X32844D01*
Y42785D01*
X32848D01*
Y42790D01*
X32853D01*
Y42795D01*
X32858D01*
Y42800D01*
X32863D01*
Y42810D01*
X32868D01*
Y42815D01*
X32873D01*
Y42835D01*
X32878D01*
Y42870D01*
X32873D01*
Y42885D01*
X32868D01*
Y42895D01*
X32863D01*
Y42905D01*
X32858D01*
Y42915D01*
X32853D01*
Y42924D01*
X32848D01*
Y42934D01*
X32844D01*
Y42939D01*
X32839D01*
Y42949D01*
X32834D01*
Y42954D01*
X32829D01*
Y42964D01*
X32824D01*
Y42974D01*
X32819D01*
Y42979D01*
X32814D01*
Y42989D01*
X32809D01*
Y42999D01*
X32804D01*
Y43009D01*
X32799D01*
Y43014D01*
X32794D01*
Y43024D01*
X32789D01*
Y43034D01*
X32784D01*
Y43039D01*
X32779D01*
Y43054D01*
X32774D01*
Y43059D01*
X32769D01*
Y43069D01*
X32764D01*
Y43079D01*
X32759D01*
Y43084D01*
X32754D01*
Y43094D01*
X32749D01*
Y43103D01*
X32744D01*
Y43113D01*
X32739D01*
Y43118D01*
X32734D01*
Y43128D01*
X32729D01*
Y43138D01*
X32724D01*
Y43143D01*
X32719D01*
Y43153D01*
X32714D01*
Y43163D01*
X32709D01*
Y43173D01*
X32704D01*
Y43178D01*
X32699D01*
Y43188D01*
X32694D01*
Y43198D01*
X32689D01*
Y43208D01*
X32684D01*
Y43218D01*
X32679D01*
Y43223D01*
X32674D01*
Y43233D01*
X32669D01*
Y43243D01*
X32665D01*
Y43248D01*
X32660D01*
Y43258D01*
X32655D01*
Y43268D01*
X32650D01*
Y43273D01*
X32645D01*
Y43282D01*
X32640D01*
Y43292D01*
X32635D01*
Y43302D01*
X32630D01*
Y43307D01*
X32625D01*
Y43317D01*
X32620D01*
Y43327D01*
X32615D01*
Y43332D01*
X32610D01*
Y43342D01*
X32605D01*
Y43352D01*
X32600D01*
Y43362D01*
X32595D01*
Y43367D01*
X32590D01*
Y43377D01*
X32585D01*
Y43387D01*
X32580D01*
Y43392D01*
X32575D01*
Y43407D01*
X32570D01*
Y43412D01*
X32565D01*
Y43422D01*
X32560D01*
Y43432D01*
X32555D01*
Y43437D01*
X32550D01*
Y43447D01*
X32545D01*
Y43457D01*
X32540D01*
Y43466D01*
X32535D01*
Y43471D01*
X32530D01*
Y43481D01*
X32525D01*
Y43491D01*
X32520D01*
Y43496D01*
X32515D01*
Y43511D01*
X32510D01*
Y43516D01*
X32505D01*
Y43526D01*
X32500D01*
Y43536D01*
X32495D01*
Y43541D01*
X32490D01*
Y43551D01*
X32485D01*
Y43561D01*
X32481D01*
Y43571D01*
X32476D01*
Y43576D01*
X32471D01*
Y43586D01*
X32466D01*
Y43596D01*
X32461D01*
Y43601D01*
X32456D01*
Y43611D01*
X32451D01*
Y43621D01*
X32446D01*
Y43631D01*
X32441D01*
Y43636D01*
X32436D01*
Y43646D01*
X32431D01*
Y43655D01*
X32426D01*
Y43660D01*
X32421D01*
Y43670D01*
X32416D01*
Y43680D01*
X32411D01*
Y43685D01*
X32406D01*
Y43695D01*
X32401D01*
Y43705D01*
X32396D01*
Y43715D01*
X32391D01*
Y43720D01*
X32386D01*
Y43735D01*
X32381D01*
Y43740D01*
X32376D01*
Y43750D01*
X32371D01*
Y43760D01*
X32366D01*
Y43765D01*
X32361D01*
Y43775D01*
X32356D01*
Y43785D01*
X32351D01*
Y43790D01*
X32346D01*
Y43800D01*
X32341D01*
Y43810D01*
X32336D01*
Y43820D01*
X32331D01*
Y43825D01*
X32326D01*
Y43834D01*
X32321D01*
Y43844D01*
X32316D01*
Y43854D01*
X32311D01*
Y43864D01*
X32306D01*
Y43869D01*
X32301D01*
Y43879D01*
X32297D01*
Y43884D01*
X32292D01*
Y43894D01*
X32287D01*
Y43904D01*
X32282D01*
Y43914D01*
X32277D01*
Y43924D01*
X32272D01*
Y43929D01*
X32267D01*
Y43939D01*
X32262D01*
Y43949D01*
X32257D01*
Y43959D01*
X32252D01*
Y43964D01*
X32247D01*
Y43974D01*
X32242D01*
Y43984D01*
X32237D01*
Y43989D01*
X32232D01*
Y43999D01*
X32227D01*
Y44009D01*
X32222D01*
Y44013D01*
X32217D01*
Y44023D01*
X32212D01*
Y44033D01*
X32207D01*
Y44043D01*
X32202D01*
Y44048D01*
X32197D01*
Y44058D01*
X32192D01*
Y44068D01*
X32187D01*
Y44073D01*
X32182D01*
Y44088D01*
X32177D01*
Y44093D01*
X32172D01*
Y44103D01*
X32167D01*
Y44113D01*
X32162D01*
Y44118D01*
X32157D01*
Y44128D01*
X32152D01*
Y44138D01*
X32147D01*
Y44143D01*
X32142D01*
Y44153D01*
X32137D01*
Y44163D01*
X32132D01*
Y44173D01*
X32127D01*
Y44183D01*
X32122D01*
Y44193D01*
X32118D01*
Y44197D01*
X32113D01*
Y44202D01*
X32108D01*
Y44212D01*
X32103D01*
Y44222D01*
X32098D01*
Y44232D01*
X32093D01*
Y44237D01*
X32088D01*
Y44247D01*
X32083D01*
Y44257D01*
X32078D01*
Y44267D01*
X32073D01*
Y44272D01*
X32068D01*
Y44282D01*
X32063D01*
Y44292D01*
X32058D01*
Y44297D01*
X32053D01*
Y44307D01*
X32048D01*
Y44317D01*
X32043D01*
Y44327D01*
X32038D01*
Y44337D01*
X32033D01*
Y44342D01*
X32028D01*
Y44352D01*
X32023D01*
Y44357D01*
X32018D01*
Y44367D01*
X32013D01*
Y44376D01*
X32008D01*
Y44381D01*
X32003D01*
Y44396D01*
X31998D01*
Y44401D01*
X31993D01*
Y44411D01*
X31988D01*
Y44421D01*
X31983D01*
Y44431D01*
X31978D01*
Y44436D01*
X31973D01*
Y44446D01*
X31968D01*
Y44456D01*
X31963D01*
Y44466D01*
X31958D01*
Y44471D01*
X31953D01*
Y44481D01*
X31948D01*
Y44486D01*
X31943D01*
Y44496D01*
X31938D01*
Y44506D01*
X31934D01*
Y44516D01*
X31929D01*
Y44526D01*
X31924D01*
Y44531D01*
X31919D01*
Y44541D01*
X31914D01*
Y44551D01*
X31909D01*
Y44560D01*
X31904D01*
Y44565D01*
X31899D01*
Y44575D01*
X31894D01*
Y44580D01*
X31889D01*
Y44595D01*
X31884D01*
Y44600D01*
X31879D01*
Y44610D01*
X31874D01*
Y44620D01*
X31869D01*
Y44625D01*
X31864D01*
Y44635D01*
X31859D01*
Y44645D01*
X31854D01*
Y44655D01*
X31849D01*
Y44660D01*
X31844D01*
Y44670D01*
X31839D01*
Y44680D01*
X31834D01*
Y44690D01*
X31829D01*
Y44695D01*
X31824D01*
Y44705D01*
X31819D01*
Y44715D01*
X31814D01*
Y44725D01*
X31809D01*
Y44730D01*
X31804D01*
Y44740D01*
X31799D01*
Y44749D01*
X31794D01*
Y44754D01*
X31789D01*
Y44764D01*
X31784D01*
Y44769D01*
X31779D01*
Y44779D01*
X31774D01*
Y44789D01*
X31769D01*
Y44799D01*
X31764D01*
Y44809D01*
X31759D01*
Y44814D01*
X31754D01*
Y44824D01*
X31750D01*
Y44834D01*
X31745D01*
Y44844D01*
X31740D01*
Y44854D01*
X31735D01*
Y44859D01*
X31730D01*
Y44869D01*
X31725D01*
Y44879D01*
X31720D01*
Y44884D01*
X31715D01*
Y44894D01*
X31710D01*
Y44904D01*
X31705D01*
Y44914D01*
X31700D01*
Y44919D01*
X31695D01*
Y44928D01*
X31690D01*
Y44938D01*
X31685D01*
Y44948D01*
X31680D01*
Y44958D01*
X31675D01*
Y44963D01*
X31670D01*
Y44973D01*
X31665D01*
Y44978D01*
X31660D01*
Y44988D01*
X31655D01*
Y44998D01*
X31650D01*
Y45008D01*
X31645D01*
Y45018D01*
X31640D01*
Y45023D01*
X31635D01*
Y45033D01*
X31630D01*
Y45043D01*
X31625D01*
Y45048D01*
X31620D01*
Y45058D01*
X31615D01*
Y45068D01*
X31610D01*
Y45078D01*
X31605D01*
Y45083D01*
X31600D01*
Y45093D01*
X31595D01*
Y45103D01*
X31590D01*
Y45107D01*
X31585D01*
Y45117D01*
X31580D01*
Y45127D01*
X31575D01*
Y45137D01*
X31570D01*
Y45147D01*
X31566D01*
Y45152D01*
X31561D01*
Y45162D01*
X31556D01*
Y45172D01*
X31551D01*
Y45177D01*
X31546D01*
Y45187D01*
X31541D01*
Y45197D01*
X31536D01*
Y45207D01*
X31531D01*
Y45212D01*
X31526D01*
Y45222D01*
X31521D01*
Y45232D01*
X31516D01*
Y45242D01*
X31511D01*
Y45247D01*
X31506D01*
Y45252D01*
X31501D01*
Y45267D01*
X31496D01*
Y45272D01*
X31491D01*
Y45282D01*
X31486D01*
Y45291D01*
X31481D01*
Y45296D01*
X31476D01*
Y45306D01*
X31471D01*
Y45316D01*
X31466D01*
Y45326D01*
X31461D01*
Y45331D01*
X31456D01*
Y45346D01*
X31451D01*
Y45351D01*
X31446D01*
Y45356D01*
X31441D01*
Y45371D01*
X31436D01*
Y45376D01*
X31431D01*
Y45386D01*
X31426D01*
Y45396D01*
X31421D01*
Y45401D01*
X31416D01*
Y45411D01*
X31411D01*
Y45421D01*
X31406D01*
Y45431D01*
X31401D01*
Y45436D01*
X31396D01*
Y45446D01*
X31391D01*
Y45456D01*
X31387D01*
Y45461D01*
X31382D01*
Y45471D01*
X31377D01*
Y45480D01*
X31372D01*
Y45490D01*
X31367D01*
Y45495D01*
X31362D01*
Y45505D01*
X31357D01*
Y45515D01*
X31352D01*
Y45520D01*
X31347D01*
Y45535D01*
X31342D01*
Y45540D01*
X31337D01*
Y45550D01*
X31332D01*
Y45555D01*
X31327D01*
Y45565D01*
X31322D01*
Y45575D01*
X31317D01*
Y45585D01*
X31312D01*
Y45595D01*
X31307D01*
Y45600D01*
X31302D01*
Y45610D01*
X31297D01*
Y45620D01*
X31292D01*
Y45625D01*
X31287D01*
Y45635D01*
X31282D01*
Y45645D01*
X31277D01*
Y45654D01*
X31272D01*
Y45659D01*
X31267D01*
Y45669D01*
X31262D01*
Y45679D01*
X31257D01*
Y45684D01*
X31252D01*
Y45694D01*
X31247D01*
Y45704D01*
X31242D01*
Y45714D01*
X31237D01*
Y45719D01*
X31232D01*
Y45729D01*
X31227D01*
Y45739D01*
X31222D01*
Y45744D01*
X31217D01*
Y45754D01*
X31212D01*
Y45764D01*
X31207D01*
Y45774D01*
X31203D01*
Y45784D01*
X31198D01*
Y45789D01*
X31193D01*
Y45799D01*
X31188D01*
Y45804D01*
X31183D01*
Y45814D01*
X31178D01*
Y45824D01*
X31173D01*
Y45834D01*
X31168D01*
Y45843D01*
X31163D01*
Y45848D01*
X31158D01*
Y45858D01*
X31153D01*
Y45868D01*
X31148D01*
Y45873D01*
X31143D01*
Y45883D01*
X31138D01*
Y45893D01*
X31133D01*
Y45903D01*
X31128D01*
Y45908D01*
X31123D01*
Y45918D01*
X31118D01*
Y45928D01*
X31113D01*
Y45938D01*
X31108D01*
Y45943D01*
X31103D01*
Y45953D01*
X31098D01*
Y45963D01*
X31093D01*
Y45968D01*
X31088D01*
Y45978D01*
X31083D01*
Y45988D01*
X31078D01*
Y45998D01*
X31073D01*
Y46008D01*
X31068D01*
Y46013D01*
X31063D01*
Y46022D01*
X31058D01*
Y46027D01*
X31053D01*
Y46037D01*
X31048D01*
Y46052D01*
X31043D01*
Y46057D01*
X31038D01*
Y46067D01*
X31033D01*
Y46077D01*
X31028D01*
Y46082D01*
X31024D01*
Y46092D01*
X31019D01*
Y46102D01*
X31014D01*
Y46112D01*
X31009D01*
Y46117D01*
X31004D01*
Y46127D01*
X30999D01*
Y46132D01*
X30994D01*
Y46142D01*
X30989D01*
Y46152D01*
X30984D01*
Y46157D01*
X30979D01*
Y46167D01*
X30974D01*
Y46177D01*
X30969D01*
Y46187D01*
X30964D01*
Y46197D01*
X30959D01*
Y46201D01*
X30954D01*
Y46211D01*
X30949D01*
Y46221D01*
X30944D01*
Y46226D01*
X30939D01*
Y46236D01*
X30934D01*
Y46246D01*
X30929D01*
Y46256D01*
X30924D01*
Y46261D01*
X30919D01*
Y46271D01*
X30914D01*
Y46281D01*
X30909D01*
Y46291D01*
X30904D01*
Y46301D01*
X30899D01*
Y46306D01*
X30894D01*
Y46316D01*
X30889D01*
Y46321D01*
X30884D01*
Y46331D01*
X30879D01*
Y46346D01*
X30874D01*
Y46351D01*
X30869D01*
Y46361D01*
X30864D01*
Y46366D01*
X30859D01*
Y46376D01*
X30854D01*
Y46385D01*
X30849D01*
Y46395D01*
X30844D01*
Y46400D01*
X30840D01*
Y46410D01*
X30835D01*
Y46420D01*
X30830D01*
Y46430D01*
X30825D01*
Y46435D01*
X30820D01*
Y46445D01*
X30815D01*
Y46450D01*
X30810D01*
Y46455D01*
X30805D01*
Y46460D01*
X30800D01*
Y46465D01*
X30790D01*
Y46470D01*
X30780D01*
Y46475D01*
D02*
G37*
%LPD*%
G36*
X30785Y45550D02*
X30815D01*
Y45545D01*
X30840D01*
Y45540D01*
X30849D01*
Y45535D01*
X30864D01*
Y45530D01*
X30874D01*
Y45525D01*
X30879D01*
Y45520D01*
X30889D01*
Y45515D01*
X30894D01*
Y45510D01*
X30899D01*
Y45505D01*
X30904D01*
Y45500D01*
X30914D01*
Y45495D01*
X30919D01*
Y45490D01*
X30924D01*
Y45485D01*
X30929D01*
Y45475D01*
X30934D01*
Y45471D01*
X30939D01*
Y45466D01*
X30944D01*
Y45456D01*
X30949D01*
Y45446D01*
X30954D01*
Y45441D01*
X30959D01*
Y45431D01*
X30964D01*
Y45411D01*
X30969D01*
Y45401D01*
X30974D01*
Y45376D01*
X30979D01*
Y45351D01*
X30984D01*
Y45316D01*
X30989D01*
Y45237D01*
X30984D01*
Y45192D01*
X30979D01*
Y45142D01*
X30974D01*
Y45088D01*
X30969D01*
Y45048D01*
X30964D01*
Y44978D01*
X30959D01*
Y44933D01*
X30954D01*
Y44879D01*
X30949D01*
Y44829D01*
X30944D01*
Y44789D01*
X30939D01*
Y44725D01*
X30934D01*
Y44685D01*
X30929D01*
Y44615D01*
X30924D01*
Y44580D01*
X30919D01*
Y44526D01*
X30914D01*
Y44476D01*
X30909D01*
Y44431D01*
X30904D01*
Y44357D01*
X30899D01*
Y44327D01*
X30894D01*
Y44267D01*
X30889D01*
Y44222D01*
X30884D01*
Y44173D01*
X30879D01*
Y44103D01*
X30874D01*
Y44073D01*
X30869D01*
Y44009D01*
X30864D01*
Y43969D01*
X30859D01*
Y43934D01*
X30854D01*
Y43909D01*
X30849D01*
Y43904D01*
X30844D01*
Y43894D01*
X30840D01*
Y43889D01*
X30835D01*
Y43879D01*
X30830D01*
Y43874D01*
X30825D01*
Y43869D01*
X30820D01*
Y43864D01*
X30810D01*
Y43859D01*
X30805D01*
Y43854D01*
X30795D01*
Y43849D01*
X30780D01*
Y43844D01*
X30765D01*
Y43839D01*
X30740D01*
Y43844D01*
X30720D01*
Y43849D01*
X30705D01*
Y43854D01*
X30695D01*
Y43859D01*
X30690D01*
Y43864D01*
X30685D01*
Y43869D01*
X30675D01*
Y43874D01*
X30670D01*
Y43879D01*
X30665D01*
Y43889D01*
X30660D01*
Y43894D01*
X30656D01*
Y43904D01*
X30651D01*
Y43909D01*
X30646D01*
Y43934D01*
X30641D01*
Y43974D01*
X30636D01*
Y44009D01*
X30631D01*
Y44073D01*
X30626D01*
Y44113D01*
X30621D01*
Y44178D01*
X30616D01*
Y44222D01*
X30611D01*
Y44267D01*
X30606D01*
Y44327D01*
X30601D01*
Y44362D01*
X30596D01*
Y44431D01*
X30591D01*
Y44481D01*
X30586D01*
Y44531D01*
X30581D01*
Y44580D01*
X30576D01*
Y44615D01*
X30571D01*
Y44680D01*
X30566D01*
Y44725D01*
X30561D01*
Y44789D01*
X30556D01*
Y44829D01*
X30551D01*
Y44884D01*
X30546D01*
Y44938D01*
X30541D01*
Y44973D01*
X30536D01*
Y45048D01*
X30531D01*
Y45083D01*
X30526D01*
Y45137D01*
X30521D01*
Y45192D01*
X30516D01*
Y45232D01*
X30511D01*
Y45311D01*
X30516D01*
Y45351D01*
X30521D01*
Y45381D01*
X30526D01*
Y45401D01*
X30531D01*
Y45411D01*
X30536D01*
Y45431D01*
X30541D01*
Y45436D01*
X30546D01*
Y45446D01*
X30551D01*
Y45456D01*
X30556D01*
Y45466D01*
X30561D01*
Y45471D01*
X30566D01*
Y45480D01*
X30571D01*
Y45485D01*
X30576D01*
Y45490D01*
X30581D01*
Y45495D01*
X30586D01*
Y45500D01*
X30591D01*
Y45505D01*
X30601D01*
Y45510D01*
X30606D01*
Y45515D01*
X30611D01*
Y45520D01*
X30621D01*
Y45525D01*
X30626D01*
Y45530D01*
X30636D01*
Y45535D01*
X30656D01*
Y45540D01*
X30665D01*
Y45545D01*
X30690D01*
Y45550D01*
X30710D01*
Y45555D01*
X30785D01*
Y45550D01*
D02*
G37*
G36*
X30775Y43621D02*
X30800D01*
Y43616D01*
X30820D01*
Y43611D01*
X30835D01*
Y43606D01*
X30840D01*
Y43601D01*
X30854D01*
Y43596D01*
X30864D01*
Y43591D01*
X30869D01*
Y43586D01*
X30879D01*
Y43581D01*
X30884D01*
Y43576D01*
X30894D01*
Y43571D01*
X30899D01*
Y43566D01*
X30904D01*
Y43561D01*
X30914D01*
Y43551D01*
X30919D01*
Y43546D01*
X30924D01*
Y43541D01*
X30929D01*
Y43536D01*
X30934D01*
Y43531D01*
X30939D01*
Y43521D01*
X30944D01*
Y43516D01*
X30949D01*
Y43506D01*
X30954D01*
Y43496D01*
X30959D01*
Y43486D01*
X30964D01*
Y43476D01*
X30969D01*
Y43466D01*
X30974D01*
Y43447D01*
X30979D01*
Y43422D01*
X30984D01*
Y43347D01*
X30979D01*
Y43322D01*
X30974D01*
Y43302D01*
X30969D01*
Y43292D01*
X30964D01*
Y43282D01*
X30959D01*
Y43273D01*
X30954D01*
Y43263D01*
X30949D01*
Y43258D01*
X30944D01*
Y43248D01*
X30939D01*
Y43243D01*
X30934D01*
Y43238D01*
X30929D01*
Y43228D01*
X30924D01*
Y43223D01*
X30919D01*
Y43218D01*
X30914D01*
Y43213D01*
X30909D01*
Y43208D01*
X30904D01*
Y43203D01*
X30899D01*
Y43198D01*
X30894D01*
Y43193D01*
X30884D01*
Y43188D01*
X30879D01*
Y43183D01*
X30869D01*
Y43178D01*
X30864D01*
Y43173D01*
X30854D01*
Y43168D01*
X30844D01*
Y43163D01*
X30830D01*
Y43158D01*
X30815D01*
Y43153D01*
X30800D01*
Y43148D01*
X30690D01*
Y43153D01*
X30675D01*
Y43158D01*
X30660D01*
Y43163D01*
X30651D01*
Y43168D01*
X30641D01*
Y43173D01*
X30631D01*
Y43178D01*
X30621D01*
Y43183D01*
X30616D01*
Y43188D01*
X30606D01*
Y43193D01*
X30601D01*
Y43198D01*
X30591D01*
Y43203D01*
X30586D01*
Y43208D01*
X30581D01*
Y43213D01*
X30576D01*
Y43218D01*
X30571D01*
Y43223D01*
X30566D01*
Y43228D01*
X30561D01*
Y43233D01*
X30556D01*
Y43238D01*
X30551D01*
Y43248D01*
X30546D01*
Y43258D01*
X30541D01*
Y43263D01*
X30536D01*
Y43273D01*
X30531D01*
Y43282D01*
X30526D01*
Y43292D01*
X30521D01*
Y43307D01*
X30516D01*
Y43317D01*
X30511D01*
Y43352D01*
X30506D01*
Y43417D01*
X30511D01*
Y43447D01*
X30516D01*
Y43462D01*
X30521D01*
Y43476D01*
X30526D01*
Y43486D01*
X30531D01*
Y43496D01*
X30536D01*
Y43506D01*
X30541D01*
Y43511D01*
X30546D01*
Y43521D01*
X30551D01*
Y43531D01*
X30556D01*
Y43536D01*
X30561D01*
Y43541D01*
X30566D01*
Y43546D01*
X30571D01*
Y43551D01*
X30576D01*
Y43556D01*
X30581D01*
Y43561D01*
X30586D01*
Y43566D01*
X30591D01*
Y43571D01*
X30596D01*
Y43576D01*
X30606D01*
Y43581D01*
X30611D01*
Y43586D01*
X30621D01*
Y43591D01*
X30626D01*
Y43596D01*
X30636D01*
Y43601D01*
X30651D01*
Y43606D01*
X30656D01*
Y43611D01*
X30675D01*
Y43616D01*
X30690D01*
Y43621D01*
X30725D01*
Y43626D01*
X30775D01*
Y43621D01*
D02*
G37*
D36*
X50950Y13000D02*
G03*
X50950Y13000I-200J0D01*
G01*
Y22000D02*
G03*
X50950Y22000I-200J0D01*
G01*
X33528Y26670D02*
X37592D01*
X33528Y23368D02*
X37592D01*
X13208D02*
X17272D01*
X13208Y26670D02*
X17272D01*
D37*
X51525Y5000D02*
G03*
X51525Y5000I-125J0D01*
G01*
X27712Y13151D02*
G03*
X27712Y13151I-125J0D01*
G01*
X12125Y3080D02*
G03*
X12125Y3080I-125J0D01*
G01*
D38*
X17510Y15450D02*
G03*
X17510Y15450I-100J0D01*
G01*
X32346Y55050D02*
G03*
X32346Y55050I-100J0D01*
G01*
X42700Y14500D02*
G03*
X42700Y14500I-4200J0D01*
G01*
X34350Y52725D02*
Y52950D01*
X35610D02*
X35650D01*
X34350D02*
X34390D01*
X35650Y52725D02*
Y52950D01*
X45185Y8350D02*
X50815D01*
Y1650D02*
Y8350D01*
X45185Y1650D02*
X50815D01*
X45185D02*
Y8350D01*
X28025Y13025D02*
Y13475D01*
X28475D01*
X31525D02*
X31975D01*
Y13025D02*
Y13475D01*
Y9525D02*
Y9975D01*
X31525Y9525D02*
X31975D01*
X28025D02*
Y9975D01*
Y9525D02*
X28475D01*
X20000Y12500D02*
X25000D01*
X20000Y17500D02*
X25000D01*
X20000Y12500D02*
Y12900D01*
Y17100D02*
Y17500D01*
X25000Y12500D02*
Y12900D01*
Y17100D02*
Y17500D01*
X11230Y3730D02*
X12770D01*
X13270Y3980D01*
Y6020D01*
X12770Y6270D02*
X13270Y6020D01*
X12770Y6270D02*
X13270Y6520D01*
Y8560D01*
X12770Y8810D02*
X13270Y8560D01*
X10730D02*
X11230Y8810D01*
X10730Y6520D02*
Y8560D01*
Y6520D02*
X11230Y6270D01*
X10730Y6020D02*
X11230Y6270D01*
X10730Y3980D02*
Y6020D01*
Y3980D02*
X11230Y3730D01*
Y8810D02*
X12770D01*
X34798Y14500D02*
X35814D01*
X35306Y13992D02*
Y15008D01*
X36250Y25000D02*
X37750D01*
X37250Y25500D02*
X37750Y25000D01*
X37250Y24500D02*
X37750Y25000D01*
X13300Y24750D02*
X13800Y24250D01*
Y24250D02*
X14300Y24750D01*
X13800Y24250D02*
Y25750D01*
X23865Y41320D02*
X23690Y41495D01*
X23340D01*
X23165Y41320D01*
Y41145D01*
X23340Y40970D01*
X23690D01*
X23865Y40795D01*
Y40620D01*
X23690Y40445D01*
X23340D01*
X23165Y40620D01*
X24215Y41495D02*
Y40445D01*
X24739D01*
X24914Y40620D01*
Y40795D01*
X24739Y40970D01*
X24215D01*
X24739D01*
X24914Y41145D01*
Y41320D01*
X24739Y41495D01*
X24215D01*
X25964Y40445D02*
X25264D01*
X25964Y41145D01*
Y41320D01*
X25789Y41495D01*
X25439D01*
X25264Y41320D01*
X27364Y40445D02*
Y41145D01*
X27538D01*
X27713Y40970D01*
Y40445D01*
Y40970D01*
X27888Y41145D01*
X28063Y40970D01*
Y40445D01*
X28413Y41145D02*
Y40620D01*
X28588Y40445D01*
X29113D01*
Y41145D01*
X29463Y40445D02*
X29988D01*
X30163Y40620D01*
X29988Y40795D01*
X29638D01*
X29463Y40970D01*
X29638Y41145D01*
X30163D01*
X30687Y41320D02*
Y41145D01*
X30513D01*
X30862D01*
X30687D01*
Y40620D01*
X30862Y40445D01*
X32437Y41495D02*
Y40445D01*
X32962D01*
X33137Y40620D01*
Y40795D01*
Y40970D01*
X32962Y41145D01*
X32437D01*
X34011Y40445D02*
X33662D01*
X33487Y40620D01*
Y40970D01*
X33662Y41145D01*
X34011D01*
X34186Y40970D01*
Y40795D01*
X33487D01*
X36286Y41145D02*
X35761D01*
X35586Y40970D01*
Y40620D01*
X35761Y40445D01*
X36286D01*
X36636Y41145D02*
Y40620D01*
X36810Y40445D01*
X37335D01*
Y41145D01*
X37860Y41320D02*
Y41145D01*
X37685D01*
X38035D01*
X37860D01*
Y40620D01*
X38035Y40445D01*
X21241Y39580D02*
X21066Y39755D01*
X20716D01*
X20541Y39580D01*
Y39405D01*
X20716Y39230D01*
X21066D01*
X21241Y39055D01*
Y38880D01*
X21066Y38705D01*
X20716D01*
X20541Y38880D01*
X21590Y39755D02*
Y38705D01*
X22115D01*
X22290Y38880D01*
Y39055D01*
X22115Y39230D01*
X21590D01*
X22115D01*
X22290Y39405D01*
Y39580D01*
X22115Y39755D01*
X21590D01*
X22640Y38705D02*
X22990D01*
X22815D01*
Y39755D01*
X22640Y39580D01*
X24564Y38705D02*
Y39405D01*
X24739D01*
X24914Y39230D01*
Y38705D01*
Y39230D01*
X25089Y39405D01*
X25264Y39230D01*
Y38705D01*
X25614Y39405D02*
Y38880D01*
X25789Y38705D01*
X26314D01*
Y39405D01*
X26664Y38705D02*
X27189D01*
X27364Y38880D01*
X27189Y39055D01*
X26839D01*
X26664Y39230D01*
X26839Y39405D01*
X27364D01*
X27888Y39580D02*
Y39405D01*
X27713D01*
X28063D01*
X27888D01*
Y38880D01*
X28063Y38705D01*
X29638Y39755D02*
Y38705D01*
X30163D01*
X30338Y38880D01*
Y39055D01*
Y39230D01*
X30163Y39405D01*
X29638D01*
X31212Y38705D02*
X30862D01*
X30687Y38880D01*
Y39230D01*
X30862Y39405D01*
X31212D01*
X31387Y39230D01*
Y39055D01*
X30687D01*
X32787Y38705D02*
X33312D01*
X33487Y38880D01*
X33312Y39055D01*
X32962D01*
X32787Y39230D01*
X32962Y39405D01*
X33487D01*
X34011Y38705D02*
X34361D01*
X34536Y38880D01*
Y39230D01*
X34361Y39405D01*
X34011D01*
X33836Y39230D01*
Y38880D01*
X34011Y38705D01*
X34886D02*
X35236D01*
X35061D01*
Y39755D01*
X34886D01*
X36461D02*
Y38705D01*
X35936D01*
X35761Y38880D01*
Y39230D01*
X35936Y39405D01*
X36461D01*
X37335Y38705D02*
X36985D01*
X36810Y38880D01*
Y39230D01*
X36985Y39405D01*
X37335D01*
X37510Y39230D01*
Y39055D01*
X36810D01*
X37860Y39405D02*
Y38705D01*
Y39055D01*
X38035Y39230D01*
X38210Y39405D01*
X38385D01*
X39435Y38705D02*
X39085D01*
X38910Y38880D01*
Y39230D01*
X39085Y39405D01*
X39435D01*
X39610Y39230D01*
Y39055D01*
X38910D01*
X40659Y39755D02*
Y38705D01*
X40134D01*
X39959Y38880D01*
Y39230D01*
X40134Y39405D01*
X40659D01*
X47565Y45202D02*
X47460Y45306D01*
X47303Y45359D01*
X47093D01*
X46936Y45306D01*
X46831Y45202D01*
Y45097D01*
X46884Y44992D01*
X46936Y44940D01*
X47041Y44887D01*
X47355Y44783D01*
X47460Y44730D01*
X47512Y44678D01*
X47565Y44573D01*
Y44416D01*
X47460Y44311D01*
X47303Y44259D01*
X47093D01*
X46936Y44311D01*
X46831Y44416D01*
X47811Y45359D02*
Y44259D01*
X48439D01*
X48874Y45359D02*
X48769Y45306D01*
X48664Y45202D01*
X48612Y45097D01*
X48560Y44940D01*
Y44678D01*
X48612Y44521D01*
X48664Y44416D01*
X48769Y44311D01*
X48874Y44259D01*
X49083D01*
X49188Y44311D01*
X49293Y44416D01*
X49345Y44521D01*
X49397Y44678D01*
Y44940D01*
X49345Y45097D01*
X49293Y45202D01*
X49188Y45306D01*
X49083Y45359D01*
X48874D01*
X49706Y45097D02*
Y45149D01*
X49759Y45254D01*
X49811Y45306D01*
X49916Y45359D01*
X50125D01*
X50230Y45306D01*
X50283Y45254D01*
X50335Y45149D01*
Y45045D01*
X50283Y44940D01*
X50178Y44783D01*
X49654Y44259D01*
X50387D01*
X51550Y45097D02*
Y45149D01*
X51602Y45254D01*
X51655Y45306D01*
X51759Y45359D01*
X51969D01*
X52074Y45306D01*
X52126Y45254D01*
X52178Y45149D01*
Y45045D01*
X52126Y44940D01*
X52021Y44783D01*
X51498Y44259D01*
X52231D01*
X52791Y45359D02*
X52634Y45306D01*
X52529Y45149D01*
X52477Y44887D01*
Y44730D01*
X52529Y44469D01*
X52634Y44311D01*
X52791Y44259D01*
X52896D01*
X53053Y44311D01*
X53158Y44469D01*
X53210Y44730D01*
Y44887D01*
X53158Y45149D01*
X53053Y45306D01*
X52896Y45359D01*
X52791D01*
X53509Y45097D02*
Y45149D01*
X53561Y45254D01*
X53613Y45306D01*
X53718Y45359D01*
X53927D01*
X54032Y45306D01*
X54085Y45254D01*
X54137Y45149D01*
Y45045D01*
X54085Y44940D01*
X53980Y44783D01*
X53456Y44259D01*
X54189D01*
X54540Y45359D02*
X55116D01*
X54802Y44940D01*
X54959D01*
X55064Y44887D01*
X55116Y44835D01*
X55169Y44678D01*
Y44573D01*
X55116Y44416D01*
X55012Y44311D01*
X54854Y44259D01*
X54697D01*
X54540Y44311D01*
X54488Y44364D01*
X54435Y44469D01*
X45931Y43507D02*
Y42407D01*
Y43507D02*
X46350Y42407D01*
X46769Y43507D02*
X46350Y42407D01*
X46769Y43507D02*
Y42407D01*
X47187Y43507D02*
X47240Y43454D01*
X47292Y43507D01*
X47240Y43559D01*
X47187Y43507D01*
X47240Y43140D02*
Y42407D01*
X48114Y43140D02*
Y42302D01*
X48062Y42145D01*
X48010Y42093D01*
X47905Y42040D01*
X47748D01*
X47643Y42093D01*
X48114Y42983D02*
X48010Y43088D01*
X47905Y43140D01*
X47748D01*
X47643Y43088D01*
X47538Y42983D01*
X47486Y42826D01*
Y42721D01*
X47538Y42564D01*
X47643Y42459D01*
X47748Y42407D01*
X47905D01*
X48010Y42459D01*
X48114Y42564D01*
X48408Y43140D02*
Y42616D01*
X48460Y42459D01*
X48565Y42407D01*
X48722D01*
X48827Y42459D01*
X48984Y42616D01*
Y43140D02*
Y42407D01*
X49272Y42826D02*
X49900D01*
Y42931D01*
X49848Y43035D01*
X49796Y43088D01*
X49691Y43140D01*
X49534D01*
X49429Y43088D01*
X49324Y42983D01*
X49272Y42826D01*
Y42721D01*
X49324Y42564D01*
X49429Y42459D01*
X49534Y42407D01*
X49691D01*
X49796Y42459D01*
X49900Y42564D01*
X50136Y43507D02*
Y42407D01*
X51964Y43350D02*
X51859Y43454D01*
X51702Y43507D01*
X51492D01*
X51335Y43454D01*
X51230Y43350D01*
Y43245D01*
X51283Y43140D01*
X51335Y43088D01*
X51440Y43035D01*
X51754Y42931D01*
X51859Y42878D01*
X51911Y42826D01*
X51964Y42721D01*
Y42564D01*
X51859Y42459D01*
X51702Y42407D01*
X51492D01*
X51335Y42459D01*
X51230Y42564D01*
X52838Y43140D02*
Y42407D01*
Y42983D02*
X52733Y43088D01*
X52629Y43140D01*
X52472D01*
X52367Y43088D01*
X52262Y42983D01*
X52210Y42826D01*
Y42721D01*
X52262Y42564D01*
X52367Y42459D01*
X52472Y42407D01*
X52629D01*
X52733Y42459D01*
X52838Y42564D01*
X53131Y43140D02*
Y42407D01*
Y42931D02*
X53289Y43088D01*
X53393Y43140D01*
X53550D01*
X53655Y43088D01*
X53708Y42931D01*
Y42407D01*
X54153Y43507D02*
Y42616D01*
X54205Y42459D01*
X54310Y42407D01*
X54415D01*
X53996Y43140D02*
X54362D01*
X54833D02*
X54729Y43088D01*
X54624Y42983D01*
X54572Y42826D01*
Y42721D01*
X54624Y42564D01*
X54729Y42459D01*
X54833Y42407D01*
X54991D01*
X55095Y42459D01*
X55200Y42564D01*
X55252Y42721D01*
Y42826D01*
X55200Y42983D01*
X55095Y43088D01*
X54991Y43140D01*
X54833D01*
X56069Y42983D02*
X56017Y43088D01*
X55860Y43140D01*
X55703D01*
X55546Y43088D01*
X55493Y42983D01*
X55546Y42878D01*
X55650Y42826D01*
X55912Y42774D01*
X56017Y42721D01*
X56069Y42616D01*
Y42564D01*
X56017Y42459D01*
X55860Y42407D01*
X55703D01*
X55546Y42459D01*
X55493Y42564D01*
X48185Y39279D02*
Y39331D01*
X48237Y39436D01*
X48290Y39488D01*
X48395Y39541D01*
X48604D01*
X48709Y39488D01*
X48761Y39436D01*
X48814Y39331D01*
Y39226D01*
X48761Y39122D01*
X48656Y38965D01*
X48133Y38441D01*
X48866D01*
X49164Y39279D02*
Y39331D01*
X49217Y39436D01*
X49269Y39488D01*
X49374Y39541D01*
X49583D01*
X49688Y39488D01*
X49741Y39436D01*
X49793Y39331D01*
Y39226D01*
X49741Y39122D01*
X49636Y38965D01*
X49112Y38441D01*
X49845D01*
X50144Y39279D02*
Y39331D01*
X50196Y39436D01*
X50248Y39488D01*
X50353Y39541D01*
X50563D01*
X50667Y39488D01*
X50720Y39436D01*
X50772Y39331D01*
Y39226D01*
X50720Y39122D01*
X50615Y38965D01*
X50091Y38441D01*
X50825D01*
X51333Y39541D02*
X51175Y39488D01*
X51123Y39384D01*
Y39279D01*
X51175Y39174D01*
X51280Y39122D01*
X51490Y39069D01*
X51647Y39017D01*
X51752Y38912D01*
X51804Y38808D01*
Y38650D01*
X51752Y38546D01*
X51699Y38493D01*
X51542Y38441D01*
X51333D01*
X51175Y38493D01*
X51123Y38546D01*
X51071Y38650D01*
Y38808D01*
X51123Y38912D01*
X51228Y39017D01*
X51385Y39069D01*
X51594Y39122D01*
X51699Y39174D01*
X51752Y39279D01*
Y39384D01*
X51699Y39488D01*
X51542Y39541D01*
X51333D01*
X52364D02*
X52207Y39488D01*
X52102Y39331D01*
X52050Y39069D01*
Y38912D01*
X52102Y38650D01*
X52207Y38493D01*
X52364Y38441D01*
X52469D01*
X52626Y38493D01*
X52731Y38650D01*
X52783Y38912D01*
Y39069D01*
X52731Y39331D01*
X52626Y39488D01*
X52469Y39541D01*
X52364D01*
X53867Y38441D02*
X53448Y39541D01*
X53029Y38441D01*
X53186Y38808D02*
X53710D01*
X46714Y36641D02*
X46295Y37741D01*
X45876Y36641D01*
X46033Y37008D02*
X46556D01*
X46970Y37741D02*
Y36641D01*
X47829Y37374D02*
Y36641D01*
Y37217D02*
X47724Y37322D01*
X47620Y37374D01*
X47462D01*
X47358Y37322D01*
X47253Y37217D01*
X47201Y37060D01*
Y36955D01*
X47253Y36798D01*
X47358Y36694D01*
X47462Y36641D01*
X47620D01*
X47724Y36694D01*
X47829Y36798D01*
X48122Y37374D02*
Y36641D01*
Y37060D02*
X48175Y37217D01*
X48279Y37322D01*
X48384Y37374D01*
X48541D01*
X48641D02*
Y36641D01*
Y37165D02*
X48798Y37322D01*
X48903Y37374D01*
X49060D01*
X49164Y37322D01*
X49217Y37165D01*
Y36641D01*
Y37165D02*
X49374Y37322D01*
X49479Y37374D01*
X49636D01*
X49741Y37322D01*
X49793Y37165D01*
Y36641D01*
X50139Y37060D02*
X50767D01*
Y37165D01*
X50715Y37270D01*
X50662Y37322D01*
X50557Y37374D01*
X50400D01*
X50296Y37322D01*
X50191Y37217D01*
X50139Y37060D01*
Y36955D01*
X50191Y36798D01*
X50296Y36694D01*
X50400Y36641D01*
X50557D01*
X50662Y36694D01*
X50767Y36798D01*
X51003Y37741D02*
Y36641D01*
Y37741D02*
X51683D01*
X51003Y37217D02*
X51422D01*
X51809Y37060D02*
X52438D01*
Y37165D01*
X52385Y37270D01*
X52333Y37322D01*
X52228Y37374D01*
X52071D01*
X51966Y37322D01*
X51861Y37217D01*
X51809Y37060D01*
Y36955D01*
X51861Y36798D01*
X51966Y36694D01*
X52071Y36641D01*
X52228D01*
X52333Y36694D01*
X52438Y36798D01*
X52673Y37374D02*
Y36641D01*
Y37165D02*
X52830Y37322D01*
X52935Y37374D01*
X53092D01*
X53197Y37322D01*
X53249Y37165D01*
Y36641D01*
X53537Y37060D02*
X54166D01*
Y37165D01*
X54113Y37270D01*
X54061Y37322D01*
X53956Y37374D01*
X53799D01*
X53694Y37322D01*
X53590Y37217D01*
X53537Y37060D01*
Y36955D01*
X53590Y36798D01*
X53694Y36694D01*
X53799Y36641D01*
X53956D01*
X54061Y36694D01*
X54166Y36798D01*
X54559Y37741D02*
Y36851D01*
X54611Y36694D01*
X54716Y36641D01*
X54820D01*
X54401Y37374D02*
X54768D01*
X54977D02*
Y36641D01*
Y37060D02*
X55030Y37217D01*
X55135Y37322D01*
X55239Y37374D01*
X55396D01*
X55496Y37060D02*
X56124D01*
Y37165D01*
X56072Y37270D01*
X56020Y37322D01*
X55915Y37374D01*
X55758D01*
X55653Y37322D01*
X55548Y37217D01*
X55496Y37060D01*
Y36955D01*
X55548Y36798D01*
X55653Y36694D01*
X55758Y36641D01*
X55915D01*
X56020Y36694D01*
X56124Y36798D01*
X11130Y31150D02*
Y31850D01*
X11479Y32200D01*
X11829Y31850D01*
Y31150D01*
Y31675D01*
X11130D01*
X12179Y31850D02*
Y31150D01*
Y31500D01*
X12354Y31675D01*
X12529Y31850D01*
X12704D01*
X13229D02*
Y31150D01*
Y31500D01*
X13404Y31675D01*
X13579Y31850D01*
X13754D01*
X14454Y31150D02*
X14803D01*
X14978Y31325D01*
Y31675D01*
X14803Y31850D01*
X14454D01*
X14279Y31675D01*
Y31325D01*
X14454Y31150D01*
X15328Y31850D02*
Y31325D01*
X15503Y31150D01*
X15678Y31325D01*
X15853Y31150D01*
X16028Y31325D01*
Y31850D01*
X16378Y31150D02*
X16903D01*
X17078Y31325D01*
X16903Y31500D01*
X16553D01*
X16378Y31675D01*
X16553Y31850D01*
X17078D01*
X18477Y31500D02*
X19177D01*
X18477Y31850D02*
X19177D01*
X21276Y32200D02*
X20926D01*
X21101D01*
Y31325D01*
X20926Y31150D01*
X20751D01*
X20577Y31325D01*
X21626Y31850D02*
Y31325D01*
X21801Y31150D01*
X22326D01*
Y31850D01*
X22676Y31150D02*
Y31850D01*
X22851D01*
X23026Y31675D01*
Y31150D01*
Y31675D01*
X23201Y31850D01*
X23376Y31675D01*
Y31150D01*
X23726Y30800D02*
Y31850D01*
X24250D01*
X24425Y31675D01*
Y31325D01*
X24250Y31150D01*
X23726D01*
X25300D02*
X24950D01*
X24775Y31325D01*
Y31675D01*
X24950Y31850D01*
X25300D01*
X25475Y31675D01*
Y31500D01*
X24775D01*
X25825Y31850D02*
Y31150D01*
Y31500D01*
X26000Y31675D01*
X26175Y31850D01*
X26350D01*
X26874Y31150D02*
X27399D01*
X27574Y31325D01*
X27399Y31500D01*
X27049D01*
X26874Y31675D01*
X27049Y31850D01*
X27574D01*
X29149Y31150D02*
X29499D01*
X29674Y31325D01*
Y31675D01*
X29499Y31850D01*
X29149D01*
X28974Y31675D01*
Y31325D01*
X29149Y31150D01*
X30023Y31850D02*
Y31150D01*
Y31500D01*
X30198Y31675D01*
X30373Y31850D01*
X30548D01*
X31073Y31150D02*
X31423D01*
X31248D01*
Y31850D01*
X31073D01*
X32473Y31150D02*
X32123D01*
X31948Y31325D01*
Y31675D01*
X32123Y31850D01*
X32473D01*
X32648Y31675D01*
Y31500D01*
X31948D01*
X32998Y31150D02*
Y31850D01*
X33522D01*
X33697Y31675D01*
Y31150D01*
X34222Y32025D02*
Y31850D01*
X34047D01*
X34397D01*
X34222D01*
Y31325D01*
X34397Y31150D01*
X35097Y31850D02*
X35447D01*
X35622Y31675D01*
Y31150D01*
X35097D01*
X34922Y31325D01*
X35097Y31500D01*
X35622D01*
X36146Y32025D02*
Y31850D01*
X35972D01*
X36321D01*
X36146D01*
Y31325D01*
X36321Y31150D01*
X36846D02*
X37196D01*
X37021D01*
Y31850D01*
X36846D01*
X37896Y31150D02*
X38246D01*
X38421Y31325D01*
Y31675D01*
X38246Y31850D01*
X37896D01*
X37721Y31675D01*
Y31325D01*
X37896Y31150D01*
X38771D02*
Y31850D01*
X39295D01*
X39470Y31675D01*
Y31150D01*
D39*
X45892Y13396D02*
X50108D01*
X45892Y18604D02*
X50108D01*
X45892Y27604D02*
X50108D01*
X45892Y22396D02*
X50108D01*
D40*
X14670Y17950D02*
X15330D01*
X14200Y16165D02*
Y16835D01*
X14670Y15050D02*
X15330D01*
X29350Y57460D02*
X30035D01*
X29350Y54540D02*
Y55385D01*
Y56615D02*
Y57460D01*
Y54540D02*
X30035D01*
X38100Y27540D02*
X43180D01*
X38100Y22460D02*
Y27540D01*
Y22460D02*
X43180D01*
Y27540D01*
X12700Y22460D02*
Y27540D01*
X7620D02*
X12700D01*
X7620Y22460D02*
Y27540D01*
Y22460D02*
X12700D01*
X17780D02*
X22860D01*
Y27540D01*
X17780D02*
X22860D01*
X17780Y22460D02*
Y27540D01*
X27940Y22460D02*
X33020D01*
Y27540D01*
X27940D02*
X33020D01*
X27940Y22460D02*
Y27540D01*
D41*
X27203Y47994D02*
X41605D01*
Y36006D02*
Y47994D01*
X27203Y36006D02*
X41605D01*
X25578Y49620D02*
X27203Y47994D01*
X25400Y49620D02*
X25578D01*
Y34380D02*
X27203Y36006D01*
X25400Y34380D02*
X25578D01*
D42*
X39294Y28495D02*
Y29505D01*
X39630Y29168D01*
X39967Y29505D01*
Y28495D01*
X40303Y29505D02*
Y28663D01*
X40472Y28495D01*
X40808D01*
X40977Y28663D01*
Y29505D01*
X41313D02*
X41986Y28495D01*
Y29505D02*
X41313Y28495D01*
X28629D02*
Y29505D01*
X29134D01*
X29302Y29337D01*
Y29000D01*
X29134Y28832D01*
X28629D01*
X29639Y28495D02*
Y29168D01*
X29975Y29505D01*
X30312Y29168D01*
Y28495D01*
Y29000D01*
X29639D01*
X31321Y29337D02*
X31153Y29505D01*
X30817D01*
X30648Y29337D01*
Y29168D01*
X30817Y29000D01*
X31153D01*
X31321Y28832D01*
Y28663D01*
X31153Y28495D01*
X30817D01*
X30648Y28663D01*
X32331Y29337D02*
X32163Y29505D01*
X31826D01*
X31658Y29337D01*
Y29168D01*
X31826Y29000D01*
X32163D01*
X32331Y28832D01*
Y28663D01*
X32163Y28495D01*
X31826D01*
X31658Y28663D01*
X18469Y28495D02*
Y29505D01*
X18974D01*
X19142Y29337D01*
Y29000D01*
X18974Y28832D01*
X18469D01*
X19479Y28495D02*
Y29168D01*
X19815Y29505D01*
X20152Y29168D01*
Y28495D01*
Y29000D01*
X19479D01*
X21161Y29337D02*
X20993Y29505D01*
X20657D01*
X20488Y29337D01*
Y29168D01*
X20657Y29000D01*
X20993D01*
X21161Y28832D01*
Y28663D01*
X20993Y28495D01*
X20657D01*
X20488Y28663D01*
X22171Y29337D02*
X22003Y29505D01*
X21666D01*
X21498Y29337D01*
Y29168D01*
X21666Y29000D01*
X22003D01*
X22171Y28832D01*
Y28663D01*
X22003Y28495D01*
X21666D01*
X21498Y28663D01*
X8814Y28495D02*
Y29505D01*
X9319D01*
X9487Y29337D01*
Y29000D01*
X9319Y28832D01*
X8814D01*
X9150D02*
X9487Y28495D01*
X10497Y29505D02*
X9823D01*
Y28495D01*
X10497D01*
X9823Y29000D02*
X10160D01*
X11506Y29337D02*
X11338Y29505D01*
X11001D01*
X10833Y29337D01*
Y28663D01*
X11001Y28495D01*
X11338D01*
X11506Y28663D01*
Y29000D01*
X11170D01*
D43*
X31130Y22010D02*
X31810Y20990D01*
Y22010D02*
X31130Y20990D01*
X32150Y21840D02*
X32320Y22010D01*
X32660D01*
X32830Y21840D01*
Y21670D01*
X32660Y21500D01*
X32490D01*
X32660D01*
X32830Y21330D01*
Y21160D01*
X32660Y20990D01*
X32320D01*
X32150Y21160D01*
X20970Y22010D02*
X21650Y20990D01*
Y22010D02*
X20970Y20990D01*
X22670Y22010D02*
X21990D01*
Y21500D01*
X22330Y21670D01*
X22500D01*
X22670Y21500D01*
Y21160D01*
X22500Y20990D01*
X22160D01*
X21990Y21160D01*
X11310Y22010D02*
X11990Y20990D01*
Y22010D02*
X11310Y20990D01*
X12840D02*
Y22010D01*
X12330Y21500D01*
X13010D01*
X41290Y22010D02*
X41970Y20990D01*
Y22010D02*
X41290Y20990D01*
X42990D02*
X42310D01*
X42990Y21670D01*
Y21840D01*
X42820Y22010D01*
X42480D01*
X42310Y21840D01*
X8820Y4760D02*
X9500Y3740D01*
Y4760D02*
X8820Y3740D01*
X9840D02*
X10180D01*
X10010D01*
Y4760D01*
X9840Y4590D01*
X54121Y24510D02*
Y23830D01*
X54461Y23490D01*
X54801Y23830D01*
Y24510D01*
X55820Y24340D02*
X55650Y24510D01*
X55310D01*
X55140Y24340D01*
Y24170D01*
X55310Y24000D01*
X55650D01*
X55820Y23830D01*
Y23660D01*
X55650Y23490D01*
X55310D01*
X55140Y23660D01*
X56160Y24510D02*
X56840D01*
X56500D01*
Y23490D01*
X57690Y24510D02*
X57350D01*
X57180Y24340D01*
Y23660D01*
X57350Y23490D01*
X57690D01*
X57860Y23660D01*
Y24340D01*
X57690Y24510D01*
X58199Y23490D02*
Y24510D01*
X58709D01*
X58879Y24340D01*
Y24000D01*
X58709Y23830D01*
X58199D01*
X58539D02*
X58879Y23490D01*
X55131Y18510D02*
Y17830D01*
X55471Y17490D01*
X55810Y17830D01*
Y18510D01*
X56830Y18340D02*
X56660Y18510D01*
X56320D01*
X56150Y18340D01*
Y18170D01*
X56320Y18000D01*
X56660D01*
X56830Y17830D01*
Y17660D01*
X56660Y17490D01*
X56320D01*
X56150Y17660D01*
X57850Y18510D02*
X57170D01*
Y17490D01*
X57850D01*
X57170Y18000D02*
X57510D01*
X58869Y18340D02*
X58699Y18510D01*
X58360D01*
X58190Y18340D01*
Y17660D01*
X58360Y17490D01*
X58699D01*
X58869Y17660D01*
X1131Y24510D02*
Y23830D01*
X1470Y23490D01*
X1810Y23830D01*
Y24510D01*
X2150Y23490D02*
Y24510D01*
X2490Y24170D01*
X2830Y24510D01*
Y23490D01*
X3170Y24510D02*
Y23660D01*
X3340Y23490D01*
X3680D01*
X3850Y23660D01*
Y24510D01*
X4190D02*
Y23490D01*
X4869D01*
X1725Y12510D02*
Y11830D01*
X2065Y11490D01*
X2405Y11830D01*
Y12510D01*
X2745D02*
X3085D01*
X2915D01*
Y11490D01*
X2745D01*
X3085D01*
X3595D02*
Y12510D01*
X4275Y11490D01*
Y12510D01*
X1640Y30510D02*
Y29830D01*
X1980Y29490D01*
X2320Y29830D01*
Y30510D01*
X3340Y30340D02*
X3170Y30510D01*
X2830D01*
X2660Y30340D01*
Y29660D01*
X2830Y29490D01*
X3170D01*
X3340Y29660D01*
X4360Y30340D02*
X4190Y30510D01*
X3850D01*
X3680Y30340D01*
Y29660D01*
X3850Y29490D01*
X4190D01*
X4360Y29660D01*
X35900Y35260D02*
Y34410D01*
X36070Y34240D01*
X36410D01*
X36580Y34410D01*
Y35260D01*
X37600D02*
X37260Y35090D01*
X36920Y34750D01*
Y34410D01*
X37090Y34240D01*
X37430D01*
X37600Y34410D01*
Y34580D01*
X37430Y34750D01*
X36920D01*
X29150Y54010D02*
Y53160D01*
X29320Y52990D01*
X29660D01*
X29830Y53160D01*
Y54010D01*
X30850D02*
X30170D01*
Y53500D01*
X30510Y53670D01*
X30680D01*
X30850Y53500D01*
Y53160D01*
X30680Y52990D01*
X30340D01*
X30170Y53160D01*
X15150Y14510D02*
Y13660D01*
X15320Y13490D01*
X15660D01*
X15830Y13660D01*
Y14510D01*
X16680Y13490D02*
Y14510D01*
X16170Y14000D01*
X16850D01*
X47156Y20301D02*
Y19451D01*
X47326Y19281D01*
X47665D01*
X47835Y19451D01*
Y20301D01*
X48175Y20131D02*
X48345Y20301D01*
X48685D01*
X48855Y20131D01*
Y19961D01*
X48685Y19791D01*
X48515D01*
X48685D01*
X48855Y19621D01*
Y19451D01*
X48685Y19281D01*
X48345D01*
X48175Y19451D01*
X47156Y29318D02*
Y28468D01*
X47326Y28298D01*
X47665D01*
X47835Y28468D01*
Y29318D01*
X48855Y28298D02*
X48175D01*
X48855Y28978D01*
Y29148D01*
X48685Y29318D01*
X48345D01*
X48175Y29148D01*
X32820Y10010D02*
Y9160D01*
X32990Y8990D01*
X33330D01*
X33500Y9160D01*
Y10010D01*
X33840Y8990D02*
X34180D01*
X34010D01*
Y10010D01*
X33840Y9840D01*
X37150Y49110D02*
Y50130D01*
X37660D01*
X37830Y49960D01*
Y49620D01*
X37660Y49450D01*
X37150D01*
X37490D02*
X37830Y49110D01*
X38850Y50130D02*
X38510Y49960D01*
X38170Y49620D01*
Y49280D01*
X38340Y49110D01*
X38680D01*
X38850Y49280D01*
Y49450D01*
X38680Y49620D01*
X38170D01*
X31650Y1740D02*
Y2760D01*
X32160D01*
X32330Y2590D01*
Y2250D01*
X32160Y2080D01*
X31650D01*
X31990D02*
X32330Y1740D01*
X33350Y2760D02*
X32670D01*
Y2250D01*
X33010Y2420D01*
X33180D01*
X33350Y2250D01*
Y1910D01*
X33180Y1740D01*
X32840D01*
X32670Y1910D01*
X36650Y5990D02*
Y7010D01*
X37160D01*
X37330Y6840D01*
Y6500D01*
X37160Y6330D01*
X36650D01*
X36990D02*
X37330Y5990D01*
X38180D02*
Y7010D01*
X37670Y6500D01*
X38350D01*
X35650Y1740D02*
Y2760D01*
X36160D01*
X36330Y2590D01*
Y2250D01*
X36160Y2080D01*
X35650D01*
X35990D02*
X36330Y1740D01*
X36670Y2590D02*
X36840Y2760D01*
X37180D01*
X37350Y2590D01*
Y2420D01*
X37180Y2250D01*
X37010D01*
X37180D01*
X37350Y2080D01*
Y1910D01*
X37180Y1740D01*
X36840D01*
X36670Y1910D01*
X26650Y5990D02*
Y7010D01*
X27160D01*
X27330Y6840D01*
Y6500D01*
X27160Y6330D01*
X26650D01*
X26990D02*
X27330Y5990D01*
X28350D02*
X27670D01*
X28350Y6670D01*
Y6840D01*
X28180Y7010D01*
X27840D01*
X27670Y6840D01*
X27820Y1740D02*
Y2760D01*
X28330D01*
X28500Y2590D01*
Y2250D01*
X28330Y2080D01*
X27820D01*
X28160D02*
X28500Y1740D01*
X28840D02*
X29180D01*
X29010D01*
Y2760D01*
X28840Y2590D01*
X38000Y52160D02*
Y52840D01*
X37830Y53010D01*
X37490D01*
X37320Y52840D01*
Y52160D01*
X37490Y51990D01*
X37830D01*
X37660Y52330D02*
X38000Y51990D01*
X37830D02*
X38000Y52160D01*
X38340Y51990D02*
X38680D01*
X38510D01*
Y53010D01*
X38340Y52840D01*
X6150Y14010D02*
Y12990D01*
X6830D01*
X7850D02*
X7170D01*
X7850Y13670D01*
Y13840D01*
X7680Y14010D01*
X7340D01*
X7170Y13840D01*
X21820Y19010D02*
Y17990D01*
X22500D01*
X22840D02*
X23180D01*
X23010D01*
Y19010D01*
X22840Y18840D01*
X55810Y12340D02*
X55640Y12510D01*
X55301D01*
X55131Y12340D01*
Y11660D01*
X55301Y11490D01*
X55640D01*
X55810Y11660D01*
Y12000D01*
X55471D01*
X56150Y11490D02*
Y12510D01*
X56830Y11490D01*
Y12510D01*
X57170D02*
Y11490D01*
X57680D01*
X57850Y11660D01*
Y12340D01*
X57680Y12510D01*
X57170D01*
X58869Y11490D02*
X58190D01*
X58869Y12170D01*
Y12340D01*
X58699Y12510D01*
X58360D01*
X58190Y12340D01*
X1980Y18340D02*
X1810Y18510D01*
X1470D01*
X1301Y18340D01*
Y17660D01*
X1470Y17490D01*
X1810D01*
X1980Y17660D01*
Y18000D01*
X1640D01*
X2320Y17490D02*
Y18510D01*
X3000Y17490D01*
Y18510D01*
X3340D02*
Y17490D01*
X3850D01*
X4020Y17660D01*
Y18340D01*
X3850Y18510D01*
X3340D01*
X4360Y17490D02*
X4699D01*
X4530D01*
Y18510D01*
X4360Y18340D01*
X37830Y56340D02*
X37660Y56510D01*
X37320D01*
X37150Y56340D01*
Y55660D01*
X37320Y55490D01*
X37660D01*
X37830Y55660D01*
X38170D02*
X38340Y55490D01*
X38680D01*
X38850Y55660D01*
Y56340D01*
X38680Y56510D01*
X38340D01*
X38170Y56340D01*
Y56170D01*
X38340Y56000D01*
X38850D01*
X6830Y19840D02*
X6660Y20010D01*
X6320D01*
X6150Y19840D01*
Y19160D01*
X6320Y18990D01*
X6660D01*
X6830Y19160D01*
X7170Y19840D02*
X7340Y20010D01*
X7680D01*
X7850Y19840D01*
Y19670D01*
X7680Y19500D01*
X7850Y19330D01*
Y19160D01*
X7680Y18990D01*
X7340D01*
X7170Y19160D01*
Y19330D01*
X7340Y19500D01*
X7170Y19670D01*
Y19840D01*
X7340Y19500D02*
X7680D01*
X6830Y16840D02*
X6660Y17010D01*
X6320D01*
X6150Y16840D01*
Y16160D01*
X6320Y15990D01*
X6660D01*
X6830Y16160D01*
X7170Y17010D02*
X7850D01*
Y16840D01*
X7170Y16160D01*
Y15990D01*
X26830Y16840D02*
X26660Y17010D01*
X26320D01*
X26150Y16840D01*
Y16160D01*
X26320Y15990D01*
X26660D01*
X26830Y16160D01*
X27850Y17010D02*
X27510Y16840D01*
X27170Y16500D01*
Y16160D01*
X27340Y15990D01*
X27680D01*
X27850Y16160D01*
Y16330D01*
X27680Y16500D01*
X27170D01*
X26830Y19840D02*
X26660Y20010D01*
X26320D01*
X26150Y19840D01*
Y19160D01*
X26320Y18990D01*
X26660D01*
X26830Y19160D01*
X27850Y20010D02*
X27170D01*
Y19500D01*
X27510Y19670D01*
X27680D01*
X27850Y19500D01*
Y19160D01*
X27680Y18990D01*
X27340D01*
X27170Y19160D01*
X44830Y10840D02*
X44660Y11010D01*
X44320D01*
X44150Y10840D01*
Y10160D01*
X44320Y9990D01*
X44660D01*
X44830Y10160D01*
X45680Y9990D02*
Y11010D01*
X45170Y10500D01*
X45850D01*
X24830Y7840D02*
X24660Y8010D01*
X24320D01*
X24150Y7840D01*
Y7160D01*
X24320Y6990D01*
X24660D01*
X24830Y7160D01*
X25170Y7840D02*
X25340Y8010D01*
X25680D01*
X25850Y7840D01*
Y7670D01*
X25680Y7500D01*
X25510D01*
X25680D01*
X25850Y7330D01*
Y7160D01*
X25680Y6990D01*
X25340D01*
X25170Y7160D01*
X22330Y7840D02*
X22160Y8010D01*
X21820D01*
X21650Y7840D01*
Y7160D01*
X21820Y6990D01*
X22160D01*
X22330Y7160D01*
X23350Y6990D02*
X22670D01*
X23350Y7670D01*
Y7840D01*
X23180Y8010D01*
X22840D01*
X22670Y7840D01*
X20000D02*
X19830Y8010D01*
X19490D01*
X19320Y7840D01*
Y7160D01*
X19490Y6990D01*
X19830D01*
X20000Y7160D01*
X20340Y6990D02*
X20680D01*
X20510D01*
Y8010D01*
X20340Y7840D01*
X42650Y3010D02*
Y1990D01*
X43160D01*
X43330Y2160D01*
Y2330D01*
X43160Y2500D01*
X42650D01*
X43160D01*
X43330Y2670D01*
Y2840D01*
X43160Y3010D01*
X42650D01*
X44350Y1990D02*
X43670D01*
X44350Y2670D01*
Y2840D01*
X44180Y3010D01*
X43840D01*
X43670Y2840D01*
X33820Y19010D02*
Y17990D01*
X34330D01*
X34500Y18160D01*
Y18330D01*
X34330Y18500D01*
X33820D01*
X34330D01*
X34500Y18670D01*
Y18840D01*
X34330Y19010D01*
X33820D01*
X34840Y17990D02*
X35180D01*
X35010D01*
Y19010D01*
X34840Y18840D01*
%TF.MD5,2a104d6a854b387210708db3468489e7*%
M02*
